M48
; DRILL file {KiCad 5.1.10-88a1d61d58~88~ubuntu18.04.1} date Fri Sep 17 16:00:00 2021
; FORMAT={3:3/ absolute / metric / suppress leading zeros}
; #@! TF.CreationDate,2021-09-17T16:00:00+02:00
; #@! TF.GenerationSoftware,Kicad,Pcbnew,5.1.10-88a1d61d58~88~ubuntu18.04.1
FMAT,2
METRIC,TZ
T1C0.200
T2C0.250
T3C0.300
T4C0.400
T5C0.700
T6C1.000
T7C2.300
T8C1.100
%
G90
G05
T1
X146700Y-88400
X146700Y-89500
X148750Y-84400
X149600Y-80900
X149600Y-85100
X149600Y-88400
X149600Y-89500
X149650Y-86650
X150600Y-86650
X150700Y-90400
X150900Y-82900
X150950Y-84850
X153400Y-80800
X153400Y-88500
X153450Y-86650
X153450Y-90400
X153950Y-84800
X155950Y-84800
X156200Y-88500
X157000Y-88900
X157050Y-84800
X157050Y-86700
X158200Y-78850
X159100Y-90200
X159400Y-88100
T2
X148600Y-82100
X156500Y-80800
T3
X151000Y-79600
X153000Y-79600
X154000Y-79000
X156000Y-79000
X157000Y-79600
X159000Y-79600
T4
X146000Y-73000
X146000Y-79000
X146000Y-85000
X146000Y-91000
X146000Y-97000
X146000Y-103000
X146000Y-109000
X147600Y-84000
X150600Y-80900
X150600Y-92500
X152000Y-73000
X152000Y-79000
X152000Y-109000
X153400Y-92500
X155000Y-75000
X155000Y-79600
X155000Y-100000
X155000Y-105000
X156500Y-92500
X158000Y-73000
X158000Y-109000
X158500Y-75800
X161000Y-90000
X164000Y-73000
X164000Y-79000
X164000Y-85000
X164000Y-91000
X164000Y-97000
X164000Y-103000
X164000Y-109000
T5
X151000Y-95694
X151500Y-97194
X153000Y-95694
X154000Y-97194
X155000Y-95694
X156000Y-97194
X157000Y-95694
X158500Y-97194
X159000Y-95694
T6
X149150Y-74948
X160850Y-74948
X161050Y-85200
X161050Y-87700
T7
X148430Y-99194
X161570Y-99194
T8
X152750Y-74948
X157250Y-74948
T0
M30
