M48
; DRILL file {KiCad 5.1.10-88a1d61d58~88~ubuntu18.04.1} date Thu Sep 16 14:54:02 2021
; FORMAT={3:3/ absolute / metric / suppress leading zeros}
; #@! TF.CreationDate,2021-09-16T14:54:02+02:00
; #@! TF.GenerationSoftware,Kicad,Pcbnew,5.1.10-88a1d61d58~88~ubuntu18.04.1
FMAT,2
METRIC,TZ
T1C0.200
T2C0.400
T3C0.700
T4C1.000
T5C2.300
T6C1.100
%
G90
G05
T1
X149600Y-84900
X149600Y-86600
X149600Y-88400
X150700Y-90400
X151100Y-80800
X151100Y-82900
X151100Y-84900
X152900Y-84800
X153400Y-80800
X153400Y-88500
X153450Y-90400
X154100Y-84800
X155950Y-84800
X156500Y-80800
X156500Y-88500
X156500Y-90400
X157100Y-84800
X158100Y-78800
T2
X146000Y-73000
X146000Y-79000
X146000Y-85000
X146000Y-91000
X146000Y-97000
X146000Y-103000
X146000Y-109000
X150600Y-92500
X152000Y-73000
X152000Y-109000
X153400Y-92500
X155000Y-75000
X155000Y-100000
X155000Y-105000
X156500Y-92500
X158000Y-73000
X158000Y-109000
X158500Y-75800
X161000Y-90000
X164000Y-73000
X164000Y-79000
X164000Y-85000
X164000Y-91000
X164000Y-97000
X164000Y-103000
X164000Y-109000
T3
X151000Y-95694
X151500Y-97194
X153000Y-95694
X154000Y-97194
X155000Y-95694
X156000Y-97194
X157000Y-95694
X158500Y-97194
X159000Y-95694
T4
X149150Y-74948
X160850Y-74948
X161050Y-85200
X161050Y-87700
T5
X148430Y-99194
X161570Y-99194
T6
X152750Y-74948
X157250Y-74948
T0
M30
