G04 #@! TF.GenerationSoftware,KiCad,Pcbnew,5.1.10-88a1d61d58~88~ubuntu18.04.1*
G04 #@! TF.CreationDate,2021-09-16T14:54:05+02:00*
G04 #@! TF.ProjectId,GPIO-USB-Switch,4750494f-2d55-4534-922d-537769746368,rev?*
G04 #@! TF.SameCoordinates,Original*
G04 #@! TF.FileFunction,Copper,L1,Top*
G04 #@! TF.FilePolarity,Positive*
%FSLAX46Y46*%
G04 Gerber Fmt 4.6, Leading zero omitted, Abs format (unit mm)*
G04 Created by KiCad (PCBNEW 5.1.10-88a1d61d58~88~ubuntu18.04.1) date 2021-09-16 14:54:05*
%MOMM*%
%LPD*%
G01*
G04 APERTURE LIST*
G04 #@! TA.AperFunction,SMDPad,CuDef*
%ADD10R,0.900000X0.800000*%
G04 #@! TD*
G04 #@! TA.AperFunction,SMDPad,CuDef*
%ADD11R,0.700000X1.800000*%
G04 #@! TD*
G04 #@! TA.AperFunction,ComponentPad*
%ADD12O,1.600000X3.200000*%
G04 #@! TD*
G04 #@! TA.AperFunction,ComponentPad*
%ADD13O,2.000000X1.700000*%
G04 #@! TD*
G04 #@! TA.AperFunction,ComponentPad*
%ADD14R,1.200000X1.200000*%
G04 #@! TD*
G04 #@! TA.AperFunction,ComponentPad*
%ADD15C,1.200000*%
G04 #@! TD*
G04 #@! TA.AperFunction,ComponentPad*
%ADD16C,3.450000*%
G04 #@! TD*
G04 #@! TA.AperFunction,ViaPad*
%ADD17C,0.800000*%
G04 #@! TD*
G04 #@! TA.AperFunction,ViaPad*
%ADD18C,0.400000*%
G04 #@! TD*
G04 #@! TA.AperFunction,Conductor*
%ADD19C,0.200000*%
G04 #@! TD*
G04 #@! TA.AperFunction,Conductor*
%ADD20C,0.700000*%
G04 #@! TD*
G04 #@! TA.AperFunction,Conductor*
%ADD21C,0.350000*%
G04 #@! TD*
G04 #@! TA.AperFunction,Conductor*
%ADD22C,0.400000*%
G04 #@! TD*
G04 #@! TA.AperFunction,Conductor*
%ADD23C,0.254000*%
G04 #@! TD*
G04 #@! TA.AperFunction,Conductor*
%ADD24C,0.100000*%
G04 #@! TD*
G04 APERTURE END LIST*
D10*
X148600000Y-82900000D03*
X150600000Y-81950000D03*
X150600000Y-83850000D03*
D11*
X151000000Y-77398000D03*
X159000000Y-77398000D03*
X152000000Y-77398000D03*
X158000000Y-77398000D03*
X157000000Y-77398000D03*
X156000000Y-77398000D03*
X153000000Y-77398000D03*
X154000000Y-77398000D03*
X155000000Y-77398000D03*
D12*
X149150000Y-74948000D03*
X160850000Y-74948000D03*
G04 #@! TA.AperFunction,SMDPad,CuDef*
G36*
G01*
X153193750Y-83250000D02*
X153706250Y-83250000D01*
G75*
G02*
X153925000Y-83468750I0J-218750D01*
G01*
X153925000Y-83906250D01*
G75*
G02*
X153706250Y-84125000I-218750J0D01*
G01*
X153193750Y-84125000D01*
G75*
G02*
X152975000Y-83906250I0J218750D01*
G01*
X152975000Y-83468750D01*
G75*
G02*
X153193750Y-83250000I218750J0D01*
G01*
G37*
G04 #@! TD.AperFunction*
G04 #@! TA.AperFunction,SMDPad,CuDef*
G36*
G01*
X153193750Y-81675000D02*
X153706250Y-81675000D01*
G75*
G02*
X153925000Y-81893750I0J-218750D01*
G01*
X153925000Y-82331250D01*
G75*
G02*
X153706250Y-82550000I-218750J0D01*
G01*
X153193750Y-82550000D01*
G75*
G02*
X152975000Y-82331250I0J218750D01*
G01*
X152975000Y-81893750D01*
G75*
G02*
X153193750Y-81675000I218750J0D01*
G01*
G37*
G04 #@! TD.AperFunction*
G04 #@! TA.AperFunction,SMDPad,CuDef*
G36*
G01*
X156775000Y-86225000D02*
X156225000Y-86225000D01*
G75*
G02*
X156025000Y-86025000I0J200000D01*
G01*
X156025000Y-85625000D01*
G75*
G02*
X156225000Y-85425000I200000J0D01*
G01*
X156775000Y-85425000D01*
G75*
G02*
X156975000Y-85625000I0J-200000D01*
G01*
X156975000Y-86025000D01*
G75*
G02*
X156775000Y-86225000I-200000J0D01*
G01*
G37*
G04 #@! TD.AperFunction*
G04 #@! TA.AperFunction,SMDPad,CuDef*
G36*
G01*
X156775000Y-87875000D02*
X156225000Y-87875000D01*
G75*
G02*
X156025000Y-87675000I0J200000D01*
G01*
X156025000Y-87275000D01*
G75*
G02*
X156225000Y-87075000I200000J0D01*
G01*
X156775000Y-87075000D01*
G75*
G02*
X156975000Y-87275000I0J-200000D01*
G01*
X156975000Y-87675000D01*
G75*
G02*
X156775000Y-87875000I-200000J0D01*
G01*
G37*
G04 #@! TD.AperFunction*
G04 #@! TA.AperFunction,SMDPad,CuDef*
G36*
G01*
X150325000Y-87075000D02*
X150875000Y-87075000D01*
G75*
G02*
X151075000Y-87275000I0J-200000D01*
G01*
X151075000Y-87675000D01*
G75*
G02*
X150875000Y-87875000I-200000J0D01*
G01*
X150325000Y-87875000D01*
G75*
G02*
X150125000Y-87675000I0J200000D01*
G01*
X150125000Y-87275000D01*
G75*
G02*
X150325000Y-87075000I200000J0D01*
G01*
G37*
G04 #@! TD.AperFunction*
G04 #@! TA.AperFunction,SMDPad,CuDef*
G36*
G01*
X150325000Y-85425000D02*
X150875000Y-85425000D01*
G75*
G02*
X151075000Y-85625000I0J-200000D01*
G01*
X151075000Y-86025000D01*
G75*
G02*
X150875000Y-86225000I-200000J0D01*
G01*
X150325000Y-86225000D01*
G75*
G02*
X150125000Y-86025000I0J200000D01*
G01*
X150125000Y-85625000D01*
G75*
G02*
X150325000Y-85425000I200000J0D01*
G01*
G37*
G04 #@! TD.AperFunction*
G04 #@! TA.AperFunction,SMDPad,CuDef*
G36*
G01*
X153175000Y-87075000D02*
X153725000Y-87075000D01*
G75*
G02*
X153925000Y-87275000I0J-200000D01*
G01*
X153925000Y-87675000D01*
G75*
G02*
X153725000Y-87875000I-200000J0D01*
G01*
X153175000Y-87875000D01*
G75*
G02*
X152975000Y-87675000I0J200000D01*
G01*
X152975000Y-87275000D01*
G75*
G02*
X153175000Y-87075000I200000J0D01*
G01*
G37*
G04 #@! TD.AperFunction*
G04 #@! TA.AperFunction,SMDPad,CuDef*
G36*
G01*
X153175000Y-85425000D02*
X153725000Y-85425000D01*
G75*
G02*
X153925000Y-85625000I0J-200000D01*
G01*
X153925000Y-86025000D01*
G75*
G02*
X153725000Y-86225000I-200000J0D01*
G01*
X153175000Y-86225000D01*
G75*
G02*
X152975000Y-86025000I0J200000D01*
G01*
X152975000Y-85625000D01*
G75*
G02*
X153175000Y-85425000I200000J0D01*
G01*
G37*
G04 #@! TD.AperFunction*
G04 #@! TA.AperFunction,SMDPad,CuDef*
G36*
G01*
X148975000Y-86225000D02*
X148425000Y-86225000D01*
G75*
G02*
X148225000Y-86025000I0J200000D01*
G01*
X148225000Y-85625000D01*
G75*
G02*
X148425000Y-85425000I200000J0D01*
G01*
X148975000Y-85425000D01*
G75*
G02*
X149175000Y-85625000I0J-200000D01*
G01*
X149175000Y-86025000D01*
G75*
G02*
X148975000Y-86225000I-200000J0D01*
G01*
G37*
G04 #@! TD.AperFunction*
G04 #@! TA.AperFunction,SMDPad,CuDef*
G36*
G01*
X148975000Y-87875000D02*
X148425000Y-87875000D01*
G75*
G02*
X148225000Y-87675000I0J200000D01*
G01*
X148225000Y-87275000D01*
G75*
G02*
X148425000Y-87075000I200000J0D01*
G01*
X148975000Y-87075000D01*
G75*
G02*
X149175000Y-87275000I0J-200000D01*
G01*
X149175000Y-87675000D01*
G75*
G02*
X148975000Y-87875000I-200000J0D01*
G01*
G37*
G04 #@! TD.AperFunction*
G04 #@! TA.AperFunction,SMDPad,CuDef*
G36*
G01*
X153175000Y-90825000D02*
X153725000Y-90825000D01*
G75*
G02*
X153925000Y-91025000I0J-200000D01*
G01*
X153925000Y-91425000D01*
G75*
G02*
X153725000Y-91625000I-200000J0D01*
G01*
X153175000Y-91625000D01*
G75*
G02*
X152975000Y-91425000I0J200000D01*
G01*
X152975000Y-91025000D01*
G75*
G02*
X153175000Y-90825000I200000J0D01*
G01*
G37*
G04 #@! TD.AperFunction*
G04 #@! TA.AperFunction,SMDPad,CuDef*
G36*
G01*
X153175000Y-89175000D02*
X153725000Y-89175000D01*
G75*
G02*
X153925000Y-89375000I0J-200000D01*
G01*
X153925000Y-89775000D01*
G75*
G02*
X153725000Y-89975000I-200000J0D01*
G01*
X153175000Y-89975000D01*
G75*
G02*
X152975000Y-89775000I0J200000D01*
G01*
X152975000Y-89375000D01*
G75*
G02*
X153175000Y-89175000I200000J0D01*
G01*
G37*
G04 #@! TD.AperFunction*
G04 #@! TA.AperFunction,SMDPad,CuDef*
G36*
G01*
X156775000Y-89975000D02*
X156225000Y-89975000D01*
G75*
G02*
X156025000Y-89775000I0J200000D01*
G01*
X156025000Y-89375000D01*
G75*
G02*
X156225000Y-89175000I200000J0D01*
G01*
X156775000Y-89175000D01*
G75*
G02*
X156975000Y-89375000I0J-200000D01*
G01*
X156975000Y-89775000D01*
G75*
G02*
X156775000Y-89975000I-200000J0D01*
G01*
G37*
G04 #@! TD.AperFunction*
G04 #@! TA.AperFunction,SMDPad,CuDef*
G36*
G01*
X156775000Y-91625000D02*
X156225000Y-91625000D01*
G75*
G02*
X156025000Y-91425000I0J200000D01*
G01*
X156025000Y-91025000D01*
G75*
G02*
X156225000Y-90825000I200000J0D01*
G01*
X156775000Y-90825000D01*
G75*
G02*
X156975000Y-91025000I0J-200000D01*
G01*
X156975000Y-91425000D01*
G75*
G02*
X156775000Y-91625000I-200000J0D01*
G01*
G37*
G04 #@! TD.AperFunction*
G04 #@! TA.AperFunction,SMDPad,CuDef*
G36*
G01*
X156243750Y-83250000D02*
X156756250Y-83250000D01*
G75*
G02*
X156975000Y-83468750I0J-218750D01*
G01*
X156975000Y-83906250D01*
G75*
G02*
X156756250Y-84125000I-218750J0D01*
G01*
X156243750Y-84125000D01*
G75*
G02*
X156025000Y-83906250I0J218750D01*
G01*
X156025000Y-83468750D01*
G75*
G02*
X156243750Y-83250000I218750J0D01*
G01*
G37*
G04 #@! TD.AperFunction*
G04 #@! TA.AperFunction,SMDPad,CuDef*
G36*
G01*
X156243750Y-81675000D02*
X156756250Y-81675000D01*
G75*
G02*
X156975000Y-81893750I0J-218750D01*
G01*
X156975000Y-82331250D01*
G75*
G02*
X156756250Y-82550000I-218750J0D01*
G01*
X156243750Y-82550000D01*
G75*
G02*
X156025000Y-82331250I0J218750D01*
G01*
X156025000Y-81893750D01*
G75*
G02*
X156243750Y-81675000I218750J0D01*
G01*
G37*
G04 #@! TD.AperFunction*
D10*
X148650000Y-90450000D03*
X150650000Y-89500000D03*
X150650000Y-91400000D03*
D13*
X161050000Y-85200000D03*
G04 #@! TA.AperFunction,ComponentPad*
G36*
G01*
X161800000Y-88550000D02*
X160300000Y-88550000D01*
G75*
G02*
X160050000Y-88300000I0J250000D01*
G01*
X160050000Y-87100000D01*
G75*
G02*
X160300000Y-86850000I250000J0D01*
G01*
X161800000Y-86850000D01*
G75*
G02*
X162050000Y-87100000I0J-250000D01*
G01*
X162050000Y-88300000D01*
G75*
G02*
X161800000Y-88550000I-250000J0D01*
G01*
G37*
G04 #@! TD.AperFunction*
D14*
X151500000Y-97194000D03*
D15*
X154000000Y-97194000D03*
X156000000Y-97194000D03*
X158500000Y-97194000D03*
X159000000Y-95694000D03*
X157000000Y-95694000D03*
X155000000Y-95694000D03*
X153000000Y-95694000D03*
X151000000Y-95694000D03*
D16*
X148430000Y-99194000D03*
X161570000Y-99194000D03*
D17*
X146000000Y-91000000D03*
X146000000Y-79000000D03*
X146000000Y-85000000D03*
X164000000Y-73000000D03*
X164000000Y-85000000D03*
X164000000Y-103000000D03*
X164000000Y-91000000D03*
X164000000Y-97000000D03*
X164000000Y-79000000D03*
D18*
X153400000Y-88500000D03*
X150700000Y-90400000D03*
D17*
X153400000Y-92500000D03*
X150600000Y-92500000D03*
D18*
X149600000Y-88400000D03*
D17*
X156500000Y-92500000D03*
X158500000Y-75800000D03*
D18*
X156500000Y-80800000D03*
X153400000Y-80800000D03*
X156500000Y-90400000D03*
X156500000Y-88500000D03*
X153450000Y-90400000D03*
X154100000Y-84800000D03*
X152900000Y-84800000D03*
X149600000Y-84900000D03*
X149600000Y-86600000D03*
X151100000Y-84900000D03*
X158100000Y-78800000D03*
X155950000Y-84800000D03*
X157100000Y-84800000D03*
D17*
X146000000Y-109000000D03*
X164000000Y-109000000D03*
X152000000Y-109000000D03*
X158000000Y-109000000D03*
X146000000Y-103000000D03*
X146000000Y-97000000D03*
X146000000Y-73000000D03*
X152000000Y-73000000D03*
X158000000Y-73000000D03*
X155000000Y-100000000D03*
X155000000Y-105000000D03*
X155000000Y-75000000D03*
D18*
X151100000Y-80800000D03*
X151100000Y-82900000D03*
D17*
X161000000Y-90000000D03*
D18*
X148650000Y-88250000D03*
X148650000Y-89650000D03*
X157300000Y-89575000D03*
X148600000Y-82100000D03*
X157100000Y-86700000D03*
D17*
X147600000Y-84000000D03*
X155000000Y-79600000D03*
X154000000Y-79000000D03*
X153000000Y-79600000D03*
X156000000Y-79000000D03*
X157000000Y-79600000D03*
D18*
X150600000Y-86650000D03*
X153450000Y-86650000D03*
D17*
X152000000Y-79000000D03*
X152000000Y-81900000D03*
X159000000Y-79600000D03*
X151000000Y-79600000D03*
D19*
X150650000Y-89500000D02*
X150650000Y-88550000D01*
X150650000Y-88550000D02*
X150800000Y-88400000D01*
X150800000Y-88400000D02*
X150857122Y-88400000D01*
X150857122Y-88400000D02*
X151500000Y-88400000D01*
X151500000Y-88400000D02*
X151900000Y-88000000D01*
X151900000Y-88000000D02*
X151900000Y-83700000D01*
X151900000Y-83700000D02*
X153400000Y-82200000D01*
X150700000Y-90400000D02*
X153450000Y-90400000D01*
X153450000Y-90400000D02*
X156500000Y-90400000D01*
X156500000Y-90400000D02*
X156500000Y-91300000D01*
X153250000Y-91400000D02*
X153450000Y-91200000D01*
X150650000Y-91400000D02*
X153250000Y-91400000D01*
X148650000Y-90450000D02*
X148650000Y-89650000D01*
X148650000Y-87600000D02*
X148700000Y-87550000D01*
X148650000Y-88250000D02*
X148650000Y-87600000D01*
X153450000Y-89575000D02*
X156525000Y-89575000D01*
X157300000Y-89575000D02*
X156525000Y-89575000D01*
D20*
X148600000Y-83000000D02*
X147600000Y-84000000D01*
D19*
X148600000Y-82900000D02*
X148600000Y-82100000D01*
X157100000Y-86700000D02*
X156700000Y-87100000D01*
X156700000Y-87100000D02*
X156700000Y-87200000D01*
X150600000Y-83850000D02*
X150600000Y-85750000D01*
X148700000Y-85825000D02*
X150575000Y-85825000D01*
X153450000Y-85825000D02*
X153450000Y-83750000D01*
X156500000Y-83637500D02*
X156500000Y-85650000D01*
X156500000Y-85650000D02*
X156550000Y-85700000D01*
D20*
X155000000Y-77398000D02*
X155000000Y-79600000D01*
D21*
X154000000Y-77398000D02*
X154000000Y-79000000D01*
D22*
X153000000Y-77398000D02*
X153000000Y-79600000D01*
D21*
X156000000Y-77398000D02*
X156000000Y-79000000D01*
D22*
X157000000Y-77398000D02*
X157000000Y-79600000D01*
D20*
X152000000Y-79000000D02*
X152000000Y-77800000D01*
X151950000Y-81950000D02*
X152000000Y-81900000D01*
X150600000Y-81950000D02*
X151950000Y-81950000D01*
D19*
X150600000Y-87475000D02*
X150600000Y-87400000D01*
X153450000Y-87475000D02*
X153450000Y-87450000D01*
X150600000Y-87475000D02*
X150600000Y-86650000D01*
X153450000Y-87475000D02*
X153450000Y-86650000D01*
D22*
X159000000Y-77398000D02*
X159000000Y-79600000D01*
X151000000Y-77398000D02*
X151000000Y-79600000D01*
D23*
X164523001Y-109523000D02*
X145477000Y-109523000D01*
X145477000Y-98979584D01*
X146253000Y-98979584D01*
X146253000Y-99408416D01*
X146336660Y-99829008D01*
X146500767Y-100225196D01*
X146739013Y-100581757D01*
X147042243Y-100884987D01*
X147398804Y-101123233D01*
X147794992Y-101287340D01*
X148215584Y-101371000D01*
X148644416Y-101371000D01*
X149065008Y-101287340D01*
X149461196Y-101123233D01*
X149817757Y-100884987D01*
X150120987Y-100581757D01*
X150359233Y-100225196D01*
X150523340Y-99829008D01*
X150607000Y-99408416D01*
X150607000Y-98979584D01*
X159393000Y-98979584D01*
X159393000Y-99408416D01*
X159476660Y-99829008D01*
X159640767Y-100225196D01*
X159879013Y-100581757D01*
X160182243Y-100884987D01*
X160538804Y-101123233D01*
X160934992Y-101287340D01*
X161355584Y-101371000D01*
X161784416Y-101371000D01*
X162205008Y-101287340D01*
X162601196Y-101123233D01*
X162957757Y-100884987D01*
X163260987Y-100581757D01*
X163499233Y-100225196D01*
X163663340Y-99829008D01*
X163747000Y-99408416D01*
X163747000Y-98979584D01*
X163663340Y-98558992D01*
X163499233Y-98162804D01*
X163260987Y-97806243D01*
X162957757Y-97503013D01*
X162601196Y-97264767D01*
X162205008Y-97100660D01*
X161784416Y-97017000D01*
X161355584Y-97017000D01*
X160934992Y-97100660D01*
X160538804Y-97264767D01*
X160182243Y-97503013D01*
X159879013Y-97806243D01*
X159640767Y-98162804D01*
X159476660Y-98558992D01*
X159393000Y-98979584D01*
X150607000Y-98979584D01*
X150523340Y-98558992D01*
X150359233Y-98162804D01*
X150120987Y-97806243D01*
X149817757Y-97503013D01*
X149461196Y-97264767D01*
X149065008Y-97100660D01*
X148644416Y-97017000D01*
X148215584Y-97017000D01*
X147794992Y-97100660D01*
X147398804Y-97264767D01*
X147042243Y-97503013D01*
X146739013Y-97806243D01*
X146500767Y-98162804D01*
X146336660Y-98558992D01*
X146253000Y-98979584D01*
X145477000Y-98979584D01*
X145477000Y-95590387D01*
X149948000Y-95590387D01*
X149948000Y-95797613D01*
X149988428Y-96000857D01*
X150067730Y-96192309D01*
X150182858Y-96364611D01*
X150329389Y-96511142D01*
X150446281Y-96589247D01*
X150445813Y-96594000D01*
X150445813Y-97794000D01*
X150454540Y-97882607D01*
X150480386Y-97967810D01*
X150522357Y-98046333D01*
X150578841Y-98115159D01*
X150647667Y-98171643D01*
X150726190Y-98213614D01*
X150811393Y-98239460D01*
X150900000Y-98248187D01*
X152100000Y-98248187D01*
X152188607Y-98239460D01*
X152273810Y-98213614D01*
X152352333Y-98171643D01*
X152421159Y-98115159D01*
X152477643Y-98046333D01*
X152519614Y-97967810D01*
X152545460Y-97882607D01*
X152554187Y-97794000D01*
X152554187Y-96648015D01*
X152693143Y-96705572D01*
X152896387Y-96746000D01*
X153046891Y-96746000D01*
X152988428Y-96887143D01*
X152948000Y-97090387D01*
X152948000Y-97297613D01*
X152988428Y-97500857D01*
X153067730Y-97692309D01*
X153182858Y-97864611D01*
X153329389Y-98011142D01*
X153501691Y-98126270D01*
X153693143Y-98205572D01*
X153896387Y-98246000D01*
X154103613Y-98246000D01*
X154306857Y-98205572D01*
X154498309Y-98126270D01*
X154670611Y-98011142D01*
X154817142Y-97864611D01*
X154932270Y-97692309D01*
X155000000Y-97528794D01*
X155067730Y-97692309D01*
X155182858Y-97864611D01*
X155329389Y-98011142D01*
X155501691Y-98126270D01*
X155693143Y-98205572D01*
X155896387Y-98246000D01*
X156103613Y-98246000D01*
X156306857Y-98205572D01*
X156498309Y-98126270D01*
X156621788Y-98043764D01*
X157829841Y-98043764D01*
X157877148Y-98267348D01*
X158098516Y-98368237D01*
X158335313Y-98424000D01*
X158578438Y-98432495D01*
X158818549Y-98393395D01*
X159046418Y-98308202D01*
X159122852Y-98267348D01*
X159170159Y-98043764D01*
X158500000Y-97373605D01*
X157829841Y-98043764D01*
X156621788Y-98043764D01*
X156670611Y-98011142D01*
X156817142Y-97864611D01*
X156932270Y-97692309D01*
X157011572Y-97500857D01*
X157052000Y-97297613D01*
X157052000Y-97090387D01*
X157011572Y-96887143D01*
X156953109Y-96746000D01*
X157103613Y-96746000D01*
X157306857Y-96705572D01*
X157379009Y-96675686D01*
X157325763Y-96792516D01*
X157270000Y-97029313D01*
X157261505Y-97272438D01*
X157300605Y-97512549D01*
X157385798Y-97740418D01*
X157426652Y-97816852D01*
X157650236Y-97864159D01*
X158320395Y-97194000D01*
X158306253Y-97179858D01*
X158485858Y-97000253D01*
X158500000Y-97014395D01*
X158514143Y-97000253D01*
X158693748Y-97179858D01*
X158679605Y-97194000D01*
X159349764Y-97864159D01*
X159573348Y-97816852D01*
X159674237Y-97595484D01*
X159730000Y-97358687D01*
X159738495Y-97115562D01*
X159699395Y-96875451D01*
X159614202Y-96647582D01*
X159575310Y-96574820D01*
X159670611Y-96511142D01*
X159817142Y-96364611D01*
X159932270Y-96192309D01*
X160011572Y-96000857D01*
X160052000Y-95797613D01*
X160052000Y-95590387D01*
X160011572Y-95387143D01*
X159932270Y-95195691D01*
X159817142Y-95023389D01*
X159670611Y-94876858D01*
X159498309Y-94761730D01*
X159306857Y-94682428D01*
X159103613Y-94642000D01*
X158896387Y-94642000D01*
X158693143Y-94682428D01*
X158501691Y-94761730D01*
X158329389Y-94876858D01*
X158182858Y-95023389D01*
X158067730Y-95195691D01*
X158000000Y-95359206D01*
X157932270Y-95195691D01*
X157817142Y-95023389D01*
X157670611Y-94876858D01*
X157498309Y-94761730D01*
X157306857Y-94682428D01*
X157103613Y-94642000D01*
X156896387Y-94642000D01*
X156693143Y-94682428D01*
X156501691Y-94761730D01*
X156329389Y-94876858D01*
X156182858Y-95023389D01*
X156067730Y-95195691D01*
X156000000Y-95359206D01*
X155932270Y-95195691D01*
X155817142Y-95023389D01*
X155670611Y-94876858D01*
X155498309Y-94761730D01*
X155306857Y-94682428D01*
X155103613Y-94642000D01*
X154896387Y-94642000D01*
X154693143Y-94682428D01*
X154501691Y-94761730D01*
X154329389Y-94876858D01*
X154182858Y-95023389D01*
X154067730Y-95195691D01*
X154000000Y-95359206D01*
X153932270Y-95195691D01*
X153817142Y-95023389D01*
X153670611Y-94876858D01*
X153498309Y-94761730D01*
X153306857Y-94682428D01*
X153103613Y-94642000D01*
X152896387Y-94642000D01*
X152693143Y-94682428D01*
X152501691Y-94761730D01*
X152329389Y-94876858D01*
X152182858Y-95023389D01*
X152067730Y-95195691D01*
X152000000Y-95359206D01*
X151932270Y-95195691D01*
X151817142Y-95023389D01*
X151670611Y-94876858D01*
X151498309Y-94761730D01*
X151306857Y-94682428D01*
X151103613Y-94642000D01*
X150896387Y-94642000D01*
X150693143Y-94682428D01*
X150501691Y-94761730D01*
X150329389Y-94876858D01*
X150182858Y-95023389D01*
X150067730Y-95195691D01*
X149988428Y-95387143D01*
X149948000Y-95590387D01*
X145477000Y-95590387D01*
X145477000Y-90050000D01*
X147745813Y-90050000D01*
X147745813Y-90850000D01*
X147754540Y-90938607D01*
X147780386Y-91023810D01*
X147822357Y-91102333D01*
X147878841Y-91171159D01*
X147947667Y-91227643D01*
X148026190Y-91269614D01*
X148111393Y-91295460D01*
X148200000Y-91304187D01*
X149100000Y-91304187D01*
X149188607Y-91295460D01*
X149273810Y-91269614D01*
X149352333Y-91227643D01*
X149421159Y-91171159D01*
X149477643Y-91102333D01*
X149519614Y-91023810D01*
X149526836Y-91000000D01*
X149745813Y-91000000D01*
X149745813Y-91800000D01*
X149754540Y-91888607D01*
X149780386Y-91973810D01*
X149822357Y-92052333D01*
X149878841Y-92121159D01*
X149947667Y-92177643D01*
X150026190Y-92219614D01*
X150111393Y-92245460D01*
X150200000Y-92254187D01*
X151100000Y-92254187D01*
X151188607Y-92245460D01*
X151273810Y-92219614D01*
X151352333Y-92177643D01*
X151421159Y-92121159D01*
X151477643Y-92052333D01*
X151519614Y-91973810D01*
X151526230Y-91952000D01*
X152790915Y-91952000D01*
X152811553Y-91968937D01*
X152924653Y-92029390D01*
X153047374Y-92066617D01*
X153175000Y-92079187D01*
X153725000Y-92079187D01*
X153852626Y-92066617D01*
X153975347Y-92029390D01*
X154088447Y-91968937D01*
X154187580Y-91887580D01*
X154268937Y-91788447D01*
X154329390Y-91675347D01*
X154344662Y-91625000D01*
X155386928Y-91625000D01*
X155399188Y-91749482D01*
X155435498Y-91869180D01*
X155494463Y-91979494D01*
X155573815Y-92076185D01*
X155670506Y-92155537D01*
X155780820Y-92214502D01*
X155900518Y-92250812D01*
X156025000Y-92263072D01*
X156214250Y-92260000D01*
X156373000Y-92101250D01*
X156373000Y-91352000D01*
X156627000Y-91352000D01*
X156627000Y-92101250D01*
X156785750Y-92260000D01*
X156975000Y-92263072D01*
X157099482Y-92250812D01*
X157219180Y-92214502D01*
X157329494Y-92155537D01*
X157426185Y-92076185D01*
X157505537Y-91979494D01*
X157564502Y-91869180D01*
X157600812Y-91749482D01*
X157613072Y-91625000D01*
X157610000Y-91510750D01*
X157451250Y-91352000D01*
X156627000Y-91352000D01*
X156373000Y-91352000D01*
X155548750Y-91352000D01*
X155390000Y-91510750D01*
X155386928Y-91625000D01*
X154344662Y-91625000D01*
X154366617Y-91552626D01*
X154379187Y-91425000D01*
X154379187Y-91025000D01*
X154366617Y-90897374D01*
X154329390Y-90774653D01*
X154268937Y-90661553D01*
X154187580Y-90562420D01*
X154088447Y-90481063D01*
X153975347Y-90420610D01*
X153907405Y-90400000D01*
X153975347Y-90379390D01*
X154088447Y-90318937D01*
X154187580Y-90237580D01*
X154268937Y-90138447D01*
X154275056Y-90127000D01*
X155674944Y-90127000D01*
X155681063Y-90138447D01*
X155762420Y-90237580D01*
X155768141Y-90242275D01*
X155670506Y-90294463D01*
X155573815Y-90373815D01*
X155494463Y-90470506D01*
X155435498Y-90580820D01*
X155399188Y-90700518D01*
X155386928Y-90825000D01*
X155390000Y-90939250D01*
X155548750Y-91098000D01*
X156373000Y-91098000D01*
X156373000Y-91078000D01*
X156627000Y-91078000D01*
X156627000Y-91098000D01*
X157451250Y-91098000D01*
X157610000Y-90939250D01*
X157613072Y-90825000D01*
X157600812Y-90700518D01*
X157564502Y-90580820D01*
X157505537Y-90470506D01*
X157426185Y-90373815D01*
X157329494Y-90294463D01*
X157231859Y-90242275D01*
X157237580Y-90237580D01*
X157246263Y-90227000D01*
X157364216Y-90227000D01*
X157490181Y-90201944D01*
X157608838Y-90152795D01*
X157715626Y-90081442D01*
X157806442Y-89990626D01*
X157877795Y-89883838D01*
X157926944Y-89765181D01*
X157952000Y-89639216D01*
X157952000Y-89510784D01*
X157926944Y-89384819D01*
X157877795Y-89266162D01*
X157806442Y-89159374D01*
X157715626Y-89068558D01*
X157608838Y-88997205D01*
X157490181Y-88948056D01*
X157364216Y-88923000D01*
X157246263Y-88923000D01*
X157237580Y-88912420D01*
X157138447Y-88831063D01*
X157025347Y-88770610D01*
X156902626Y-88733383D01*
X156775000Y-88720813D01*
X156225000Y-88720813D01*
X156097374Y-88733383D01*
X155974653Y-88770610D01*
X155861553Y-88831063D01*
X155762420Y-88912420D01*
X155681063Y-89011553D01*
X155674944Y-89023000D01*
X154275056Y-89023000D01*
X154268937Y-89011553D01*
X154187580Y-88912420D01*
X154088447Y-88831063D01*
X153975347Y-88770610D01*
X153852626Y-88733383D01*
X153725000Y-88720813D01*
X153175000Y-88720813D01*
X153047374Y-88733383D01*
X152924653Y-88770610D01*
X152811553Y-88831063D01*
X152712420Y-88912420D01*
X152631063Y-89011553D01*
X152570610Y-89124653D01*
X152533383Y-89247374D01*
X152520813Y-89375000D01*
X152520813Y-89775000D01*
X152533383Y-89902626D01*
X152570610Y-90025347D01*
X152631063Y-90138447D01*
X152712420Y-90237580D01*
X152811553Y-90318937D01*
X152924653Y-90379390D01*
X152992595Y-90400000D01*
X152924653Y-90420610D01*
X152811553Y-90481063D01*
X152712420Y-90562420D01*
X152631063Y-90661553D01*
X152570610Y-90774653D01*
X152548360Y-90848000D01*
X151526230Y-90848000D01*
X151519614Y-90826190D01*
X151477643Y-90747667D01*
X151421159Y-90678841D01*
X151352333Y-90622357D01*
X151273810Y-90580386D01*
X151188607Y-90554540D01*
X151100000Y-90545813D01*
X150200000Y-90545813D01*
X150111393Y-90554540D01*
X150026190Y-90580386D01*
X149947667Y-90622357D01*
X149878841Y-90678841D01*
X149822357Y-90747667D01*
X149780386Y-90826190D01*
X149754540Y-90911393D01*
X149745813Y-91000000D01*
X149526836Y-91000000D01*
X149545460Y-90938607D01*
X149554187Y-90850000D01*
X149554187Y-90050000D01*
X149545460Y-89961393D01*
X149526837Y-89900000D01*
X149561928Y-89900000D01*
X149574188Y-90024482D01*
X149610498Y-90144180D01*
X149669463Y-90254494D01*
X149748815Y-90351185D01*
X149845506Y-90430537D01*
X149955820Y-90489502D01*
X150075518Y-90525812D01*
X150200000Y-90538072D01*
X150364250Y-90535000D01*
X150523000Y-90376250D01*
X150523000Y-89627000D01*
X150777000Y-89627000D01*
X150777000Y-90376250D01*
X150935750Y-90535000D01*
X151100000Y-90538072D01*
X151224482Y-90525812D01*
X151344180Y-90489502D01*
X151454494Y-90430537D01*
X151551185Y-90351185D01*
X151630537Y-90254494D01*
X151689502Y-90144180D01*
X151725812Y-90024482D01*
X151738072Y-89900000D01*
X151735000Y-89785750D01*
X151576250Y-89627000D01*
X150777000Y-89627000D01*
X150523000Y-89627000D01*
X149723750Y-89627000D01*
X149565000Y-89785750D01*
X149561928Y-89900000D01*
X149526837Y-89900000D01*
X149519614Y-89876190D01*
X149477643Y-89797667D01*
X149421159Y-89728841D01*
X149352333Y-89672357D01*
X149302000Y-89645454D01*
X149302000Y-89585784D01*
X149276944Y-89459819D01*
X149227795Y-89341162D01*
X149156442Y-89234374D01*
X149065626Y-89143558D01*
X149000437Y-89100000D01*
X149561928Y-89100000D01*
X149565000Y-89214250D01*
X149723750Y-89373000D01*
X150523000Y-89373000D01*
X150523000Y-88623750D01*
X150777000Y-88623750D01*
X150777000Y-89373000D01*
X151576250Y-89373000D01*
X151735000Y-89214250D01*
X151738072Y-89100000D01*
X151725812Y-88975518D01*
X151689502Y-88855820D01*
X151630537Y-88745506D01*
X151551185Y-88648815D01*
X151454494Y-88569463D01*
X151344180Y-88510498D01*
X151224482Y-88474188D01*
X151100000Y-88461928D01*
X150935750Y-88465000D01*
X150777000Y-88623750D01*
X150523000Y-88623750D01*
X150364250Y-88465000D01*
X150200000Y-88461928D01*
X150075518Y-88474188D01*
X149955820Y-88510498D01*
X149845506Y-88569463D01*
X149748815Y-88648815D01*
X149669463Y-88745506D01*
X149610498Y-88855820D01*
X149574188Y-88975518D01*
X149561928Y-89100000D01*
X149000437Y-89100000D01*
X148958838Y-89072205D01*
X148840181Y-89023056D01*
X148714216Y-88998000D01*
X148585784Y-88998000D01*
X148459819Y-89023056D01*
X148341162Y-89072205D01*
X148234374Y-89143558D01*
X148143558Y-89234374D01*
X148072205Y-89341162D01*
X148023056Y-89459819D01*
X147998000Y-89585784D01*
X147998000Y-89645454D01*
X147947667Y-89672357D01*
X147878841Y-89728841D01*
X147822357Y-89797667D01*
X147780386Y-89876190D01*
X147754540Y-89961393D01*
X147745813Y-90050000D01*
X145477000Y-90050000D01*
X145477000Y-85625000D01*
X147770813Y-85625000D01*
X147770813Y-86025000D01*
X147783383Y-86152626D01*
X147820610Y-86275347D01*
X147881063Y-86388447D01*
X147962420Y-86487580D01*
X148061553Y-86568937D01*
X148174653Y-86629390D01*
X148242595Y-86650000D01*
X148174653Y-86670610D01*
X148061553Y-86731063D01*
X147962420Y-86812420D01*
X147881063Y-86911553D01*
X147820610Y-87024653D01*
X147783383Y-87147374D01*
X147770813Y-87275000D01*
X147770813Y-87675000D01*
X147783383Y-87802626D01*
X147820610Y-87925347D01*
X147881063Y-88038447D01*
X147962420Y-88137580D01*
X148001250Y-88169447D01*
X147998000Y-88185784D01*
X147998000Y-88314216D01*
X148023056Y-88440181D01*
X148072205Y-88558838D01*
X148143558Y-88665626D01*
X148234374Y-88756442D01*
X148341162Y-88827795D01*
X148459819Y-88876944D01*
X148585784Y-88902000D01*
X148714216Y-88902000D01*
X148840181Y-88876944D01*
X148958838Y-88827795D01*
X149065626Y-88756442D01*
X149156442Y-88665626D01*
X149227795Y-88558838D01*
X149276944Y-88440181D01*
X149302000Y-88314216D01*
X149302000Y-88238418D01*
X149338447Y-88218937D01*
X149437580Y-88137580D01*
X149518937Y-88038447D01*
X149579390Y-87925347D01*
X149616617Y-87802626D01*
X149629187Y-87675000D01*
X149629187Y-87275000D01*
X149616617Y-87147374D01*
X149579390Y-87024653D01*
X149518937Y-86911553D01*
X149437580Y-86812420D01*
X149338447Y-86731063D01*
X149225347Y-86670610D01*
X149157405Y-86650000D01*
X149225347Y-86629390D01*
X149338447Y-86568937D01*
X149437580Y-86487580D01*
X149518937Y-86388447D01*
X149525056Y-86377000D01*
X149774944Y-86377000D01*
X149781063Y-86388447D01*
X149862420Y-86487580D01*
X149952783Y-86561739D01*
X149948000Y-86585784D01*
X149948000Y-86714216D01*
X149952783Y-86738261D01*
X149862420Y-86812420D01*
X149781063Y-86911553D01*
X149720610Y-87024653D01*
X149683383Y-87147374D01*
X149670813Y-87275000D01*
X149670813Y-87675000D01*
X149683383Y-87802626D01*
X149720610Y-87925347D01*
X149781063Y-88038447D01*
X149862420Y-88137580D01*
X149961553Y-88218937D01*
X150074653Y-88279390D01*
X150197374Y-88316617D01*
X150325000Y-88329187D01*
X150875000Y-88329187D01*
X151002626Y-88316617D01*
X151125347Y-88279390D01*
X151238447Y-88218937D01*
X151337580Y-88137580D01*
X151418937Y-88038447D01*
X151479390Y-87925347D01*
X151516617Y-87802626D01*
X151529187Y-87675000D01*
X151529187Y-87275000D01*
X151516617Y-87147374D01*
X151479390Y-87024653D01*
X151418937Y-86911553D01*
X151337580Y-86812420D01*
X151247217Y-86738261D01*
X151252000Y-86714216D01*
X151252000Y-86585784D01*
X151247217Y-86561739D01*
X151337580Y-86487580D01*
X151418937Y-86388447D01*
X151479390Y-86275347D01*
X151516617Y-86152626D01*
X151529187Y-86025000D01*
X151529187Y-85625000D01*
X151516617Y-85497374D01*
X151479390Y-85374653D01*
X151418937Y-85261553D01*
X151337580Y-85162420D01*
X151238447Y-85081063D01*
X151152000Y-85034856D01*
X151152000Y-84691397D01*
X151223810Y-84669614D01*
X151302333Y-84627643D01*
X151371159Y-84571159D01*
X151427643Y-84502333D01*
X151469614Y-84423810D01*
X151495460Y-84338607D01*
X151504187Y-84250000D01*
X151504187Y-83450000D01*
X151495460Y-83361393D01*
X151469614Y-83276190D01*
X151427643Y-83197667D01*
X151371159Y-83128841D01*
X151302333Y-83072357D01*
X151223810Y-83030386D01*
X151138607Y-83004540D01*
X151050000Y-82995813D01*
X150150000Y-82995813D01*
X150061393Y-83004540D01*
X149976190Y-83030386D01*
X149897667Y-83072357D01*
X149828841Y-83128841D01*
X149772357Y-83197667D01*
X149730386Y-83276190D01*
X149704540Y-83361393D01*
X149695813Y-83450000D01*
X149695813Y-84250000D01*
X149704540Y-84338607D01*
X149730386Y-84423810D01*
X149772357Y-84502333D01*
X149828841Y-84571159D01*
X149897667Y-84627643D01*
X149976190Y-84669614D01*
X150048000Y-84691397D01*
X150048001Y-85034856D01*
X149961553Y-85081063D01*
X149862420Y-85162420D01*
X149781063Y-85261553D01*
X149774944Y-85273000D01*
X149525056Y-85273000D01*
X149518937Y-85261553D01*
X149437580Y-85162420D01*
X149338447Y-85081063D01*
X149225347Y-85020610D01*
X149102626Y-84983383D01*
X148975000Y-84970813D01*
X148425000Y-84970813D01*
X148297374Y-84983383D01*
X148174653Y-85020610D01*
X148061553Y-85081063D01*
X147962420Y-85162420D01*
X147881063Y-85261553D01*
X147820610Y-85374653D01*
X147783383Y-85497374D01*
X147770813Y-85625000D01*
X145477000Y-85625000D01*
X145477000Y-83916085D01*
X146748000Y-83916085D01*
X146748000Y-84083915D01*
X146780742Y-84248519D01*
X146844968Y-84403573D01*
X146938209Y-84543118D01*
X147056882Y-84661791D01*
X147196427Y-84755032D01*
X147351481Y-84819258D01*
X147516085Y-84852000D01*
X147683915Y-84852000D01*
X147848519Y-84819258D01*
X148003573Y-84755032D01*
X148143118Y-84661791D01*
X148261791Y-84543118D01*
X148355032Y-84403573D01*
X148372290Y-84361908D01*
X148980012Y-83754187D01*
X149050000Y-83754187D01*
X149138607Y-83745460D01*
X149223810Y-83719614D01*
X149302333Y-83677643D01*
X149371159Y-83621159D01*
X149427643Y-83552333D01*
X149469614Y-83473810D01*
X149495460Y-83388607D01*
X149504187Y-83300000D01*
X149504187Y-82500000D01*
X149495460Y-82411393D01*
X149469614Y-82326190D01*
X149427643Y-82247667D01*
X149371159Y-82178841D01*
X149302333Y-82122357D01*
X149252000Y-82095454D01*
X149252000Y-82035784D01*
X149226944Y-81909819D01*
X149177795Y-81791162D01*
X149106442Y-81684374D01*
X149015626Y-81593558D01*
X148950437Y-81550000D01*
X149695813Y-81550000D01*
X149695813Y-82350000D01*
X149704540Y-82438607D01*
X149730386Y-82523810D01*
X149772357Y-82602333D01*
X149828841Y-82671159D01*
X149897667Y-82727643D01*
X149976190Y-82769614D01*
X150061393Y-82795460D01*
X150150000Y-82804187D01*
X151050000Y-82804187D01*
X151138607Y-82795460D01*
X151223810Y-82769614D01*
X151256764Y-82752000D01*
X151910614Y-82752000D01*
X151950000Y-82755879D01*
X151989386Y-82752000D01*
X152083915Y-82752000D01*
X152248519Y-82719258D01*
X152350017Y-82677216D01*
X152385498Y-82794180D01*
X152444463Y-82904494D01*
X152523815Y-83001185D01*
X152620506Y-83080537D01*
X152638226Y-83090009D01*
X152634223Y-83094886D01*
X152572037Y-83211228D01*
X152533743Y-83337467D01*
X152520813Y-83468750D01*
X152520813Y-83906250D01*
X152533743Y-84037533D01*
X152572037Y-84163772D01*
X152634223Y-84280114D01*
X152717912Y-84382088D01*
X152819886Y-84465777D01*
X152898001Y-84507530D01*
X152898000Y-85034856D01*
X152811553Y-85081063D01*
X152712420Y-85162420D01*
X152631063Y-85261553D01*
X152570610Y-85374653D01*
X152533383Y-85497374D01*
X152520813Y-85625000D01*
X152520813Y-86025000D01*
X152533383Y-86152626D01*
X152570610Y-86275347D01*
X152631063Y-86388447D01*
X152712420Y-86487580D01*
X152802783Y-86561739D01*
X152798000Y-86585784D01*
X152798000Y-86714216D01*
X152802783Y-86738261D01*
X152712420Y-86812420D01*
X152631063Y-86911553D01*
X152570610Y-87024653D01*
X152533383Y-87147374D01*
X152520813Y-87275000D01*
X152520813Y-87675000D01*
X152533383Y-87802626D01*
X152570610Y-87925347D01*
X152631063Y-88038447D01*
X152712420Y-88137580D01*
X152811553Y-88218937D01*
X152924653Y-88279390D01*
X153047374Y-88316617D01*
X153175000Y-88329187D01*
X153725000Y-88329187D01*
X153852626Y-88316617D01*
X153975347Y-88279390D01*
X154088447Y-88218937D01*
X154187580Y-88137580D01*
X154268937Y-88038447D01*
X154329390Y-87925347D01*
X154366617Y-87802626D01*
X154379187Y-87675000D01*
X154379187Y-87275000D01*
X154366617Y-87147374D01*
X154329390Y-87024653D01*
X154268937Y-86911553D01*
X154187580Y-86812420D01*
X154097217Y-86738261D01*
X154102000Y-86714216D01*
X154102000Y-86585784D01*
X154097217Y-86561739D01*
X154187580Y-86487580D01*
X154268937Y-86388447D01*
X154329390Y-86275347D01*
X154366617Y-86152626D01*
X154379187Y-86025000D01*
X154379187Y-85625000D01*
X154366617Y-85497374D01*
X154329390Y-85374653D01*
X154268937Y-85261553D01*
X154187580Y-85162420D01*
X154088447Y-85081063D01*
X154002000Y-85034856D01*
X154002000Y-84507530D01*
X154080114Y-84465777D01*
X154182088Y-84382088D01*
X154265777Y-84280114D01*
X154327963Y-84163772D01*
X154366257Y-84037533D01*
X154379187Y-83906250D01*
X154379187Y-83468750D01*
X154366257Y-83337467D01*
X154327963Y-83211228D01*
X154265777Y-83094886D01*
X154261774Y-83090009D01*
X154279494Y-83080537D01*
X154376185Y-83001185D01*
X154455537Y-82904494D01*
X154514502Y-82794180D01*
X154550812Y-82674482D01*
X154563072Y-82550000D01*
X155386928Y-82550000D01*
X155399188Y-82674482D01*
X155435498Y-82794180D01*
X155494463Y-82904494D01*
X155573815Y-83001185D01*
X155670506Y-83080537D01*
X155688226Y-83090009D01*
X155684223Y-83094886D01*
X155622037Y-83211228D01*
X155583743Y-83337467D01*
X155570813Y-83468750D01*
X155570813Y-83906250D01*
X155583743Y-84037533D01*
X155622037Y-84163772D01*
X155684223Y-84280114D01*
X155767912Y-84382088D01*
X155869886Y-84465777D01*
X155948000Y-84507530D01*
X155948001Y-85034856D01*
X155861553Y-85081063D01*
X155762420Y-85162420D01*
X155681063Y-85261553D01*
X155620610Y-85374653D01*
X155583383Y-85497374D01*
X155570813Y-85625000D01*
X155570813Y-86025000D01*
X155583383Y-86152626D01*
X155620610Y-86275347D01*
X155681063Y-86388447D01*
X155762420Y-86487580D01*
X155861553Y-86568937D01*
X155974653Y-86629390D01*
X156042595Y-86650000D01*
X155974653Y-86670610D01*
X155861553Y-86731063D01*
X155762420Y-86812420D01*
X155681063Y-86911553D01*
X155620610Y-87024653D01*
X155583383Y-87147374D01*
X155570813Y-87275000D01*
X155570813Y-87675000D01*
X155583383Y-87802626D01*
X155620610Y-87925347D01*
X155681063Y-88038447D01*
X155762420Y-88137580D01*
X155861553Y-88218937D01*
X155974653Y-88279390D01*
X156097374Y-88316617D01*
X156225000Y-88329187D01*
X156775000Y-88329187D01*
X156902626Y-88316617D01*
X157025347Y-88279390D01*
X157138447Y-88218937D01*
X157237580Y-88137580D01*
X157318937Y-88038447D01*
X157379390Y-87925347D01*
X157416617Y-87802626D01*
X157429187Y-87675000D01*
X157429187Y-87275000D01*
X157428189Y-87264865D01*
X157515626Y-87206442D01*
X157606442Y-87115626D01*
X157677795Y-87008838D01*
X157726944Y-86890181D01*
X157752000Y-86764216D01*
X157752000Y-86635784D01*
X157726944Y-86509819D01*
X157677795Y-86391162D01*
X157606442Y-86284374D01*
X157515626Y-86193558D01*
X157418948Y-86128960D01*
X157429187Y-86025000D01*
X157429187Y-85625000D01*
X157422479Y-85556890D01*
X159458524Y-85556890D01*
X159460446Y-85569261D01*
X159560146Y-85843009D01*
X159711336Y-86092046D01*
X159908205Y-86306802D01*
X160081634Y-86433911D01*
X160030519Y-86449416D01*
X159908775Y-86514490D01*
X159802065Y-86602065D01*
X159714490Y-86708775D01*
X159649416Y-86830519D01*
X159609344Y-86962620D01*
X159595813Y-87100000D01*
X159595813Y-88300000D01*
X159609344Y-88437380D01*
X159649416Y-88569481D01*
X159714490Y-88691225D01*
X159802065Y-88797935D01*
X159908775Y-88885510D01*
X160030519Y-88950584D01*
X160162620Y-88990656D01*
X160300000Y-89004187D01*
X161800000Y-89004187D01*
X161937380Y-88990656D01*
X162069481Y-88950584D01*
X162191225Y-88885510D01*
X162297935Y-88797935D01*
X162385510Y-88691225D01*
X162450584Y-88569481D01*
X162490656Y-88437380D01*
X162504187Y-88300000D01*
X162504187Y-87100000D01*
X162490656Y-86962620D01*
X162450584Y-86830519D01*
X162385510Y-86708775D01*
X162297935Y-86602065D01*
X162191225Y-86514490D01*
X162069481Y-86449416D01*
X162018366Y-86433911D01*
X162191795Y-86306802D01*
X162388664Y-86092046D01*
X162539854Y-85843009D01*
X162639554Y-85569261D01*
X162641476Y-85556890D01*
X162520155Y-85327000D01*
X161177000Y-85327000D01*
X161177000Y-85347000D01*
X160923000Y-85347000D01*
X160923000Y-85327000D01*
X159579845Y-85327000D01*
X159458524Y-85556890D01*
X157422479Y-85556890D01*
X157416617Y-85497374D01*
X157379390Y-85374653D01*
X157318937Y-85261553D01*
X157237580Y-85162420D01*
X157138447Y-85081063D01*
X157052000Y-85034856D01*
X157052000Y-84843110D01*
X159458524Y-84843110D01*
X159579845Y-85073000D01*
X160923000Y-85073000D01*
X160923000Y-83872768D01*
X161177000Y-83872768D01*
X161177000Y-85073000D01*
X162520155Y-85073000D01*
X162641476Y-84843110D01*
X162639554Y-84830739D01*
X162539854Y-84556991D01*
X162388664Y-84307954D01*
X162191795Y-84093198D01*
X161956812Y-83920975D01*
X161692745Y-83797904D01*
X161409742Y-83728715D01*
X161177000Y-83872768D01*
X160923000Y-83872768D01*
X160690258Y-83728715D01*
X160407255Y-83797904D01*
X160143188Y-83920975D01*
X159908205Y-84093198D01*
X159711336Y-84307954D01*
X159560146Y-84556991D01*
X159460446Y-84830739D01*
X159458524Y-84843110D01*
X157052000Y-84843110D01*
X157052000Y-84507530D01*
X157130114Y-84465777D01*
X157232088Y-84382088D01*
X157315777Y-84280114D01*
X157377963Y-84163772D01*
X157416257Y-84037533D01*
X157429187Y-83906250D01*
X157429187Y-83468750D01*
X157416257Y-83337467D01*
X157377963Y-83211228D01*
X157315777Y-83094886D01*
X157311774Y-83090009D01*
X157329494Y-83080537D01*
X157426185Y-83001185D01*
X157505537Y-82904494D01*
X157564502Y-82794180D01*
X157600812Y-82674482D01*
X157613072Y-82550000D01*
X157610000Y-82398250D01*
X157451250Y-82239500D01*
X156627000Y-82239500D01*
X156627000Y-82259500D01*
X156373000Y-82259500D01*
X156373000Y-82239500D01*
X155548750Y-82239500D01*
X155390000Y-82398250D01*
X155386928Y-82550000D01*
X154563072Y-82550000D01*
X154560000Y-82398250D01*
X154401250Y-82239500D01*
X153577000Y-82239500D01*
X153577000Y-82259500D01*
X153323000Y-82259500D01*
X153323000Y-82239500D01*
X153303000Y-82239500D01*
X153303000Y-81985500D01*
X153323000Y-81985500D01*
X153323000Y-81198750D01*
X153577000Y-81198750D01*
X153577000Y-81985500D01*
X154401250Y-81985500D01*
X154560000Y-81826750D01*
X154563072Y-81675000D01*
X155386928Y-81675000D01*
X155390000Y-81826750D01*
X155548750Y-81985500D01*
X156373000Y-81985500D01*
X156373000Y-81198750D01*
X156627000Y-81198750D01*
X156627000Y-81985500D01*
X157451250Y-81985500D01*
X157610000Y-81826750D01*
X157613072Y-81675000D01*
X157600812Y-81550518D01*
X157564502Y-81430820D01*
X157505537Y-81320506D01*
X157426185Y-81223815D01*
X157329494Y-81144463D01*
X157219180Y-81085498D01*
X157099482Y-81049188D01*
X156975000Y-81036928D01*
X156785750Y-81040000D01*
X156627000Y-81198750D01*
X156373000Y-81198750D01*
X156214250Y-81040000D01*
X156025000Y-81036928D01*
X155900518Y-81049188D01*
X155780820Y-81085498D01*
X155670506Y-81144463D01*
X155573815Y-81223815D01*
X155494463Y-81320506D01*
X155435498Y-81430820D01*
X155399188Y-81550518D01*
X155386928Y-81675000D01*
X154563072Y-81675000D01*
X154550812Y-81550518D01*
X154514502Y-81430820D01*
X154455537Y-81320506D01*
X154376185Y-81223815D01*
X154279494Y-81144463D01*
X154169180Y-81085498D01*
X154049482Y-81049188D01*
X153925000Y-81036928D01*
X153735750Y-81040000D01*
X153577000Y-81198750D01*
X153323000Y-81198750D01*
X153164250Y-81040000D01*
X152975000Y-81036928D01*
X152850518Y-81049188D01*
X152730820Y-81085498D01*
X152620506Y-81144463D01*
X152523815Y-81223815D01*
X152523022Y-81224781D01*
X152403573Y-81144968D01*
X152248519Y-81080742D01*
X152083915Y-81048000D01*
X151916085Y-81048000D01*
X151751481Y-81080742D01*
X151596427Y-81144968D01*
X151591889Y-81148000D01*
X151256764Y-81148000D01*
X151223810Y-81130386D01*
X151138607Y-81104540D01*
X151050000Y-81095813D01*
X150150000Y-81095813D01*
X150061393Y-81104540D01*
X149976190Y-81130386D01*
X149897667Y-81172357D01*
X149828841Y-81228841D01*
X149772357Y-81297667D01*
X149730386Y-81376190D01*
X149704540Y-81461393D01*
X149695813Y-81550000D01*
X148950437Y-81550000D01*
X148908838Y-81522205D01*
X148790181Y-81473056D01*
X148664216Y-81448000D01*
X148535784Y-81448000D01*
X148409819Y-81473056D01*
X148291162Y-81522205D01*
X148184374Y-81593558D01*
X148093558Y-81684374D01*
X148022205Y-81791162D01*
X147973056Y-81909819D01*
X147948000Y-82035784D01*
X147948000Y-82095454D01*
X147897667Y-82122357D01*
X147828841Y-82178841D01*
X147772357Y-82247667D01*
X147730386Y-82326190D01*
X147704540Y-82411393D01*
X147695813Y-82500000D01*
X147695813Y-82769988D01*
X147238092Y-83227710D01*
X147196427Y-83244968D01*
X147056882Y-83338209D01*
X146938209Y-83456882D01*
X146844968Y-83596427D01*
X146780742Y-83751481D01*
X146748000Y-83916085D01*
X145477000Y-83916085D01*
X145477000Y-74086503D01*
X147898000Y-74086503D01*
X147898000Y-75809498D01*
X147916116Y-75993435D01*
X147987708Y-76229438D01*
X148103965Y-76446939D01*
X148260420Y-76637581D01*
X148451062Y-76794036D01*
X148668563Y-76910293D01*
X148904566Y-76981884D01*
X149150000Y-77006057D01*
X149395435Y-76981884D01*
X149631438Y-76910293D01*
X149848939Y-76794036D01*
X150039581Y-76637581D01*
X150196036Y-76446939D01*
X150201928Y-76435916D01*
X150195813Y-76498000D01*
X150195813Y-78298000D01*
X150204540Y-78386607D01*
X150230386Y-78471810D01*
X150272357Y-78550333D01*
X150328841Y-78619159D01*
X150348001Y-78634883D01*
X150348001Y-79047090D01*
X150338209Y-79056882D01*
X150244968Y-79196427D01*
X150180742Y-79351481D01*
X150148000Y-79516085D01*
X150148000Y-79683915D01*
X150180742Y-79848519D01*
X150244968Y-80003573D01*
X150338209Y-80143118D01*
X150456882Y-80261791D01*
X150596427Y-80355032D01*
X150751481Y-80419258D01*
X150916085Y-80452000D01*
X151083915Y-80452000D01*
X151248519Y-80419258D01*
X151403573Y-80355032D01*
X151543118Y-80261791D01*
X151661791Y-80143118D01*
X151755032Y-80003573D01*
X151819258Y-79848519D01*
X151822277Y-79833340D01*
X151916085Y-79852000D01*
X152083915Y-79852000D01*
X152177723Y-79833340D01*
X152180742Y-79848519D01*
X152244968Y-80003573D01*
X152338209Y-80143118D01*
X152456882Y-80261791D01*
X152596427Y-80355032D01*
X152751481Y-80419258D01*
X152916085Y-80452000D01*
X153083915Y-80452000D01*
X153248519Y-80419258D01*
X153403573Y-80355032D01*
X153543118Y-80261791D01*
X153661791Y-80143118D01*
X153755032Y-80003573D01*
X153819258Y-79848519D01*
X153822277Y-79833340D01*
X153916085Y-79852000D01*
X154083915Y-79852000D01*
X154177723Y-79833340D01*
X154180742Y-79848519D01*
X154244968Y-80003573D01*
X154338209Y-80143118D01*
X154456882Y-80261791D01*
X154596427Y-80355032D01*
X154751481Y-80419258D01*
X154916085Y-80452000D01*
X155083915Y-80452000D01*
X155248519Y-80419258D01*
X155403573Y-80355032D01*
X155543118Y-80261791D01*
X155661791Y-80143118D01*
X155755032Y-80003573D01*
X155819258Y-79848519D01*
X155822277Y-79833340D01*
X155916085Y-79852000D01*
X156083915Y-79852000D01*
X156177723Y-79833340D01*
X156180742Y-79848519D01*
X156244968Y-80003573D01*
X156338209Y-80143118D01*
X156456882Y-80261791D01*
X156596427Y-80355032D01*
X156751481Y-80419258D01*
X156916085Y-80452000D01*
X157083915Y-80452000D01*
X157248519Y-80419258D01*
X157403573Y-80355032D01*
X157543118Y-80261791D01*
X157661791Y-80143118D01*
X157755032Y-80003573D01*
X157819258Y-79848519D01*
X157852000Y-79683915D01*
X157852000Y-79516085D01*
X157819258Y-79351481D01*
X157755032Y-79196427D01*
X157661791Y-79056882D01*
X157652000Y-79047091D01*
X157652000Y-78935976D01*
X157714250Y-78933000D01*
X157873000Y-78774250D01*
X157873000Y-77525000D01*
X157853000Y-77525000D01*
X157853000Y-77271000D01*
X157873000Y-77271000D01*
X157873000Y-76021750D01*
X158127000Y-76021750D01*
X158127000Y-77271000D01*
X158147000Y-77271000D01*
X158147000Y-77525000D01*
X158127000Y-77525000D01*
X158127000Y-78774250D01*
X158285750Y-78933000D01*
X158348001Y-78935976D01*
X158348001Y-79047090D01*
X158338209Y-79056882D01*
X158244968Y-79196427D01*
X158180742Y-79351481D01*
X158148000Y-79516085D01*
X158148000Y-79683915D01*
X158180742Y-79848519D01*
X158244968Y-80003573D01*
X158338209Y-80143118D01*
X158456882Y-80261791D01*
X158596427Y-80355032D01*
X158751481Y-80419258D01*
X158916085Y-80452000D01*
X159083915Y-80452000D01*
X159248519Y-80419258D01*
X159403573Y-80355032D01*
X159543118Y-80261791D01*
X159661791Y-80143118D01*
X159755032Y-80003573D01*
X159819258Y-79848519D01*
X159852000Y-79683915D01*
X159852000Y-79516085D01*
X159819258Y-79351481D01*
X159755032Y-79196427D01*
X159661791Y-79056882D01*
X159652000Y-79047091D01*
X159652000Y-78634882D01*
X159671159Y-78619159D01*
X159727643Y-78550333D01*
X159769614Y-78471810D01*
X159795460Y-78386607D01*
X159804187Y-78298000D01*
X159804187Y-76498000D01*
X159798072Y-76435914D01*
X159803965Y-76446939D01*
X159960420Y-76637581D01*
X160151062Y-76794036D01*
X160368563Y-76910293D01*
X160604566Y-76981884D01*
X160850000Y-77006057D01*
X161095435Y-76981884D01*
X161331438Y-76910293D01*
X161548939Y-76794036D01*
X161739581Y-76637581D01*
X161896036Y-76446939D01*
X162012293Y-76229438D01*
X162083884Y-75993435D01*
X162102000Y-75809498D01*
X162102000Y-74086502D01*
X162083884Y-73902565D01*
X162012293Y-73666562D01*
X161896036Y-73449061D01*
X161739581Y-73258419D01*
X161548938Y-73101964D01*
X161331437Y-72985707D01*
X161095434Y-72914116D01*
X160850000Y-72889943D01*
X160604565Y-72914116D01*
X160368562Y-72985707D01*
X160151061Y-73101964D01*
X159960419Y-73258419D01*
X159803964Y-73449062D01*
X159687707Y-73666563D01*
X159616116Y-73902566D01*
X159598000Y-74086503D01*
X159598000Y-75809498D01*
X159616116Y-75993435D01*
X159672101Y-76177988D01*
X159671159Y-76176841D01*
X159602333Y-76120357D01*
X159523810Y-76078386D01*
X159438607Y-76052540D01*
X159350000Y-76043813D01*
X158797527Y-76043813D01*
X158704494Y-75967463D01*
X158594180Y-75908498D01*
X158474482Y-75872188D01*
X158350000Y-75859928D01*
X158285750Y-75863000D01*
X158127000Y-76021750D01*
X157873000Y-76021750D01*
X157714250Y-75863000D01*
X157665028Y-75860647D01*
X157724625Y-75835961D01*
X157888738Y-75726304D01*
X158028304Y-75586738D01*
X158137961Y-75422625D01*
X158213493Y-75240273D01*
X158252000Y-75046688D01*
X158252000Y-74849312D01*
X158213493Y-74655727D01*
X158137961Y-74473375D01*
X158028304Y-74309262D01*
X157888738Y-74169696D01*
X157724625Y-74060039D01*
X157542273Y-73984507D01*
X157348688Y-73946000D01*
X157151312Y-73946000D01*
X156957727Y-73984507D01*
X156775375Y-74060039D01*
X156611262Y-74169696D01*
X156471696Y-74309262D01*
X156362039Y-74473375D01*
X156286507Y-74655727D01*
X156248000Y-74849312D01*
X156248000Y-75046688D01*
X156286507Y-75240273D01*
X156362039Y-75422625D01*
X156471696Y-75586738D01*
X156611262Y-75726304D01*
X156775375Y-75835961D01*
X156957727Y-75911493D01*
X157151312Y-75950000D01*
X157328176Y-75950000D01*
X157295506Y-75967463D01*
X157202473Y-76043813D01*
X156650000Y-76043813D01*
X156561393Y-76052540D01*
X156500000Y-76071163D01*
X156438607Y-76052540D01*
X156350000Y-76043813D01*
X155650000Y-76043813D01*
X155561393Y-76052540D01*
X155500000Y-76071163D01*
X155438607Y-76052540D01*
X155350000Y-76043813D01*
X154650000Y-76043813D01*
X154561393Y-76052540D01*
X154500000Y-76071163D01*
X154438607Y-76052540D01*
X154350000Y-76043813D01*
X153650000Y-76043813D01*
X153561393Y-76052540D01*
X153500000Y-76071163D01*
X153438607Y-76052540D01*
X153350000Y-76043813D01*
X152650000Y-76043813D01*
X152561393Y-76052540D01*
X152500000Y-76071163D01*
X152438607Y-76052540D01*
X152350000Y-76043813D01*
X151650000Y-76043813D01*
X151561393Y-76052540D01*
X151500000Y-76071163D01*
X151438607Y-76052540D01*
X151350000Y-76043813D01*
X150650000Y-76043813D01*
X150561393Y-76052540D01*
X150476190Y-76078386D01*
X150397667Y-76120357D01*
X150328841Y-76176841D01*
X150327901Y-76177987D01*
X150383884Y-75993435D01*
X150402000Y-75809498D01*
X150402000Y-74849312D01*
X151748000Y-74849312D01*
X151748000Y-75046688D01*
X151786507Y-75240273D01*
X151862039Y-75422625D01*
X151971696Y-75586738D01*
X152111262Y-75726304D01*
X152275375Y-75835961D01*
X152457727Y-75911493D01*
X152651312Y-75950000D01*
X152848688Y-75950000D01*
X153042273Y-75911493D01*
X153224625Y-75835961D01*
X153388738Y-75726304D01*
X153528304Y-75586738D01*
X153637961Y-75422625D01*
X153713493Y-75240273D01*
X153752000Y-75046688D01*
X153752000Y-74849312D01*
X153713493Y-74655727D01*
X153637961Y-74473375D01*
X153528304Y-74309262D01*
X153388738Y-74169696D01*
X153224625Y-74060039D01*
X153042273Y-73984507D01*
X152848688Y-73946000D01*
X152651312Y-73946000D01*
X152457727Y-73984507D01*
X152275375Y-74060039D01*
X152111262Y-74169696D01*
X151971696Y-74309262D01*
X151862039Y-74473375D01*
X151786507Y-74655727D01*
X151748000Y-74849312D01*
X150402000Y-74849312D01*
X150402000Y-74086502D01*
X150383884Y-73902565D01*
X150312293Y-73666562D01*
X150196036Y-73449061D01*
X150039581Y-73258419D01*
X149848938Y-73101964D01*
X149631437Y-72985707D01*
X149395434Y-72914116D01*
X149150000Y-72889943D01*
X148904565Y-72914116D01*
X148668562Y-72985707D01*
X148451061Y-73101964D01*
X148260419Y-73258419D01*
X148103964Y-73449062D01*
X147987707Y-73666563D01*
X147916116Y-73902566D01*
X147898000Y-74086503D01*
X145477000Y-74086503D01*
X145477000Y-72477000D01*
X164523000Y-72477000D01*
X164523001Y-109523000D01*
G04 #@! TA.AperFunction,Conductor*
D24*
G36*
X164523001Y-109523000D02*
G01*
X145477000Y-109523000D01*
X145477000Y-98979584D01*
X146253000Y-98979584D01*
X146253000Y-99408416D01*
X146336660Y-99829008D01*
X146500767Y-100225196D01*
X146739013Y-100581757D01*
X147042243Y-100884987D01*
X147398804Y-101123233D01*
X147794992Y-101287340D01*
X148215584Y-101371000D01*
X148644416Y-101371000D01*
X149065008Y-101287340D01*
X149461196Y-101123233D01*
X149817757Y-100884987D01*
X150120987Y-100581757D01*
X150359233Y-100225196D01*
X150523340Y-99829008D01*
X150607000Y-99408416D01*
X150607000Y-98979584D01*
X159393000Y-98979584D01*
X159393000Y-99408416D01*
X159476660Y-99829008D01*
X159640767Y-100225196D01*
X159879013Y-100581757D01*
X160182243Y-100884987D01*
X160538804Y-101123233D01*
X160934992Y-101287340D01*
X161355584Y-101371000D01*
X161784416Y-101371000D01*
X162205008Y-101287340D01*
X162601196Y-101123233D01*
X162957757Y-100884987D01*
X163260987Y-100581757D01*
X163499233Y-100225196D01*
X163663340Y-99829008D01*
X163747000Y-99408416D01*
X163747000Y-98979584D01*
X163663340Y-98558992D01*
X163499233Y-98162804D01*
X163260987Y-97806243D01*
X162957757Y-97503013D01*
X162601196Y-97264767D01*
X162205008Y-97100660D01*
X161784416Y-97017000D01*
X161355584Y-97017000D01*
X160934992Y-97100660D01*
X160538804Y-97264767D01*
X160182243Y-97503013D01*
X159879013Y-97806243D01*
X159640767Y-98162804D01*
X159476660Y-98558992D01*
X159393000Y-98979584D01*
X150607000Y-98979584D01*
X150523340Y-98558992D01*
X150359233Y-98162804D01*
X150120987Y-97806243D01*
X149817757Y-97503013D01*
X149461196Y-97264767D01*
X149065008Y-97100660D01*
X148644416Y-97017000D01*
X148215584Y-97017000D01*
X147794992Y-97100660D01*
X147398804Y-97264767D01*
X147042243Y-97503013D01*
X146739013Y-97806243D01*
X146500767Y-98162804D01*
X146336660Y-98558992D01*
X146253000Y-98979584D01*
X145477000Y-98979584D01*
X145477000Y-95590387D01*
X149948000Y-95590387D01*
X149948000Y-95797613D01*
X149988428Y-96000857D01*
X150067730Y-96192309D01*
X150182858Y-96364611D01*
X150329389Y-96511142D01*
X150446281Y-96589247D01*
X150445813Y-96594000D01*
X150445813Y-97794000D01*
X150454540Y-97882607D01*
X150480386Y-97967810D01*
X150522357Y-98046333D01*
X150578841Y-98115159D01*
X150647667Y-98171643D01*
X150726190Y-98213614D01*
X150811393Y-98239460D01*
X150900000Y-98248187D01*
X152100000Y-98248187D01*
X152188607Y-98239460D01*
X152273810Y-98213614D01*
X152352333Y-98171643D01*
X152421159Y-98115159D01*
X152477643Y-98046333D01*
X152519614Y-97967810D01*
X152545460Y-97882607D01*
X152554187Y-97794000D01*
X152554187Y-96648015D01*
X152693143Y-96705572D01*
X152896387Y-96746000D01*
X153046891Y-96746000D01*
X152988428Y-96887143D01*
X152948000Y-97090387D01*
X152948000Y-97297613D01*
X152988428Y-97500857D01*
X153067730Y-97692309D01*
X153182858Y-97864611D01*
X153329389Y-98011142D01*
X153501691Y-98126270D01*
X153693143Y-98205572D01*
X153896387Y-98246000D01*
X154103613Y-98246000D01*
X154306857Y-98205572D01*
X154498309Y-98126270D01*
X154670611Y-98011142D01*
X154817142Y-97864611D01*
X154932270Y-97692309D01*
X155000000Y-97528794D01*
X155067730Y-97692309D01*
X155182858Y-97864611D01*
X155329389Y-98011142D01*
X155501691Y-98126270D01*
X155693143Y-98205572D01*
X155896387Y-98246000D01*
X156103613Y-98246000D01*
X156306857Y-98205572D01*
X156498309Y-98126270D01*
X156621788Y-98043764D01*
X157829841Y-98043764D01*
X157877148Y-98267348D01*
X158098516Y-98368237D01*
X158335313Y-98424000D01*
X158578438Y-98432495D01*
X158818549Y-98393395D01*
X159046418Y-98308202D01*
X159122852Y-98267348D01*
X159170159Y-98043764D01*
X158500000Y-97373605D01*
X157829841Y-98043764D01*
X156621788Y-98043764D01*
X156670611Y-98011142D01*
X156817142Y-97864611D01*
X156932270Y-97692309D01*
X157011572Y-97500857D01*
X157052000Y-97297613D01*
X157052000Y-97090387D01*
X157011572Y-96887143D01*
X156953109Y-96746000D01*
X157103613Y-96746000D01*
X157306857Y-96705572D01*
X157379009Y-96675686D01*
X157325763Y-96792516D01*
X157270000Y-97029313D01*
X157261505Y-97272438D01*
X157300605Y-97512549D01*
X157385798Y-97740418D01*
X157426652Y-97816852D01*
X157650236Y-97864159D01*
X158320395Y-97194000D01*
X158306253Y-97179858D01*
X158485858Y-97000253D01*
X158500000Y-97014395D01*
X158514143Y-97000253D01*
X158693748Y-97179858D01*
X158679605Y-97194000D01*
X159349764Y-97864159D01*
X159573348Y-97816852D01*
X159674237Y-97595484D01*
X159730000Y-97358687D01*
X159738495Y-97115562D01*
X159699395Y-96875451D01*
X159614202Y-96647582D01*
X159575310Y-96574820D01*
X159670611Y-96511142D01*
X159817142Y-96364611D01*
X159932270Y-96192309D01*
X160011572Y-96000857D01*
X160052000Y-95797613D01*
X160052000Y-95590387D01*
X160011572Y-95387143D01*
X159932270Y-95195691D01*
X159817142Y-95023389D01*
X159670611Y-94876858D01*
X159498309Y-94761730D01*
X159306857Y-94682428D01*
X159103613Y-94642000D01*
X158896387Y-94642000D01*
X158693143Y-94682428D01*
X158501691Y-94761730D01*
X158329389Y-94876858D01*
X158182858Y-95023389D01*
X158067730Y-95195691D01*
X158000000Y-95359206D01*
X157932270Y-95195691D01*
X157817142Y-95023389D01*
X157670611Y-94876858D01*
X157498309Y-94761730D01*
X157306857Y-94682428D01*
X157103613Y-94642000D01*
X156896387Y-94642000D01*
X156693143Y-94682428D01*
X156501691Y-94761730D01*
X156329389Y-94876858D01*
X156182858Y-95023389D01*
X156067730Y-95195691D01*
X156000000Y-95359206D01*
X155932270Y-95195691D01*
X155817142Y-95023389D01*
X155670611Y-94876858D01*
X155498309Y-94761730D01*
X155306857Y-94682428D01*
X155103613Y-94642000D01*
X154896387Y-94642000D01*
X154693143Y-94682428D01*
X154501691Y-94761730D01*
X154329389Y-94876858D01*
X154182858Y-95023389D01*
X154067730Y-95195691D01*
X154000000Y-95359206D01*
X153932270Y-95195691D01*
X153817142Y-95023389D01*
X153670611Y-94876858D01*
X153498309Y-94761730D01*
X153306857Y-94682428D01*
X153103613Y-94642000D01*
X152896387Y-94642000D01*
X152693143Y-94682428D01*
X152501691Y-94761730D01*
X152329389Y-94876858D01*
X152182858Y-95023389D01*
X152067730Y-95195691D01*
X152000000Y-95359206D01*
X151932270Y-95195691D01*
X151817142Y-95023389D01*
X151670611Y-94876858D01*
X151498309Y-94761730D01*
X151306857Y-94682428D01*
X151103613Y-94642000D01*
X150896387Y-94642000D01*
X150693143Y-94682428D01*
X150501691Y-94761730D01*
X150329389Y-94876858D01*
X150182858Y-95023389D01*
X150067730Y-95195691D01*
X149988428Y-95387143D01*
X149948000Y-95590387D01*
X145477000Y-95590387D01*
X145477000Y-90050000D01*
X147745813Y-90050000D01*
X147745813Y-90850000D01*
X147754540Y-90938607D01*
X147780386Y-91023810D01*
X147822357Y-91102333D01*
X147878841Y-91171159D01*
X147947667Y-91227643D01*
X148026190Y-91269614D01*
X148111393Y-91295460D01*
X148200000Y-91304187D01*
X149100000Y-91304187D01*
X149188607Y-91295460D01*
X149273810Y-91269614D01*
X149352333Y-91227643D01*
X149421159Y-91171159D01*
X149477643Y-91102333D01*
X149519614Y-91023810D01*
X149526836Y-91000000D01*
X149745813Y-91000000D01*
X149745813Y-91800000D01*
X149754540Y-91888607D01*
X149780386Y-91973810D01*
X149822357Y-92052333D01*
X149878841Y-92121159D01*
X149947667Y-92177643D01*
X150026190Y-92219614D01*
X150111393Y-92245460D01*
X150200000Y-92254187D01*
X151100000Y-92254187D01*
X151188607Y-92245460D01*
X151273810Y-92219614D01*
X151352333Y-92177643D01*
X151421159Y-92121159D01*
X151477643Y-92052333D01*
X151519614Y-91973810D01*
X151526230Y-91952000D01*
X152790915Y-91952000D01*
X152811553Y-91968937D01*
X152924653Y-92029390D01*
X153047374Y-92066617D01*
X153175000Y-92079187D01*
X153725000Y-92079187D01*
X153852626Y-92066617D01*
X153975347Y-92029390D01*
X154088447Y-91968937D01*
X154187580Y-91887580D01*
X154268937Y-91788447D01*
X154329390Y-91675347D01*
X154344662Y-91625000D01*
X155386928Y-91625000D01*
X155399188Y-91749482D01*
X155435498Y-91869180D01*
X155494463Y-91979494D01*
X155573815Y-92076185D01*
X155670506Y-92155537D01*
X155780820Y-92214502D01*
X155900518Y-92250812D01*
X156025000Y-92263072D01*
X156214250Y-92260000D01*
X156373000Y-92101250D01*
X156373000Y-91352000D01*
X156627000Y-91352000D01*
X156627000Y-92101250D01*
X156785750Y-92260000D01*
X156975000Y-92263072D01*
X157099482Y-92250812D01*
X157219180Y-92214502D01*
X157329494Y-92155537D01*
X157426185Y-92076185D01*
X157505537Y-91979494D01*
X157564502Y-91869180D01*
X157600812Y-91749482D01*
X157613072Y-91625000D01*
X157610000Y-91510750D01*
X157451250Y-91352000D01*
X156627000Y-91352000D01*
X156373000Y-91352000D01*
X155548750Y-91352000D01*
X155390000Y-91510750D01*
X155386928Y-91625000D01*
X154344662Y-91625000D01*
X154366617Y-91552626D01*
X154379187Y-91425000D01*
X154379187Y-91025000D01*
X154366617Y-90897374D01*
X154329390Y-90774653D01*
X154268937Y-90661553D01*
X154187580Y-90562420D01*
X154088447Y-90481063D01*
X153975347Y-90420610D01*
X153907405Y-90400000D01*
X153975347Y-90379390D01*
X154088447Y-90318937D01*
X154187580Y-90237580D01*
X154268937Y-90138447D01*
X154275056Y-90127000D01*
X155674944Y-90127000D01*
X155681063Y-90138447D01*
X155762420Y-90237580D01*
X155768141Y-90242275D01*
X155670506Y-90294463D01*
X155573815Y-90373815D01*
X155494463Y-90470506D01*
X155435498Y-90580820D01*
X155399188Y-90700518D01*
X155386928Y-90825000D01*
X155390000Y-90939250D01*
X155548750Y-91098000D01*
X156373000Y-91098000D01*
X156373000Y-91078000D01*
X156627000Y-91078000D01*
X156627000Y-91098000D01*
X157451250Y-91098000D01*
X157610000Y-90939250D01*
X157613072Y-90825000D01*
X157600812Y-90700518D01*
X157564502Y-90580820D01*
X157505537Y-90470506D01*
X157426185Y-90373815D01*
X157329494Y-90294463D01*
X157231859Y-90242275D01*
X157237580Y-90237580D01*
X157246263Y-90227000D01*
X157364216Y-90227000D01*
X157490181Y-90201944D01*
X157608838Y-90152795D01*
X157715626Y-90081442D01*
X157806442Y-89990626D01*
X157877795Y-89883838D01*
X157926944Y-89765181D01*
X157952000Y-89639216D01*
X157952000Y-89510784D01*
X157926944Y-89384819D01*
X157877795Y-89266162D01*
X157806442Y-89159374D01*
X157715626Y-89068558D01*
X157608838Y-88997205D01*
X157490181Y-88948056D01*
X157364216Y-88923000D01*
X157246263Y-88923000D01*
X157237580Y-88912420D01*
X157138447Y-88831063D01*
X157025347Y-88770610D01*
X156902626Y-88733383D01*
X156775000Y-88720813D01*
X156225000Y-88720813D01*
X156097374Y-88733383D01*
X155974653Y-88770610D01*
X155861553Y-88831063D01*
X155762420Y-88912420D01*
X155681063Y-89011553D01*
X155674944Y-89023000D01*
X154275056Y-89023000D01*
X154268937Y-89011553D01*
X154187580Y-88912420D01*
X154088447Y-88831063D01*
X153975347Y-88770610D01*
X153852626Y-88733383D01*
X153725000Y-88720813D01*
X153175000Y-88720813D01*
X153047374Y-88733383D01*
X152924653Y-88770610D01*
X152811553Y-88831063D01*
X152712420Y-88912420D01*
X152631063Y-89011553D01*
X152570610Y-89124653D01*
X152533383Y-89247374D01*
X152520813Y-89375000D01*
X152520813Y-89775000D01*
X152533383Y-89902626D01*
X152570610Y-90025347D01*
X152631063Y-90138447D01*
X152712420Y-90237580D01*
X152811553Y-90318937D01*
X152924653Y-90379390D01*
X152992595Y-90400000D01*
X152924653Y-90420610D01*
X152811553Y-90481063D01*
X152712420Y-90562420D01*
X152631063Y-90661553D01*
X152570610Y-90774653D01*
X152548360Y-90848000D01*
X151526230Y-90848000D01*
X151519614Y-90826190D01*
X151477643Y-90747667D01*
X151421159Y-90678841D01*
X151352333Y-90622357D01*
X151273810Y-90580386D01*
X151188607Y-90554540D01*
X151100000Y-90545813D01*
X150200000Y-90545813D01*
X150111393Y-90554540D01*
X150026190Y-90580386D01*
X149947667Y-90622357D01*
X149878841Y-90678841D01*
X149822357Y-90747667D01*
X149780386Y-90826190D01*
X149754540Y-90911393D01*
X149745813Y-91000000D01*
X149526836Y-91000000D01*
X149545460Y-90938607D01*
X149554187Y-90850000D01*
X149554187Y-90050000D01*
X149545460Y-89961393D01*
X149526837Y-89900000D01*
X149561928Y-89900000D01*
X149574188Y-90024482D01*
X149610498Y-90144180D01*
X149669463Y-90254494D01*
X149748815Y-90351185D01*
X149845506Y-90430537D01*
X149955820Y-90489502D01*
X150075518Y-90525812D01*
X150200000Y-90538072D01*
X150364250Y-90535000D01*
X150523000Y-90376250D01*
X150523000Y-89627000D01*
X150777000Y-89627000D01*
X150777000Y-90376250D01*
X150935750Y-90535000D01*
X151100000Y-90538072D01*
X151224482Y-90525812D01*
X151344180Y-90489502D01*
X151454494Y-90430537D01*
X151551185Y-90351185D01*
X151630537Y-90254494D01*
X151689502Y-90144180D01*
X151725812Y-90024482D01*
X151738072Y-89900000D01*
X151735000Y-89785750D01*
X151576250Y-89627000D01*
X150777000Y-89627000D01*
X150523000Y-89627000D01*
X149723750Y-89627000D01*
X149565000Y-89785750D01*
X149561928Y-89900000D01*
X149526837Y-89900000D01*
X149519614Y-89876190D01*
X149477643Y-89797667D01*
X149421159Y-89728841D01*
X149352333Y-89672357D01*
X149302000Y-89645454D01*
X149302000Y-89585784D01*
X149276944Y-89459819D01*
X149227795Y-89341162D01*
X149156442Y-89234374D01*
X149065626Y-89143558D01*
X149000437Y-89100000D01*
X149561928Y-89100000D01*
X149565000Y-89214250D01*
X149723750Y-89373000D01*
X150523000Y-89373000D01*
X150523000Y-88623750D01*
X150777000Y-88623750D01*
X150777000Y-89373000D01*
X151576250Y-89373000D01*
X151735000Y-89214250D01*
X151738072Y-89100000D01*
X151725812Y-88975518D01*
X151689502Y-88855820D01*
X151630537Y-88745506D01*
X151551185Y-88648815D01*
X151454494Y-88569463D01*
X151344180Y-88510498D01*
X151224482Y-88474188D01*
X151100000Y-88461928D01*
X150935750Y-88465000D01*
X150777000Y-88623750D01*
X150523000Y-88623750D01*
X150364250Y-88465000D01*
X150200000Y-88461928D01*
X150075518Y-88474188D01*
X149955820Y-88510498D01*
X149845506Y-88569463D01*
X149748815Y-88648815D01*
X149669463Y-88745506D01*
X149610498Y-88855820D01*
X149574188Y-88975518D01*
X149561928Y-89100000D01*
X149000437Y-89100000D01*
X148958838Y-89072205D01*
X148840181Y-89023056D01*
X148714216Y-88998000D01*
X148585784Y-88998000D01*
X148459819Y-89023056D01*
X148341162Y-89072205D01*
X148234374Y-89143558D01*
X148143558Y-89234374D01*
X148072205Y-89341162D01*
X148023056Y-89459819D01*
X147998000Y-89585784D01*
X147998000Y-89645454D01*
X147947667Y-89672357D01*
X147878841Y-89728841D01*
X147822357Y-89797667D01*
X147780386Y-89876190D01*
X147754540Y-89961393D01*
X147745813Y-90050000D01*
X145477000Y-90050000D01*
X145477000Y-85625000D01*
X147770813Y-85625000D01*
X147770813Y-86025000D01*
X147783383Y-86152626D01*
X147820610Y-86275347D01*
X147881063Y-86388447D01*
X147962420Y-86487580D01*
X148061553Y-86568937D01*
X148174653Y-86629390D01*
X148242595Y-86650000D01*
X148174653Y-86670610D01*
X148061553Y-86731063D01*
X147962420Y-86812420D01*
X147881063Y-86911553D01*
X147820610Y-87024653D01*
X147783383Y-87147374D01*
X147770813Y-87275000D01*
X147770813Y-87675000D01*
X147783383Y-87802626D01*
X147820610Y-87925347D01*
X147881063Y-88038447D01*
X147962420Y-88137580D01*
X148001250Y-88169447D01*
X147998000Y-88185784D01*
X147998000Y-88314216D01*
X148023056Y-88440181D01*
X148072205Y-88558838D01*
X148143558Y-88665626D01*
X148234374Y-88756442D01*
X148341162Y-88827795D01*
X148459819Y-88876944D01*
X148585784Y-88902000D01*
X148714216Y-88902000D01*
X148840181Y-88876944D01*
X148958838Y-88827795D01*
X149065626Y-88756442D01*
X149156442Y-88665626D01*
X149227795Y-88558838D01*
X149276944Y-88440181D01*
X149302000Y-88314216D01*
X149302000Y-88238418D01*
X149338447Y-88218937D01*
X149437580Y-88137580D01*
X149518937Y-88038447D01*
X149579390Y-87925347D01*
X149616617Y-87802626D01*
X149629187Y-87675000D01*
X149629187Y-87275000D01*
X149616617Y-87147374D01*
X149579390Y-87024653D01*
X149518937Y-86911553D01*
X149437580Y-86812420D01*
X149338447Y-86731063D01*
X149225347Y-86670610D01*
X149157405Y-86650000D01*
X149225347Y-86629390D01*
X149338447Y-86568937D01*
X149437580Y-86487580D01*
X149518937Y-86388447D01*
X149525056Y-86377000D01*
X149774944Y-86377000D01*
X149781063Y-86388447D01*
X149862420Y-86487580D01*
X149952783Y-86561739D01*
X149948000Y-86585784D01*
X149948000Y-86714216D01*
X149952783Y-86738261D01*
X149862420Y-86812420D01*
X149781063Y-86911553D01*
X149720610Y-87024653D01*
X149683383Y-87147374D01*
X149670813Y-87275000D01*
X149670813Y-87675000D01*
X149683383Y-87802626D01*
X149720610Y-87925347D01*
X149781063Y-88038447D01*
X149862420Y-88137580D01*
X149961553Y-88218937D01*
X150074653Y-88279390D01*
X150197374Y-88316617D01*
X150325000Y-88329187D01*
X150875000Y-88329187D01*
X151002626Y-88316617D01*
X151125347Y-88279390D01*
X151238447Y-88218937D01*
X151337580Y-88137580D01*
X151418937Y-88038447D01*
X151479390Y-87925347D01*
X151516617Y-87802626D01*
X151529187Y-87675000D01*
X151529187Y-87275000D01*
X151516617Y-87147374D01*
X151479390Y-87024653D01*
X151418937Y-86911553D01*
X151337580Y-86812420D01*
X151247217Y-86738261D01*
X151252000Y-86714216D01*
X151252000Y-86585784D01*
X151247217Y-86561739D01*
X151337580Y-86487580D01*
X151418937Y-86388447D01*
X151479390Y-86275347D01*
X151516617Y-86152626D01*
X151529187Y-86025000D01*
X151529187Y-85625000D01*
X151516617Y-85497374D01*
X151479390Y-85374653D01*
X151418937Y-85261553D01*
X151337580Y-85162420D01*
X151238447Y-85081063D01*
X151152000Y-85034856D01*
X151152000Y-84691397D01*
X151223810Y-84669614D01*
X151302333Y-84627643D01*
X151371159Y-84571159D01*
X151427643Y-84502333D01*
X151469614Y-84423810D01*
X151495460Y-84338607D01*
X151504187Y-84250000D01*
X151504187Y-83450000D01*
X151495460Y-83361393D01*
X151469614Y-83276190D01*
X151427643Y-83197667D01*
X151371159Y-83128841D01*
X151302333Y-83072357D01*
X151223810Y-83030386D01*
X151138607Y-83004540D01*
X151050000Y-82995813D01*
X150150000Y-82995813D01*
X150061393Y-83004540D01*
X149976190Y-83030386D01*
X149897667Y-83072357D01*
X149828841Y-83128841D01*
X149772357Y-83197667D01*
X149730386Y-83276190D01*
X149704540Y-83361393D01*
X149695813Y-83450000D01*
X149695813Y-84250000D01*
X149704540Y-84338607D01*
X149730386Y-84423810D01*
X149772357Y-84502333D01*
X149828841Y-84571159D01*
X149897667Y-84627643D01*
X149976190Y-84669614D01*
X150048000Y-84691397D01*
X150048001Y-85034856D01*
X149961553Y-85081063D01*
X149862420Y-85162420D01*
X149781063Y-85261553D01*
X149774944Y-85273000D01*
X149525056Y-85273000D01*
X149518937Y-85261553D01*
X149437580Y-85162420D01*
X149338447Y-85081063D01*
X149225347Y-85020610D01*
X149102626Y-84983383D01*
X148975000Y-84970813D01*
X148425000Y-84970813D01*
X148297374Y-84983383D01*
X148174653Y-85020610D01*
X148061553Y-85081063D01*
X147962420Y-85162420D01*
X147881063Y-85261553D01*
X147820610Y-85374653D01*
X147783383Y-85497374D01*
X147770813Y-85625000D01*
X145477000Y-85625000D01*
X145477000Y-83916085D01*
X146748000Y-83916085D01*
X146748000Y-84083915D01*
X146780742Y-84248519D01*
X146844968Y-84403573D01*
X146938209Y-84543118D01*
X147056882Y-84661791D01*
X147196427Y-84755032D01*
X147351481Y-84819258D01*
X147516085Y-84852000D01*
X147683915Y-84852000D01*
X147848519Y-84819258D01*
X148003573Y-84755032D01*
X148143118Y-84661791D01*
X148261791Y-84543118D01*
X148355032Y-84403573D01*
X148372290Y-84361908D01*
X148980012Y-83754187D01*
X149050000Y-83754187D01*
X149138607Y-83745460D01*
X149223810Y-83719614D01*
X149302333Y-83677643D01*
X149371159Y-83621159D01*
X149427643Y-83552333D01*
X149469614Y-83473810D01*
X149495460Y-83388607D01*
X149504187Y-83300000D01*
X149504187Y-82500000D01*
X149495460Y-82411393D01*
X149469614Y-82326190D01*
X149427643Y-82247667D01*
X149371159Y-82178841D01*
X149302333Y-82122357D01*
X149252000Y-82095454D01*
X149252000Y-82035784D01*
X149226944Y-81909819D01*
X149177795Y-81791162D01*
X149106442Y-81684374D01*
X149015626Y-81593558D01*
X148950437Y-81550000D01*
X149695813Y-81550000D01*
X149695813Y-82350000D01*
X149704540Y-82438607D01*
X149730386Y-82523810D01*
X149772357Y-82602333D01*
X149828841Y-82671159D01*
X149897667Y-82727643D01*
X149976190Y-82769614D01*
X150061393Y-82795460D01*
X150150000Y-82804187D01*
X151050000Y-82804187D01*
X151138607Y-82795460D01*
X151223810Y-82769614D01*
X151256764Y-82752000D01*
X151910614Y-82752000D01*
X151950000Y-82755879D01*
X151989386Y-82752000D01*
X152083915Y-82752000D01*
X152248519Y-82719258D01*
X152350017Y-82677216D01*
X152385498Y-82794180D01*
X152444463Y-82904494D01*
X152523815Y-83001185D01*
X152620506Y-83080537D01*
X152638226Y-83090009D01*
X152634223Y-83094886D01*
X152572037Y-83211228D01*
X152533743Y-83337467D01*
X152520813Y-83468750D01*
X152520813Y-83906250D01*
X152533743Y-84037533D01*
X152572037Y-84163772D01*
X152634223Y-84280114D01*
X152717912Y-84382088D01*
X152819886Y-84465777D01*
X152898001Y-84507530D01*
X152898000Y-85034856D01*
X152811553Y-85081063D01*
X152712420Y-85162420D01*
X152631063Y-85261553D01*
X152570610Y-85374653D01*
X152533383Y-85497374D01*
X152520813Y-85625000D01*
X152520813Y-86025000D01*
X152533383Y-86152626D01*
X152570610Y-86275347D01*
X152631063Y-86388447D01*
X152712420Y-86487580D01*
X152802783Y-86561739D01*
X152798000Y-86585784D01*
X152798000Y-86714216D01*
X152802783Y-86738261D01*
X152712420Y-86812420D01*
X152631063Y-86911553D01*
X152570610Y-87024653D01*
X152533383Y-87147374D01*
X152520813Y-87275000D01*
X152520813Y-87675000D01*
X152533383Y-87802626D01*
X152570610Y-87925347D01*
X152631063Y-88038447D01*
X152712420Y-88137580D01*
X152811553Y-88218937D01*
X152924653Y-88279390D01*
X153047374Y-88316617D01*
X153175000Y-88329187D01*
X153725000Y-88329187D01*
X153852626Y-88316617D01*
X153975347Y-88279390D01*
X154088447Y-88218937D01*
X154187580Y-88137580D01*
X154268937Y-88038447D01*
X154329390Y-87925347D01*
X154366617Y-87802626D01*
X154379187Y-87675000D01*
X154379187Y-87275000D01*
X154366617Y-87147374D01*
X154329390Y-87024653D01*
X154268937Y-86911553D01*
X154187580Y-86812420D01*
X154097217Y-86738261D01*
X154102000Y-86714216D01*
X154102000Y-86585784D01*
X154097217Y-86561739D01*
X154187580Y-86487580D01*
X154268937Y-86388447D01*
X154329390Y-86275347D01*
X154366617Y-86152626D01*
X154379187Y-86025000D01*
X154379187Y-85625000D01*
X154366617Y-85497374D01*
X154329390Y-85374653D01*
X154268937Y-85261553D01*
X154187580Y-85162420D01*
X154088447Y-85081063D01*
X154002000Y-85034856D01*
X154002000Y-84507530D01*
X154080114Y-84465777D01*
X154182088Y-84382088D01*
X154265777Y-84280114D01*
X154327963Y-84163772D01*
X154366257Y-84037533D01*
X154379187Y-83906250D01*
X154379187Y-83468750D01*
X154366257Y-83337467D01*
X154327963Y-83211228D01*
X154265777Y-83094886D01*
X154261774Y-83090009D01*
X154279494Y-83080537D01*
X154376185Y-83001185D01*
X154455537Y-82904494D01*
X154514502Y-82794180D01*
X154550812Y-82674482D01*
X154563072Y-82550000D01*
X155386928Y-82550000D01*
X155399188Y-82674482D01*
X155435498Y-82794180D01*
X155494463Y-82904494D01*
X155573815Y-83001185D01*
X155670506Y-83080537D01*
X155688226Y-83090009D01*
X155684223Y-83094886D01*
X155622037Y-83211228D01*
X155583743Y-83337467D01*
X155570813Y-83468750D01*
X155570813Y-83906250D01*
X155583743Y-84037533D01*
X155622037Y-84163772D01*
X155684223Y-84280114D01*
X155767912Y-84382088D01*
X155869886Y-84465777D01*
X155948000Y-84507530D01*
X155948001Y-85034856D01*
X155861553Y-85081063D01*
X155762420Y-85162420D01*
X155681063Y-85261553D01*
X155620610Y-85374653D01*
X155583383Y-85497374D01*
X155570813Y-85625000D01*
X155570813Y-86025000D01*
X155583383Y-86152626D01*
X155620610Y-86275347D01*
X155681063Y-86388447D01*
X155762420Y-86487580D01*
X155861553Y-86568937D01*
X155974653Y-86629390D01*
X156042595Y-86650000D01*
X155974653Y-86670610D01*
X155861553Y-86731063D01*
X155762420Y-86812420D01*
X155681063Y-86911553D01*
X155620610Y-87024653D01*
X155583383Y-87147374D01*
X155570813Y-87275000D01*
X155570813Y-87675000D01*
X155583383Y-87802626D01*
X155620610Y-87925347D01*
X155681063Y-88038447D01*
X155762420Y-88137580D01*
X155861553Y-88218937D01*
X155974653Y-88279390D01*
X156097374Y-88316617D01*
X156225000Y-88329187D01*
X156775000Y-88329187D01*
X156902626Y-88316617D01*
X157025347Y-88279390D01*
X157138447Y-88218937D01*
X157237580Y-88137580D01*
X157318937Y-88038447D01*
X157379390Y-87925347D01*
X157416617Y-87802626D01*
X157429187Y-87675000D01*
X157429187Y-87275000D01*
X157428189Y-87264865D01*
X157515626Y-87206442D01*
X157606442Y-87115626D01*
X157677795Y-87008838D01*
X157726944Y-86890181D01*
X157752000Y-86764216D01*
X157752000Y-86635784D01*
X157726944Y-86509819D01*
X157677795Y-86391162D01*
X157606442Y-86284374D01*
X157515626Y-86193558D01*
X157418948Y-86128960D01*
X157429187Y-86025000D01*
X157429187Y-85625000D01*
X157422479Y-85556890D01*
X159458524Y-85556890D01*
X159460446Y-85569261D01*
X159560146Y-85843009D01*
X159711336Y-86092046D01*
X159908205Y-86306802D01*
X160081634Y-86433911D01*
X160030519Y-86449416D01*
X159908775Y-86514490D01*
X159802065Y-86602065D01*
X159714490Y-86708775D01*
X159649416Y-86830519D01*
X159609344Y-86962620D01*
X159595813Y-87100000D01*
X159595813Y-88300000D01*
X159609344Y-88437380D01*
X159649416Y-88569481D01*
X159714490Y-88691225D01*
X159802065Y-88797935D01*
X159908775Y-88885510D01*
X160030519Y-88950584D01*
X160162620Y-88990656D01*
X160300000Y-89004187D01*
X161800000Y-89004187D01*
X161937380Y-88990656D01*
X162069481Y-88950584D01*
X162191225Y-88885510D01*
X162297935Y-88797935D01*
X162385510Y-88691225D01*
X162450584Y-88569481D01*
X162490656Y-88437380D01*
X162504187Y-88300000D01*
X162504187Y-87100000D01*
X162490656Y-86962620D01*
X162450584Y-86830519D01*
X162385510Y-86708775D01*
X162297935Y-86602065D01*
X162191225Y-86514490D01*
X162069481Y-86449416D01*
X162018366Y-86433911D01*
X162191795Y-86306802D01*
X162388664Y-86092046D01*
X162539854Y-85843009D01*
X162639554Y-85569261D01*
X162641476Y-85556890D01*
X162520155Y-85327000D01*
X161177000Y-85327000D01*
X161177000Y-85347000D01*
X160923000Y-85347000D01*
X160923000Y-85327000D01*
X159579845Y-85327000D01*
X159458524Y-85556890D01*
X157422479Y-85556890D01*
X157416617Y-85497374D01*
X157379390Y-85374653D01*
X157318937Y-85261553D01*
X157237580Y-85162420D01*
X157138447Y-85081063D01*
X157052000Y-85034856D01*
X157052000Y-84843110D01*
X159458524Y-84843110D01*
X159579845Y-85073000D01*
X160923000Y-85073000D01*
X160923000Y-83872768D01*
X161177000Y-83872768D01*
X161177000Y-85073000D01*
X162520155Y-85073000D01*
X162641476Y-84843110D01*
X162639554Y-84830739D01*
X162539854Y-84556991D01*
X162388664Y-84307954D01*
X162191795Y-84093198D01*
X161956812Y-83920975D01*
X161692745Y-83797904D01*
X161409742Y-83728715D01*
X161177000Y-83872768D01*
X160923000Y-83872768D01*
X160690258Y-83728715D01*
X160407255Y-83797904D01*
X160143188Y-83920975D01*
X159908205Y-84093198D01*
X159711336Y-84307954D01*
X159560146Y-84556991D01*
X159460446Y-84830739D01*
X159458524Y-84843110D01*
X157052000Y-84843110D01*
X157052000Y-84507530D01*
X157130114Y-84465777D01*
X157232088Y-84382088D01*
X157315777Y-84280114D01*
X157377963Y-84163772D01*
X157416257Y-84037533D01*
X157429187Y-83906250D01*
X157429187Y-83468750D01*
X157416257Y-83337467D01*
X157377963Y-83211228D01*
X157315777Y-83094886D01*
X157311774Y-83090009D01*
X157329494Y-83080537D01*
X157426185Y-83001185D01*
X157505537Y-82904494D01*
X157564502Y-82794180D01*
X157600812Y-82674482D01*
X157613072Y-82550000D01*
X157610000Y-82398250D01*
X157451250Y-82239500D01*
X156627000Y-82239500D01*
X156627000Y-82259500D01*
X156373000Y-82259500D01*
X156373000Y-82239500D01*
X155548750Y-82239500D01*
X155390000Y-82398250D01*
X155386928Y-82550000D01*
X154563072Y-82550000D01*
X154560000Y-82398250D01*
X154401250Y-82239500D01*
X153577000Y-82239500D01*
X153577000Y-82259500D01*
X153323000Y-82259500D01*
X153323000Y-82239500D01*
X153303000Y-82239500D01*
X153303000Y-81985500D01*
X153323000Y-81985500D01*
X153323000Y-81198750D01*
X153577000Y-81198750D01*
X153577000Y-81985500D01*
X154401250Y-81985500D01*
X154560000Y-81826750D01*
X154563072Y-81675000D01*
X155386928Y-81675000D01*
X155390000Y-81826750D01*
X155548750Y-81985500D01*
X156373000Y-81985500D01*
X156373000Y-81198750D01*
X156627000Y-81198750D01*
X156627000Y-81985500D01*
X157451250Y-81985500D01*
X157610000Y-81826750D01*
X157613072Y-81675000D01*
X157600812Y-81550518D01*
X157564502Y-81430820D01*
X157505537Y-81320506D01*
X157426185Y-81223815D01*
X157329494Y-81144463D01*
X157219180Y-81085498D01*
X157099482Y-81049188D01*
X156975000Y-81036928D01*
X156785750Y-81040000D01*
X156627000Y-81198750D01*
X156373000Y-81198750D01*
X156214250Y-81040000D01*
X156025000Y-81036928D01*
X155900518Y-81049188D01*
X155780820Y-81085498D01*
X155670506Y-81144463D01*
X155573815Y-81223815D01*
X155494463Y-81320506D01*
X155435498Y-81430820D01*
X155399188Y-81550518D01*
X155386928Y-81675000D01*
X154563072Y-81675000D01*
X154550812Y-81550518D01*
X154514502Y-81430820D01*
X154455537Y-81320506D01*
X154376185Y-81223815D01*
X154279494Y-81144463D01*
X154169180Y-81085498D01*
X154049482Y-81049188D01*
X153925000Y-81036928D01*
X153735750Y-81040000D01*
X153577000Y-81198750D01*
X153323000Y-81198750D01*
X153164250Y-81040000D01*
X152975000Y-81036928D01*
X152850518Y-81049188D01*
X152730820Y-81085498D01*
X152620506Y-81144463D01*
X152523815Y-81223815D01*
X152523022Y-81224781D01*
X152403573Y-81144968D01*
X152248519Y-81080742D01*
X152083915Y-81048000D01*
X151916085Y-81048000D01*
X151751481Y-81080742D01*
X151596427Y-81144968D01*
X151591889Y-81148000D01*
X151256764Y-81148000D01*
X151223810Y-81130386D01*
X151138607Y-81104540D01*
X151050000Y-81095813D01*
X150150000Y-81095813D01*
X150061393Y-81104540D01*
X149976190Y-81130386D01*
X149897667Y-81172357D01*
X149828841Y-81228841D01*
X149772357Y-81297667D01*
X149730386Y-81376190D01*
X149704540Y-81461393D01*
X149695813Y-81550000D01*
X148950437Y-81550000D01*
X148908838Y-81522205D01*
X148790181Y-81473056D01*
X148664216Y-81448000D01*
X148535784Y-81448000D01*
X148409819Y-81473056D01*
X148291162Y-81522205D01*
X148184374Y-81593558D01*
X148093558Y-81684374D01*
X148022205Y-81791162D01*
X147973056Y-81909819D01*
X147948000Y-82035784D01*
X147948000Y-82095454D01*
X147897667Y-82122357D01*
X147828841Y-82178841D01*
X147772357Y-82247667D01*
X147730386Y-82326190D01*
X147704540Y-82411393D01*
X147695813Y-82500000D01*
X147695813Y-82769988D01*
X147238092Y-83227710D01*
X147196427Y-83244968D01*
X147056882Y-83338209D01*
X146938209Y-83456882D01*
X146844968Y-83596427D01*
X146780742Y-83751481D01*
X146748000Y-83916085D01*
X145477000Y-83916085D01*
X145477000Y-74086503D01*
X147898000Y-74086503D01*
X147898000Y-75809498D01*
X147916116Y-75993435D01*
X147987708Y-76229438D01*
X148103965Y-76446939D01*
X148260420Y-76637581D01*
X148451062Y-76794036D01*
X148668563Y-76910293D01*
X148904566Y-76981884D01*
X149150000Y-77006057D01*
X149395435Y-76981884D01*
X149631438Y-76910293D01*
X149848939Y-76794036D01*
X150039581Y-76637581D01*
X150196036Y-76446939D01*
X150201928Y-76435916D01*
X150195813Y-76498000D01*
X150195813Y-78298000D01*
X150204540Y-78386607D01*
X150230386Y-78471810D01*
X150272357Y-78550333D01*
X150328841Y-78619159D01*
X150348001Y-78634883D01*
X150348001Y-79047090D01*
X150338209Y-79056882D01*
X150244968Y-79196427D01*
X150180742Y-79351481D01*
X150148000Y-79516085D01*
X150148000Y-79683915D01*
X150180742Y-79848519D01*
X150244968Y-80003573D01*
X150338209Y-80143118D01*
X150456882Y-80261791D01*
X150596427Y-80355032D01*
X150751481Y-80419258D01*
X150916085Y-80452000D01*
X151083915Y-80452000D01*
X151248519Y-80419258D01*
X151403573Y-80355032D01*
X151543118Y-80261791D01*
X151661791Y-80143118D01*
X151755032Y-80003573D01*
X151819258Y-79848519D01*
X151822277Y-79833340D01*
X151916085Y-79852000D01*
X152083915Y-79852000D01*
X152177723Y-79833340D01*
X152180742Y-79848519D01*
X152244968Y-80003573D01*
X152338209Y-80143118D01*
X152456882Y-80261791D01*
X152596427Y-80355032D01*
X152751481Y-80419258D01*
X152916085Y-80452000D01*
X153083915Y-80452000D01*
X153248519Y-80419258D01*
X153403573Y-80355032D01*
X153543118Y-80261791D01*
X153661791Y-80143118D01*
X153755032Y-80003573D01*
X153819258Y-79848519D01*
X153822277Y-79833340D01*
X153916085Y-79852000D01*
X154083915Y-79852000D01*
X154177723Y-79833340D01*
X154180742Y-79848519D01*
X154244968Y-80003573D01*
X154338209Y-80143118D01*
X154456882Y-80261791D01*
X154596427Y-80355032D01*
X154751481Y-80419258D01*
X154916085Y-80452000D01*
X155083915Y-80452000D01*
X155248519Y-80419258D01*
X155403573Y-80355032D01*
X155543118Y-80261791D01*
X155661791Y-80143118D01*
X155755032Y-80003573D01*
X155819258Y-79848519D01*
X155822277Y-79833340D01*
X155916085Y-79852000D01*
X156083915Y-79852000D01*
X156177723Y-79833340D01*
X156180742Y-79848519D01*
X156244968Y-80003573D01*
X156338209Y-80143118D01*
X156456882Y-80261791D01*
X156596427Y-80355032D01*
X156751481Y-80419258D01*
X156916085Y-80452000D01*
X157083915Y-80452000D01*
X157248519Y-80419258D01*
X157403573Y-80355032D01*
X157543118Y-80261791D01*
X157661791Y-80143118D01*
X157755032Y-80003573D01*
X157819258Y-79848519D01*
X157852000Y-79683915D01*
X157852000Y-79516085D01*
X157819258Y-79351481D01*
X157755032Y-79196427D01*
X157661791Y-79056882D01*
X157652000Y-79047091D01*
X157652000Y-78935976D01*
X157714250Y-78933000D01*
X157873000Y-78774250D01*
X157873000Y-77525000D01*
X157853000Y-77525000D01*
X157853000Y-77271000D01*
X157873000Y-77271000D01*
X157873000Y-76021750D01*
X158127000Y-76021750D01*
X158127000Y-77271000D01*
X158147000Y-77271000D01*
X158147000Y-77525000D01*
X158127000Y-77525000D01*
X158127000Y-78774250D01*
X158285750Y-78933000D01*
X158348001Y-78935976D01*
X158348001Y-79047090D01*
X158338209Y-79056882D01*
X158244968Y-79196427D01*
X158180742Y-79351481D01*
X158148000Y-79516085D01*
X158148000Y-79683915D01*
X158180742Y-79848519D01*
X158244968Y-80003573D01*
X158338209Y-80143118D01*
X158456882Y-80261791D01*
X158596427Y-80355032D01*
X158751481Y-80419258D01*
X158916085Y-80452000D01*
X159083915Y-80452000D01*
X159248519Y-80419258D01*
X159403573Y-80355032D01*
X159543118Y-80261791D01*
X159661791Y-80143118D01*
X159755032Y-80003573D01*
X159819258Y-79848519D01*
X159852000Y-79683915D01*
X159852000Y-79516085D01*
X159819258Y-79351481D01*
X159755032Y-79196427D01*
X159661791Y-79056882D01*
X159652000Y-79047091D01*
X159652000Y-78634882D01*
X159671159Y-78619159D01*
X159727643Y-78550333D01*
X159769614Y-78471810D01*
X159795460Y-78386607D01*
X159804187Y-78298000D01*
X159804187Y-76498000D01*
X159798072Y-76435914D01*
X159803965Y-76446939D01*
X159960420Y-76637581D01*
X160151062Y-76794036D01*
X160368563Y-76910293D01*
X160604566Y-76981884D01*
X160850000Y-77006057D01*
X161095435Y-76981884D01*
X161331438Y-76910293D01*
X161548939Y-76794036D01*
X161739581Y-76637581D01*
X161896036Y-76446939D01*
X162012293Y-76229438D01*
X162083884Y-75993435D01*
X162102000Y-75809498D01*
X162102000Y-74086502D01*
X162083884Y-73902565D01*
X162012293Y-73666562D01*
X161896036Y-73449061D01*
X161739581Y-73258419D01*
X161548938Y-73101964D01*
X161331437Y-72985707D01*
X161095434Y-72914116D01*
X160850000Y-72889943D01*
X160604565Y-72914116D01*
X160368562Y-72985707D01*
X160151061Y-73101964D01*
X159960419Y-73258419D01*
X159803964Y-73449062D01*
X159687707Y-73666563D01*
X159616116Y-73902566D01*
X159598000Y-74086503D01*
X159598000Y-75809498D01*
X159616116Y-75993435D01*
X159672101Y-76177988D01*
X159671159Y-76176841D01*
X159602333Y-76120357D01*
X159523810Y-76078386D01*
X159438607Y-76052540D01*
X159350000Y-76043813D01*
X158797527Y-76043813D01*
X158704494Y-75967463D01*
X158594180Y-75908498D01*
X158474482Y-75872188D01*
X158350000Y-75859928D01*
X158285750Y-75863000D01*
X158127000Y-76021750D01*
X157873000Y-76021750D01*
X157714250Y-75863000D01*
X157665028Y-75860647D01*
X157724625Y-75835961D01*
X157888738Y-75726304D01*
X158028304Y-75586738D01*
X158137961Y-75422625D01*
X158213493Y-75240273D01*
X158252000Y-75046688D01*
X158252000Y-74849312D01*
X158213493Y-74655727D01*
X158137961Y-74473375D01*
X158028304Y-74309262D01*
X157888738Y-74169696D01*
X157724625Y-74060039D01*
X157542273Y-73984507D01*
X157348688Y-73946000D01*
X157151312Y-73946000D01*
X156957727Y-73984507D01*
X156775375Y-74060039D01*
X156611262Y-74169696D01*
X156471696Y-74309262D01*
X156362039Y-74473375D01*
X156286507Y-74655727D01*
X156248000Y-74849312D01*
X156248000Y-75046688D01*
X156286507Y-75240273D01*
X156362039Y-75422625D01*
X156471696Y-75586738D01*
X156611262Y-75726304D01*
X156775375Y-75835961D01*
X156957727Y-75911493D01*
X157151312Y-75950000D01*
X157328176Y-75950000D01*
X157295506Y-75967463D01*
X157202473Y-76043813D01*
X156650000Y-76043813D01*
X156561393Y-76052540D01*
X156500000Y-76071163D01*
X156438607Y-76052540D01*
X156350000Y-76043813D01*
X155650000Y-76043813D01*
X155561393Y-76052540D01*
X155500000Y-76071163D01*
X155438607Y-76052540D01*
X155350000Y-76043813D01*
X154650000Y-76043813D01*
X154561393Y-76052540D01*
X154500000Y-76071163D01*
X154438607Y-76052540D01*
X154350000Y-76043813D01*
X153650000Y-76043813D01*
X153561393Y-76052540D01*
X153500000Y-76071163D01*
X153438607Y-76052540D01*
X153350000Y-76043813D01*
X152650000Y-76043813D01*
X152561393Y-76052540D01*
X152500000Y-76071163D01*
X152438607Y-76052540D01*
X152350000Y-76043813D01*
X151650000Y-76043813D01*
X151561393Y-76052540D01*
X151500000Y-76071163D01*
X151438607Y-76052540D01*
X151350000Y-76043813D01*
X150650000Y-76043813D01*
X150561393Y-76052540D01*
X150476190Y-76078386D01*
X150397667Y-76120357D01*
X150328841Y-76176841D01*
X150327901Y-76177987D01*
X150383884Y-75993435D01*
X150402000Y-75809498D01*
X150402000Y-74849312D01*
X151748000Y-74849312D01*
X151748000Y-75046688D01*
X151786507Y-75240273D01*
X151862039Y-75422625D01*
X151971696Y-75586738D01*
X152111262Y-75726304D01*
X152275375Y-75835961D01*
X152457727Y-75911493D01*
X152651312Y-75950000D01*
X152848688Y-75950000D01*
X153042273Y-75911493D01*
X153224625Y-75835961D01*
X153388738Y-75726304D01*
X153528304Y-75586738D01*
X153637961Y-75422625D01*
X153713493Y-75240273D01*
X153752000Y-75046688D01*
X153752000Y-74849312D01*
X153713493Y-74655727D01*
X153637961Y-74473375D01*
X153528304Y-74309262D01*
X153388738Y-74169696D01*
X153224625Y-74060039D01*
X153042273Y-73984507D01*
X152848688Y-73946000D01*
X152651312Y-73946000D01*
X152457727Y-73984507D01*
X152275375Y-74060039D01*
X152111262Y-74169696D01*
X151971696Y-74309262D01*
X151862039Y-74473375D01*
X151786507Y-74655727D01*
X151748000Y-74849312D01*
X150402000Y-74849312D01*
X150402000Y-74086502D01*
X150383884Y-73902565D01*
X150312293Y-73666562D01*
X150196036Y-73449061D01*
X150039581Y-73258419D01*
X149848938Y-73101964D01*
X149631437Y-72985707D01*
X149395434Y-72914116D01*
X149150000Y-72889943D01*
X148904565Y-72914116D01*
X148668562Y-72985707D01*
X148451061Y-73101964D01*
X148260419Y-73258419D01*
X148103964Y-73449062D01*
X147987707Y-73666563D01*
X147916116Y-73902566D01*
X147898000Y-74086503D01*
X145477000Y-74086503D01*
X145477000Y-72477000D01*
X164523000Y-72477000D01*
X164523001Y-109523000D01*
G37*
G04 #@! TD.AperFunction*
M02*
