G04 #@! TF.GenerationSoftware,KiCad,Pcbnew,5.1.10-88a1d61d58~88~ubuntu18.04.1*
G04 #@! TF.CreationDate,2021-09-16T14:54:05+02:00*
G04 #@! TF.ProjectId,GPIO-USB-Switch,4750494f-2d55-4534-922d-537769746368,rev?*
G04 #@! TF.SameCoordinates,Original*
G04 #@! TF.FileFunction,Copper,L2,Inr*
G04 #@! TF.FilePolarity,Positive*
%FSLAX46Y46*%
G04 Gerber Fmt 4.6, Leading zero omitted, Abs format (unit mm)*
G04 Created by KiCad (PCBNEW 5.1.10-88a1d61d58~88~ubuntu18.04.1) date 2021-09-16 14:54:05*
%MOMM*%
%LPD*%
G01*
G04 APERTURE LIST*
G04 #@! TA.AperFunction,ComponentPad*
%ADD10O,1.600000X3.200000*%
G04 #@! TD*
G04 #@! TA.AperFunction,ComponentPad*
%ADD11O,2.000000X1.700000*%
G04 #@! TD*
G04 #@! TA.AperFunction,ComponentPad*
%ADD12R,1.200000X1.200000*%
G04 #@! TD*
G04 #@! TA.AperFunction,ComponentPad*
%ADD13C,1.200000*%
G04 #@! TD*
G04 #@! TA.AperFunction,ComponentPad*
%ADD14C,3.450000*%
G04 #@! TD*
G04 #@! TA.AperFunction,ViaPad*
%ADD15C,0.800000*%
G04 #@! TD*
G04 #@! TA.AperFunction,ViaPad*
%ADD16C,0.400000*%
G04 #@! TD*
G04 #@! TA.AperFunction,Conductor*
%ADD17C,0.200000*%
G04 #@! TD*
G04 #@! TA.AperFunction,Conductor*
%ADD18C,0.700000*%
G04 #@! TD*
G04 APERTURE END LIST*
D10*
X149150000Y-74948000D03*
X160850000Y-74948000D03*
D11*
X161050000Y-85200000D03*
G04 #@! TA.AperFunction,ComponentPad*
G36*
G01*
X161800000Y-88550000D02*
X160300000Y-88550000D01*
G75*
G02*
X160050000Y-88300000I0J250000D01*
G01*
X160050000Y-87100000D01*
G75*
G02*
X160300000Y-86850000I250000J0D01*
G01*
X161800000Y-86850000D01*
G75*
G02*
X162050000Y-87100000I0J-250000D01*
G01*
X162050000Y-88300000D01*
G75*
G02*
X161800000Y-88550000I-250000J0D01*
G01*
G37*
G04 #@! TD.AperFunction*
D12*
X151500000Y-97194000D03*
D13*
X154000000Y-97194000D03*
X156000000Y-97194000D03*
X158500000Y-97194000D03*
X159000000Y-95694000D03*
X157000000Y-95694000D03*
X155000000Y-95694000D03*
X153000000Y-95694000D03*
X151000000Y-95694000D03*
D14*
X148430000Y-99194000D03*
X161570000Y-99194000D03*
D15*
X146000000Y-91000000D03*
X146000000Y-79000000D03*
X146000000Y-85000000D03*
X164000000Y-73000000D03*
X164000000Y-85000000D03*
X164000000Y-103000000D03*
X164000000Y-91000000D03*
X164000000Y-97000000D03*
X164000000Y-79000000D03*
D16*
X153400000Y-88500000D03*
X150700000Y-90400000D03*
D15*
X153400000Y-92500000D03*
X150600000Y-92500000D03*
D16*
X149600000Y-88400000D03*
D15*
X156500000Y-92500000D03*
X158500000Y-75800000D03*
D16*
X156500000Y-80800000D03*
X153400000Y-80800000D03*
X156500000Y-90400000D03*
X156500000Y-88500000D03*
X153450000Y-90400000D03*
X154100000Y-84800000D03*
X152900000Y-84800000D03*
X149600000Y-84900000D03*
X149600000Y-86600000D03*
X151100000Y-84900000D03*
X158100000Y-78800000D03*
X155950000Y-84800000D03*
X157100000Y-84800000D03*
D15*
X146000000Y-109000000D03*
X164000000Y-109000000D03*
X152000000Y-109000000D03*
X158000000Y-109000000D03*
X146000000Y-103000000D03*
X146000000Y-97000000D03*
X146000000Y-73000000D03*
X152000000Y-73000000D03*
X158000000Y-73000000D03*
X155000000Y-100000000D03*
X155000000Y-105000000D03*
X155000000Y-75000000D03*
D16*
X151100000Y-80800000D03*
X151100000Y-82900000D03*
D15*
X161000000Y-90000000D03*
D16*
X148650000Y-88250000D03*
X148650000Y-89650000D03*
X157300000Y-89575000D03*
X148600000Y-82100000D03*
X157100000Y-86700000D03*
D15*
X147600000Y-84000000D03*
X155000000Y-79600000D03*
X154000000Y-79000000D03*
X153000000Y-79600000D03*
X156000000Y-79000000D03*
X157000000Y-79600000D03*
D16*
X150600000Y-86650000D03*
X153450000Y-86650000D03*
D15*
X152000000Y-79000000D03*
X152000000Y-81900000D03*
X159000000Y-79600000D03*
X151000000Y-79600000D03*
D17*
X148650000Y-88250000D02*
X148650000Y-89650000D01*
X157300000Y-89575000D02*
X159025000Y-89575000D01*
X159025000Y-89575000D02*
X160425000Y-88175000D01*
D18*
X150803998Y-97200000D02*
X151500000Y-97200000D01*
X147600000Y-84000000D02*
X147600000Y-93996002D01*
X147600000Y-93996002D02*
X150803998Y-97200000D01*
D17*
X156736001Y-78299999D02*
X157700001Y-79263999D01*
X151263999Y-78299999D02*
X156736001Y-78299999D01*
X148600000Y-80963998D02*
X151263999Y-78299999D01*
X148600000Y-82100000D02*
X148600000Y-80963998D01*
X157700001Y-79263999D02*
X157700001Y-85750001D01*
X157100000Y-86700000D02*
X157300001Y-86500001D01*
X157300001Y-86500001D02*
X157700001Y-86100001D01*
X157700001Y-85750001D02*
X157700001Y-86100001D01*
X155000000Y-79600000D02*
X155000000Y-95650000D01*
D18*
X152000000Y-79000000D02*
X152000000Y-81900000D01*
D17*
X152000000Y-85200000D02*
X153450000Y-86650000D01*
X152000000Y-81900000D02*
X152000000Y-85200000D01*
X152000000Y-85250000D02*
X150600000Y-86650000D01*
X152000000Y-81900000D02*
X152000000Y-85250000D01*
M02*
