G04 #@! TF.GenerationSoftware,KiCad,Pcbnew,5.1.10-88a1d61d58~88~ubuntu18.04.1*
G04 #@! TF.CreationDate,2021-09-16T14:54:05+02:00*
G04 #@! TF.ProjectId,GPIO-USB-Switch,4750494f-2d55-4534-922d-537769746368,rev?*
G04 #@! TF.SameCoordinates,Original*
G04 #@! TF.FileFunction,Soldermask,Top*
G04 #@! TF.FilePolarity,Negative*
%FSLAX46Y46*%
G04 Gerber Fmt 4.6, Leading zero omitted, Abs format (unit mm)*
G04 Created by KiCad (PCBNEW 5.1.10-88a1d61d58~88~ubuntu18.04.1) date 2021-09-16 14:54:05*
%MOMM*%
%LPD*%
G01*
G04 APERTURE LIST*
%ADD10R,0.900000X0.800000*%
%ADD11C,1.100000*%
%ADD12O,1.803200X3.403200*%
%ADD13O,2.000000X1.700000*%
%ADD14R,1.200000X1.200000*%
%ADD15C,1.200000*%
%ADD16C,3.450000*%
G04 APERTURE END LIST*
D10*
X148600000Y-82900000D03*
X150600000Y-81950000D03*
X150600000Y-83850000D03*
D11*
X157250000Y-74948000D03*
X152750000Y-74948000D03*
G36*
G01*
X151350000Y-78399600D02*
X150650000Y-78399600D01*
G75*
G02*
X150548400Y-78298000I0J101600D01*
G01*
X150548400Y-76498000D01*
G75*
G02*
X150650000Y-76396400I101600J0D01*
G01*
X151350000Y-76396400D01*
G75*
G02*
X151451600Y-76498000I0J-101600D01*
G01*
X151451600Y-78298000D01*
G75*
G02*
X151350000Y-78399600I-101600J0D01*
G01*
G37*
G36*
G01*
X159350000Y-78399600D02*
X158650000Y-78399600D01*
G75*
G02*
X158548400Y-78298000I0J101600D01*
G01*
X158548400Y-76498000D01*
G75*
G02*
X158650000Y-76396400I101600J0D01*
G01*
X159350000Y-76396400D01*
G75*
G02*
X159451600Y-76498000I0J-101600D01*
G01*
X159451600Y-78298000D01*
G75*
G02*
X159350000Y-78399600I-101600J0D01*
G01*
G37*
G36*
G01*
X152350000Y-78399600D02*
X151650000Y-78399600D01*
G75*
G02*
X151548400Y-78298000I0J101600D01*
G01*
X151548400Y-76498000D01*
G75*
G02*
X151650000Y-76396400I101600J0D01*
G01*
X152350000Y-76396400D01*
G75*
G02*
X152451600Y-76498000I0J-101600D01*
G01*
X152451600Y-78298000D01*
G75*
G02*
X152350000Y-78399600I-101600J0D01*
G01*
G37*
G36*
G01*
X158350000Y-78399600D02*
X157650000Y-78399600D01*
G75*
G02*
X157548400Y-78298000I0J101600D01*
G01*
X157548400Y-76498000D01*
G75*
G02*
X157650000Y-76396400I101600J0D01*
G01*
X158350000Y-76396400D01*
G75*
G02*
X158451600Y-76498000I0J-101600D01*
G01*
X158451600Y-78298000D01*
G75*
G02*
X158350000Y-78399600I-101600J0D01*
G01*
G37*
G36*
G01*
X157350000Y-78399600D02*
X156650000Y-78399600D01*
G75*
G02*
X156548400Y-78298000I0J101600D01*
G01*
X156548400Y-76498000D01*
G75*
G02*
X156650000Y-76396400I101600J0D01*
G01*
X157350000Y-76396400D01*
G75*
G02*
X157451600Y-76498000I0J-101600D01*
G01*
X157451600Y-78298000D01*
G75*
G02*
X157350000Y-78399600I-101600J0D01*
G01*
G37*
G36*
G01*
X156350000Y-78399600D02*
X155650000Y-78399600D01*
G75*
G02*
X155548400Y-78298000I0J101600D01*
G01*
X155548400Y-76498000D01*
G75*
G02*
X155650000Y-76396400I101600J0D01*
G01*
X156350000Y-76396400D01*
G75*
G02*
X156451600Y-76498000I0J-101600D01*
G01*
X156451600Y-78298000D01*
G75*
G02*
X156350000Y-78399600I-101600J0D01*
G01*
G37*
G36*
G01*
X153350000Y-78399600D02*
X152650000Y-78399600D01*
G75*
G02*
X152548400Y-78298000I0J101600D01*
G01*
X152548400Y-76498000D01*
G75*
G02*
X152650000Y-76396400I101600J0D01*
G01*
X153350000Y-76396400D01*
G75*
G02*
X153451600Y-76498000I0J-101600D01*
G01*
X153451600Y-78298000D01*
G75*
G02*
X153350000Y-78399600I-101600J0D01*
G01*
G37*
G36*
G01*
X154350000Y-78399600D02*
X153650000Y-78399600D01*
G75*
G02*
X153548400Y-78298000I0J101600D01*
G01*
X153548400Y-76498000D01*
G75*
G02*
X153650000Y-76396400I101600J0D01*
G01*
X154350000Y-76396400D01*
G75*
G02*
X154451600Y-76498000I0J-101600D01*
G01*
X154451600Y-78298000D01*
G75*
G02*
X154350000Y-78399600I-101600J0D01*
G01*
G37*
G36*
G01*
X155350000Y-78399600D02*
X154650000Y-78399600D01*
G75*
G02*
X154548400Y-78298000I0J101600D01*
G01*
X154548400Y-76498000D01*
G75*
G02*
X154650000Y-76396400I101600J0D01*
G01*
X155350000Y-76396400D01*
G75*
G02*
X155451600Y-76498000I0J-101600D01*
G01*
X155451600Y-78298000D01*
G75*
G02*
X155350000Y-78399600I-101600J0D01*
G01*
G37*
D12*
X149150000Y-74948000D03*
X160850000Y-74948000D03*
G36*
G01*
X153193750Y-83250000D02*
X153706250Y-83250000D01*
G75*
G02*
X153925000Y-83468750I0J-218750D01*
G01*
X153925000Y-83906250D01*
G75*
G02*
X153706250Y-84125000I-218750J0D01*
G01*
X153193750Y-84125000D01*
G75*
G02*
X152975000Y-83906250I0J218750D01*
G01*
X152975000Y-83468750D01*
G75*
G02*
X153193750Y-83250000I218750J0D01*
G01*
G37*
G36*
G01*
X153193750Y-81675000D02*
X153706250Y-81675000D01*
G75*
G02*
X153925000Y-81893750I0J-218750D01*
G01*
X153925000Y-82331250D01*
G75*
G02*
X153706250Y-82550000I-218750J0D01*
G01*
X153193750Y-82550000D01*
G75*
G02*
X152975000Y-82331250I0J218750D01*
G01*
X152975000Y-81893750D01*
G75*
G02*
X153193750Y-81675000I218750J0D01*
G01*
G37*
G36*
G01*
X156775000Y-86225000D02*
X156225000Y-86225000D01*
G75*
G02*
X156025000Y-86025000I0J200000D01*
G01*
X156025000Y-85625000D01*
G75*
G02*
X156225000Y-85425000I200000J0D01*
G01*
X156775000Y-85425000D01*
G75*
G02*
X156975000Y-85625000I0J-200000D01*
G01*
X156975000Y-86025000D01*
G75*
G02*
X156775000Y-86225000I-200000J0D01*
G01*
G37*
G36*
G01*
X156775000Y-87875000D02*
X156225000Y-87875000D01*
G75*
G02*
X156025000Y-87675000I0J200000D01*
G01*
X156025000Y-87275000D01*
G75*
G02*
X156225000Y-87075000I200000J0D01*
G01*
X156775000Y-87075000D01*
G75*
G02*
X156975000Y-87275000I0J-200000D01*
G01*
X156975000Y-87675000D01*
G75*
G02*
X156775000Y-87875000I-200000J0D01*
G01*
G37*
G36*
G01*
X150325000Y-87075000D02*
X150875000Y-87075000D01*
G75*
G02*
X151075000Y-87275000I0J-200000D01*
G01*
X151075000Y-87675000D01*
G75*
G02*
X150875000Y-87875000I-200000J0D01*
G01*
X150325000Y-87875000D01*
G75*
G02*
X150125000Y-87675000I0J200000D01*
G01*
X150125000Y-87275000D01*
G75*
G02*
X150325000Y-87075000I200000J0D01*
G01*
G37*
G36*
G01*
X150325000Y-85425000D02*
X150875000Y-85425000D01*
G75*
G02*
X151075000Y-85625000I0J-200000D01*
G01*
X151075000Y-86025000D01*
G75*
G02*
X150875000Y-86225000I-200000J0D01*
G01*
X150325000Y-86225000D01*
G75*
G02*
X150125000Y-86025000I0J200000D01*
G01*
X150125000Y-85625000D01*
G75*
G02*
X150325000Y-85425000I200000J0D01*
G01*
G37*
G36*
G01*
X153175000Y-87075000D02*
X153725000Y-87075000D01*
G75*
G02*
X153925000Y-87275000I0J-200000D01*
G01*
X153925000Y-87675000D01*
G75*
G02*
X153725000Y-87875000I-200000J0D01*
G01*
X153175000Y-87875000D01*
G75*
G02*
X152975000Y-87675000I0J200000D01*
G01*
X152975000Y-87275000D01*
G75*
G02*
X153175000Y-87075000I200000J0D01*
G01*
G37*
G36*
G01*
X153175000Y-85425000D02*
X153725000Y-85425000D01*
G75*
G02*
X153925000Y-85625000I0J-200000D01*
G01*
X153925000Y-86025000D01*
G75*
G02*
X153725000Y-86225000I-200000J0D01*
G01*
X153175000Y-86225000D01*
G75*
G02*
X152975000Y-86025000I0J200000D01*
G01*
X152975000Y-85625000D01*
G75*
G02*
X153175000Y-85425000I200000J0D01*
G01*
G37*
G36*
G01*
X148975000Y-86225000D02*
X148425000Y-86225000D01*
G75*
G02*
X148225000Y-86025000I0J200000D01*
G01*
X148225000Y-85625000D01*
G75*
G02*
X148425000Y-85425000I200000J0D01*
G01*
X148975000Y-85425000D01*
G75*
G02*
X149175000Y-85625000I0J-200000D01*
G01*
X149175000Y-86025000D01*
G75*
G02*
X148975000Y-86225000I-200000J0D01*
G01*
G37*
G36*
G01*
X148975000Y-87875000D02*
X148425000Y-87875000D01*
G75*
G02*
X148225000Y-87675000I0J200000D01*
G01*
X148225000Y-87275000D01*
G75*
G02*
X148425000Y-87075000I200000J0D01*
G01*
X148975000Y-87075000D01*
G75*
G02*
X149175000Y-87275000I0J-200000D01*
G01*
X149175000Y-87675000D01*
G75*
G02*
X148975000Y-87875000I-200000J0D01*
G01*
G37*
G36*
G01*
X153175000Y-90825000D02*
X153725000Y-90825000D01*
G75*
G02*
X153925000Y-91025000I0J-200000D01*
G01*
X153925000Y-91425000D01*
G75*
G02*
X153725000Y-91625000I-200000J0D01*
G01*
X153175000Y-91625000D01*
G75*
G02*
X152975000Y-91425000I0J200000D01*
G01*
X152975000Y-91025000D01*
G75*
G02*
X153175000Y-90825000I200000J0D01*
G01*
G37*
G36*
G01*
X153175000Y-89175000D02*
X153725000Y-89175000D01*
G75*
G02*
X153925000Y-89375000I0J-200000D01*
G01*
X153925000Y-89775000D01*
G75*
G02*
X153725000Y-89975000I-200000J0D01*
G01*
X153175000Y-89975000D01*
G75*
G02*
X152975000Y-89775000I0J200000D01*
G01*
X152975000Y-89375000D01*
G75*
G02*
X153175000Y-89175000I200000J0D01*
G01*
G37*
G36*
G01*
X156775000Y-89975000D02*
X156225000Y-89975000D01*
G75*
G02*
X156025000Y-89775000I0J200000D01*
G01*
X156025000Y-89375000D01*
G75*
G02*
X156225000Y-89175000I200000J0D01*
G01*
X156775000Y-89175000D01*
G75*
G02*
X156975000Y-89375000I0J-200000D01*
G01*
X156975000Y-89775000D01*
G75*
G02*
X156775000Y-89975000I-200000J0D01*
G01*
G37*
G36*
G01*
X156775000Y-91625000D02*
X156225000Y-91625000D01*
G75*
G02*
X156025000Y-91425000I0J200000D01*
G01*
X156025000Y-91025000D01*
G75*
G02*
X156225000Y-90825000I200000J0D01*
G01*
X156775000Y-90825000D01*
G75*
G02*
X156975000Y-91025000I0J-200000D01*
G01*
X156975000Y-91425000D01*
G75*
G02*
X156775000Y-91625000I-200000J0D01*
G01*
G37*
G36*
G01*
X156243750Y-83250000D02*
X156756250Y-83250000D01*
G75*
G02*
X156975000Y-83468750I0J-218750D01*
G01*
X156975000Y-83906250D01*
G75*
G02*
X156756250Y-84125000I-218750J0D01*
G01*
X156243750Y-84125000D01*
G75*
G02*
X156025000Y-83906250I0J218750D01*
G01*
X156025000Y-83468750D01*
G75*
G02*
X156243750Y-83250000I218750J0D01*
G01*
G37*
G36*
G01*
X156243750Y-81675000D02*
X156756250Y-81675000D01*
G75*
G02*
X156975000Y-81893750I0J-218750D01*
G01*
X156975000Y-82331250D01*
G75*
G02*
X156756250Y-82550000I-218750J0D01*
G01*
X156243750Y-82550000D01*
G75*
G02*
X156025000Y-82331250I0J218750D01*
G01*
X156025000Y-81893750D01*
G75*
G02*
X156243750Y-81675000I218750J0D01*
G01*
G37*
D10*
X148650000Y-90450000D03*
X150650000Y-89500000D03*
X150650000Y-91400000D03*
D13*
X161050000Y-85200000D03*
G36*
G01*
X161800000Y-88550000D02*
X160300000Y-88550000D01*
G75*
G02*
X160050000Y-88300000I0J250000D01*
G01*
X160050000Y-87100000D01*
G75*
G02*
X160300000Y-86850000I250000J0D01*
G01*
X161800000Y-86850000D01*
G75*
G02*
X162050000Y-87100000I0J-250000D01*
G01*
X162050000Y-88300000D01*
G75*
G02*
X161800000Y-88550000I-250000J0D01*
G01*
G37*
D14*
X151500000Y-97194000D03*
D15*
X154000000Y-97194000D03*
X156000000Y-97194000D03*
X158500000Y-97194000D03*
X159000000Y-95694000D03*
X157000000Y-95694000D03*
X155000000Y-95694000D03*
X153000000Y-95694000D03*
X151000000Y-95694000D03*
D16*
X148430000Y-99194000D03*
X161570000Y-99194000D03*
M02*
