G04 #@! TF.GenerationSoftware,KiCad,Pcbnew,5.1.10-88a1d61d58~88~ubuntu18.04.1*
G04 #@! TF.CreationDate,2021-09-17T16:00:13+02:00*
G04 #@! TF.ProjectId,GPIO-USB-Switch,4750494f-2d55-4534-922d-537769746368,rev?*
G04 #@! TF.SameCoordinates,Original*
G04 #@! TF.FileFunction,Copper,L1,Top*
G04 #@! TF.FilePolarity,Positive*
%FSLAX46Y46*%
G04 Gerber Fmt 4.6, Leading zero omitted, Abs format (unit mm)*
G04 Created by KiCad (PCBNEW 5.1.10-88a1d61d58~88~ubuntu18.04.1) date 2021-09-17 16:00:13*
%MOMM*%
%LPD*%
G01*
G04 APERTURE LIST*
G04 #@! TA.AperFunction,SMDPad,CuDef*
%ADD10R,0.900000X0.800000*%
G04 #@! TD*
G04 #@! TA.AperFunction,SMDPad,CuDef*
%ADD11R,0.700000X1.800000*%
G04 #@! TD*
G04 #@! TA.AperFunction,ComponentPad*
%ADD12O,1.600000X3.200000*%
G04 #@! TD*
G04 #@! TA.AperFunction,ComponentPad*
%ADD13O,2.000000X1.700000*%
G04 #@! TD*
G04 #@! TA.AperFunction,ComponentPad*
%ADD14R,1.200000X1.200000*%
G04 #@! TD*
G04 #@! TA.AperFunction,ComponentPad*
%ADD15C,1.200000*%
G04 #@! TD*
G04 #@! TA.AperFunction,ComponentPad*
%ADD16C,3.450000*%
G04 #@! TD*
G04 #@! TA.AperFunction,ViaPad*
%ADD17C,0.800000*%
G04 #@! TD*
G04 #@! TA.AperFunction,ViaPad*
%ADD18C,0.450000*%
G04 #@! TD*
G04 #@! TA.AperFunction,ViaPad*
%ADD19C,0.500000*%
G04 #@! TD*
G04 #@! TA.AperFunction,ViaPad*
%ADD20C,0.600000*%
G04 #@! TD*
G04 #@! TA.AperFunction,Conductor*
%ADD21C,0.200000*%
G04 #@! TD*
G04 #@! TA.AperFunction,Conductor*
%ADD22C,0.250000*%
G04 #@! TD*
G04 #@! TA.AperFunction,Conductor*
%ADD23C,0.700000*%
G04 #@! TD*
G04 #@! TA.AperFunction,Conductor*
%ADD24C,0.350000*%
G04 #@! TD*
G04 #@! TA.AperFunction,Conductor*
%ADD25C,0.400000*%
G04 #@! TD*
G04 #@! TA.AperFunction,Conductor*
%ADD26C,0.100000*%
G04 #@! TD*
G04 APERTURE END LIST*
D10*
X148600000Y-82900000D03*
X150600000Y-81950000D03*
X150600000Y-83850000D03*
D11*
X151000000Y-77398000D03*
X159000000Y-77398000D03*
X152000000Y-77398000D03*
X158000000Y-77398000D03*
X157000000Y-77398000D03*
X156000000Y-77398000D03*
X153000000Y-77398000D03*
X154000000Y-77398000D03*
X155000000Y-77398000D03*
D12*
X149150000Y-74948000D03*
X160850000Y-74948000D03*
G04 #@! TA.AperFunction,SMDPad,CuDef*
G36*
G01*
X153193750Y-83250000D02*
X153706250Y-83250000D01*
G75*
G02*
X153925000Y-83468750I0J-218750D01*
G01*
X153925000Y-83906250D01*
G75*
G02*
X153706250Y-84125000I-218750J0D01*
G01*
X153193750Y-84125000D01*
G75*
G02*
X152975000Y-83906250I0J218750D01*
G01*
X152975000Y-83468750D01*
G75*
G02*
X153193750Y-83250000I218750J0D01*
G01*
G37*
G04 #@! TD.AperFunction*
G04 #@! TA.AperFunction,SMDPad,CuDef*
G36*
G01*
X153193750Y-81675000D02*
X153706250Y-81675000D01*
G75*
G02*
X153925000Y-81893750I0J-218750D01*
G01*
X153925000Y-82331250D01*
G75*
G02*
X153706250Y-82550000I-218750J0D01*
G01*
X153193750Y-82550000D01*
G75*
G02*
X152975000Y-82331250I0J218750D01*
G01*
X152975000Y-81893750D01*
G75*
G02*
X153193750Y-81675000I218750J0D01*
G01*
G37*
G04 #@! TD.AperFunction*
G04 #@! TA.AperFunction,SMDPad,CuDef*
G36*
G01*
X156775000Y-86225000D02*
X156225000Y-86225000D01*
G75*
G02*
X156025000Y-86025000I0J200000D01*
G01*
X156025000Y-85625000D01*
G75*
G02*
X156225000Y-85425000I200000J0D01*
G01*
X156775000Y-85425000D01*
G75*
G02*
X156975000Y-85625000I0J-200000D01*
G01*
X156975000Y-86025000D01*
G75*
G02*
X156775000Y-86225000I-200000J0D01*
G01*
G37*
G04 #@! TD.AperFunction*
G04 #@! TA.AperFunction,SMDPad,CuDef*
G36*
G01*
X156775000Y-87875000D02*
X156225000Y-87875000D01*
G75*
G02*
X156025000Y-87675000I0J200000D01*
G01*
X156025000Y-87275000D01*
G75*
G02*
X156225000Y-87075000I200000J0D01*
G01*
X156775000Y-87075000D01*
G75*
G02*
X156975000Y-87275000I0J-200000D01*
G01*
X156975000Y-87675000D01*
G75*
G02*
X156775000Y-87875000I-200000J0D01*
G01*
G37*
G04 #@! TD.AperFunction*
G04 #@! TA.AperFunction,SMDPad,CuDef*
G36*
G01*
X150325000Y-87075000D02*
X150875000Y-87075000D01*
G75*
G02*
X151075000Y-87275000I0J-200000D01*
G01*
X151075000Y-87675000D01*
G75*
G02*
X150875000Y-87875000I-200000J0D01*
G01*
X150325000Y-87875000D01*
G75*
G02*
X150125000Y-87675000I0J200000D01*
G01*
X150125000Y-87275000D01*
G75*
G02*
X150325000Y-87075000I200000J0D01*
G01*
G37*
G04 #@! TD.AperFunction*
G04 #@! TA.AperFunction,SMDPad,CuDef*
G36*
G01*
X150325000Y-85425000D02*
X150875000Y-85425000D01*
G75*
G02*
X151075000Y-85625000I0J-200000D01*
G01*
X151075000Y-86025000D01*
G75*
G02*
X150875000Y-86225000I-200000J0D01*
G01*
X150325000Y-86225000D01*
G75*
G02*
X150125000Y-86025000I0J200000D01*
G01*
X150125000Y-85625000D01*
G75*
G02*
X150325000Y-85425000I200000J0D01*
G01*
G37*
G04 #@! TD.AperFunction*
G04 #@! TA.AperFunction,SMDPad,CuDef*
G36*
G01*
X153175000Y-87075000D02*
X153725000Y-87075000D01*
G75*
G02*
X153925000Y-87275000I0J-200000D01*
G01*
X153925000Y-87675000D01*
G75*
G02*
X153725000Y-87875000I-200000J0D01*
G01*
X153175000Y-87875000D01*
G75*
G02*
X152975000Y-87675000I0J200000D01*
G01*
X152975000Y-87275000D01*
G75*
G02*
X153175000Y-87075000I200000J0D01*
G01*
G37*
G04 #@! TD.AperFunction*
G04 #@! TA.AperFunction,SMDPad,CuDef*
G36*
G01*
X153175000Y-85425000D02*
X153725000Y-85425000D01*
G75*
G02*
X153925000Y-85625000I0J-200000D01*
G01*
X153925000Y-86025000D01*
G75*
G02*
X153725000Y-86225000I-200000J0D01*
G01*
X153175000Y-86225000D01*
G75*
G02*
X152975000Y-86025000I0J200000D01*
G01*
X152975000Y-85625000D01*
G75*
G02*
X153175000Y-85425000I200000J0D01*
G01*
G37*
G04 #@! TD.AperFunction*
G04 #@! TA.AperFunction,SMDPad,CuDef*
G36*
G01*
X148975000Y-86225000D02*
X148425000Y-86225000D01*
G75*
G02*
X148225000Y-86025000I0J200000D01*
G01*
X148225000Y-85625000D01*
G75*
G02*
X148425000Y-85425000I200000J0D01*
G01*
X148975000Y-85425000D01*
G75*
G02*
X149175000Y-85625000I0J-200000D01*
G01*
X149175000Y-86025000D01*
G75*
G02*
X148975000Y-86225000I-200000J0D01*
G01*
G37*
G04 #@! TD.AperFunction*
G04 #@! TA.AperFunction,SMDPad,CuDef*
G36*
G01*
X148975000Y-87875000D02*
X148425000Y-87875000D01*
G75*
G02*
X148225000Y-87675000I0J200000D01*
G01*
X148225000Y-87275000D01*
G75*
G02*
X148425000Y-87075000I200000J0D01*
G01*
X148975000Y-87075000D01*
G75*
G02*
X149175000Y-87275000I0J-200000D01*
G01*
X149175000Y-87675000D01*
G75*
G02*
X148975000Y-87875000I-200000J0D01*
G01*
G37*
G04 #@! TD.AperFunction*
G04 #@! TA.AperFunction,SMDPad,CuDef*
G36*
G01*
X153175000Y-90825000D02*
X153725000Y-90825000D01*
G75*
G02*
X153925000Y-91025000I0J-200000D01*
G01*
X153925000Y-91425000D01*
G75*
G02*
X153725000Y-91625000I-200000J0D01*
G01*
X153175000Y-91625000D01*
G75*
G02*
X152975000Y-91425000I0J200000D01*
G01*
X152975000Y-91025000D01*
G75*
G02*
X153175000Y-90825000I200000J0D01*
G01*
G37*
G04 #@! TD.AperFunction*
G04 #@! TA.AperFunction,SMDPad,CuDef*
G36*
G01*
X153175000Y-89175000D02*
X153725000Y-89175000D01*
G75*
G02*
X153925000Y-89375000I0J-200000D01*
G01*
X153925000Y-89775000D01*
G75*
G02*
X153725000Y-89975000I-200000J0D01*
G01*
X153175000Y-89975000D01*
G75*
G02*
X152975000Y-89775000I0J200000D01*
G01*
X152975000Y-89375000D01*
G75*
G02*
X153175000Y-89175000I200000J0D01*
G01*
G37*
G04 #@! TD.AperFunction*
G04 #@! TA.AperFunction,SMDPad,CuDef*
G36*
G01*
X156775000Y-89975000D02*
X156225000Y-89975000D01*
G75*
G02*
X156025000Y-89775000I0J200000D01*
G01*
X156025000Y-89375000D01*
G75*
G02*
X156225000Y-89175000I200000J0D01*
G01*
X156775000Y-89175000D01*
G75*
G02*
X156975000Y-89375000I0J-200000D01*
G01*
X156975000Y-89775000D01*
G75*
G02*
X156775000Y-89975000I-200000J0D01*
G01*
G37*
G04 #@! TD.AperFunction*
G04 #@! TA.AperFunction,SMDPad,CuDef*
G36*
G01*
X156775000Y-91625000D02*
X156225000Y-91625000D01*
G75*
G02*
X156025000Y-91425000I0J200000D01*
G01*
X156025000Y-91025000D01*
G75*
G02*
X156225000Y-90825000I200000J0D01*
G01*
X156775000Y-90825000D01*
G75*
G02*
X156975000Y-91025000I0J-200000D01*
G01*
X156975000Y-91425000D01*
G75*
G02*
X156775000Y-91625000I-200000J0D01*
G01*
G37*
G04 #@! TD.AperFunction*
G04 #@! TA.AperFunction,SMDPad,CuDef*
G36*
G01*
X156243750Y-83250000D02*
X156756250Y-83250000D01*
G75*
G02*
X156975000Y-83468750I0J-218750D01*
G01*
X156975000Y-83906250D01*
G75*
G02*
X156756250Y-84125000I-218750J0D01*
G01*
X156243750Y-84125000D01*
G75*
G02*
X156025000Y-83906250I0J218750D01*
G01*
X156025000Y-83468750D01*
G75*
G02*
X156243750Y-83250000I218750J0D01*
G01*
G37*
G04 #@! TD.AperFunction*
G04 #@! TA.AperFunction,SMDPad,CuDef*
G36*
G01*
X156243750Y-81675000D02*
X156756250Y-81675000D01*
G75*
G02*
X156975000Y-81893750I0J-218750D01*
G01*
X156975000Y-82331250D01*
G75*
G02*
X156756250Y-82550000I-218750J0D01*
G01*
X156243750Y-82550000D01*
G75*
G02*
X156025000Y-82331250I0J218750D01*
G01*
X156025000Y-81893750D01*
G75*
G02*
X156243750Y-81675000I218750J0D01*
G01*
G37*
G04 #@! TD.AperFunction*
D10*
X148650000Y-90450000D03*
X150650000Y-89500000D03*
X150650000Y-91400000D03*
D13*
X161050000Y-85200000D03*
G04 #@! TA.AperFunction,ComponentPad*
G36*
G01*
X161800000Y-88550000D02*
X160300000Y-88550000D01*
G75*
G02*
X160050000Y-88300000I0J250000D01*
G01*
X160050000Y-87100000D01*
G75*
G02*
X160300000Y-86850000I250000J0D01*
G01*
X161800000Y-86850000D01*
G75*
G02*
X162050000Y-87100000I0J-250000D01*
G01*
X162050000Y-88300000D01*
G75*
G02*
X161800000Y-88550000I-250000J0D01*
G01*
G37*
G04 #@! TD.AperFunction*
D14*
X151500000Y-97194000D03*
D15*
X154000000Y-97194000D03*
X156000000Y-97194000D03*
X158500000Y-97194000D03*
X159000000Y-95694000D03*
X157000000Y-95694000D03*
X155000000Y-95694000D03*
X153000000Y-95694000D03*
X151000000Y-95694000D03*
D16*
X148430000Y-99194000D03*
X161570000Y-99194000D03*
D17*
X146000000Y-91000000D03*
X146000000Y-79000000D03*
X146000000Y-85000000D03*
X164000000Y-73000000D03*
X164000000Y-85000000D03*
X164000000Y-103000000D03*
X164000000Y-91000000D03*
X164000000Y-97000000D03*
X164000000Y-79000000D03*
D18*
X153400000Y-88500000D03*
X150700000Y-90400000D03*
D17*
X153400000Y-92500000D03*
X150600000Y-92500000D03*
D18*
X149600000Y-88400000D03*
D17*
X156500000Y-92500000D03*
X158500000Y-75800000D03*
D19*
X156500000Y-80800000D03*
D18*
X153400000Y-80800000D03*
X156200000Y-88500000D03*
X153450000Y-90400000D03*
X153950000Y-84800000D03*
X149600000Y-85100000D03*
X149650000Y-86650000D03*
X150950000Y-84850000D03*
X158200000Y-78850000D03*
X155950000Y-84800000D03*
X157050000Y-84800000D03*
D17*
X146000000Y-109000000D03*
X164000000Y-109000000D03*
X152000000Y-109000000D03*
X158000000Y-109000000D03*
X146000000Y-103000000D03*
X146000000Y-97000000D03*
X146000000Y-73000000D03*
X152000000Y-73000000D03*
X158000000Y-73000000D03*
X155000000Y-100000000D03*
X155000000Y-105000000D03*
X155000000Y-75000000D03*
D18*
X149600000Y-80900000D03*
X150900000Y-82900000D03*
D17*
X161000000Y-90000000D03*
D19*
X148600000Y-82100000D03*
D18*
X157050000Y-86700000D03*
D17*
X147600000Y-84000000D03*
D18*
X146700000Y-88400000D03*
X146700000Y-89500000D03*
X149600000Y-89500000D03*
X148750000Y-84400000D03*
X159400000Y-88100000D03*
X159100000Y-90200000D03*
X157000000Y-88900000D03*
D17*
X155000000Y-79600000D03*
D20*
X154000000Y-79000000D03*
X153000000Y-79600000D03*
X156000000Y-79000000D03*
X157000000Y-79600000D03*
D18*
X150600000Y-86650000D03*
X153450000Y-86650000D03*
D17*
X152000000Y-79000000D03*
X150600000Y-80900000D03*
D20*
X159000000Y-79600000D03*
X151000000Y-79600000D03*
D21*
X153250000Y-91400000D02*
X153450000Y-91200000D01*
X150650000Y-91400000D02*
X153250000Y-91400000D01*
X148650000Y-87600000D02*
X148700000Y-87550000D01*
D22*
X148700000Y-87475000D02*
X148700000Y-90500000D01*
D21*
X153450000Y-89575000D02*
X156525000Y-89575000D01*
D23*
X148600000Y-83000000D02*
X147600000Y-84000000D01*
D21*
X148600000Y-82900000D02*
X148600000Y-82100000D01*
X157000000Y-88900000D02*
X156500000Y-89400000D01*
X156500000Y-89400000D02*
X156500000Y-89600000D01*
X157050000Y-86700000D02*
X156600000Y-87150000D01*
X148700000Y-85825000D02*
X150575000Y-85825000D01*
X150600000Y-85825000D02*
X150600000Y-85650000D01*
X150600000Y-85650000D02*
X150524999Y-85574999D01*
X150600000Y-85825000D02*
X150575000Y-85825000D01*
X150575000Y-85825000D02*
X150350000Y-85600000D01*
X150350000Y-85600000D02*
X150350000Y-84050000D01*
X153450000Y-85825000D02*
X153450000Y-85650000D01*
X153450000Y-85650000D02*
X153350000Y-85550000D01*
X153350000Y-85550000D02*
X153350000Y-84000000D01*
X156500000Y-83637500D02*
X156500000Y-85650000D01*
X156500000Y-85650000D02*
X156550000Y-85700000D01*
D23*
X155000000Y-77398000D02*
X155000000Y-79600000D01*
D24*
X154000000Y-77398000D02*
X154000000Y-79000000D01*
D25*
X153000000Y-77398000D02*
X153000000Y-79600000D01*
D24*
X156000000Y-77398000D02*
X156000000Y-79000000D01*
D25*
X157000000Y-77398000D02*
X157000000Y-79600000D01*
D23*
X152000000Y-79000000D02*
X152000000Y-77800000D01*
D21*
X150600000Y-87475000D02*
X150600000Y-87400000D01*
X153450000Y-87475000D02*
X153450000Y-87450000D01*
X150600000Y-87475000D02*
X150600000Y-86650000D01*
X153450000Y-87475000D02*
X153450000Y-86650000D01*
D23*
X150600000Y-81950000D02*
X150600000Y-81100000D01*
X150600000Y-81100000D02*
X150600000Y-80900000D01*
X150600000Y-80900000D02*
X150600000Y-80900000D01*
D25*
X159000000Y-77398000D02*
X159000000Y-79600000D01*
X151000000Y-77398000D02*
X151000000Y-79600000D01*
D21*
X164675001Y-109675000D02*
X145325000Y-109675000D01*
X145325000Y-98994555D01*
X146405000Y-98994555D01*
X146405000Y-99393445D01*
X146482820Y-99784671D01*
X146635468Y-100153197D01*
X146857080Y-100484862D01*
X147139138Y-100766920D01*
X147470803Y-100988532D01*
X147839329Y-101141180D01*
X148230555Y-101219000D01*
X148629445Y-101219000D01*
X149020671Y-101141180D01*
X149389197Y-100988532D01*
X149720862Y-100766920D01*
X150002920Y-100484862D01*
X150224532Y-100153197D01*
X150377180Y-99784671D01*
X150455000Y-99393445D01*
X150455000Y-98994555D01*
X159545000Y-98994555D01*
X159545000Y-99393445D01*
X159622820Y-99784671D01*
X159775468Y-100153197D01*
X159997080Y-100484862D01*
X160279138Y-100766920D01*
X160610803Y-100988532D01*
X160979329Y-101141180D01*
X161370555Y-101219000D01*
X161769445Y-101219000D01*
X162160671Y-101141180D01*
X162529197Y-100988532D01*
X162860862Y-100766920D01*
X163142920Y-100484862D01*
X163364532Y-100153197D01*
X163517180Y-99784671D01*
X163595000Y-99393445D01*
X163595000Y-98994555D01*
X163517180Y-98603329D01*
X163364532Y-98234803D01*
X163142920Y-97903138D01*
X162860862Y-97621080D01*
X162529197Y-97399468D01*
X162160671Y-97246820D01*
X161769445Y-97169000D01*
X161370555Y-97169000D01*
X160979329Y-97246820D01*
X160610803Y-97399468D01*
X160279138Y-97621080D01*
X159997080Y-97903138D01*
X159775468Y-98234803D01*
X159622820Y-98603329D01*
X159545000Y-98994555D01*
X150455000Y-98994555D01*
X150377180Y-98603329D01*
X150224532Y-98234803D01*
X150002920Y-97903138D01*
X149720862Y-97621080D01*
X149389197Y-97399468D01*
X149020671Y-97246820D01*
X148629445Y-97169000D01*
X148230555Y-97169000D01*
X147839329Y-97246820D01*
X147470803Y-97399468D01*
X147139138Y-97621080D01*
X146857080Y-97903138D01*
X146635468Y-98234803D01*
X146482820Y-98603329D01*
X146405000Y-98994555D01*
X145325000Y-98994555D01*
X145325000Y-95605358D01*
X150100000Y-95605358D01*
X150100000Y-95782642D01*
X150134586Y-95956520D01*
X150202430Y-96120310D01*
X150300924Y-96267717D01*
X150426283Y-96393076D01*
X150573690Y-96491570D01*
X150612675Y-96507718D01*
X150604341Y-96535190D01*
X150598549Y-96594000D01*
X150598549Y-97794000D01*
X150604341Y-97852810D01*
X150621496Y-97909360D01*
X150649353Y-97961477D01*
X150686842Y-98007158D01*
X150732523Y-98044647D01*
X150784640Y-98072504D01*
X150841190Y-98089659D01*
X150900000Y-98095451D01*
X152100000Y-98095451D01*
X152158810Y-98089659D01*
X152215360Y-98072504D01*
X152267477Y-98044647D01*
X152313158Y-98007158D01*
X152350647Y-97961477D01*
X152378504Y-97909360D01*
X152395659Y-97852810D01*
X152401451Y-97794000D01*
X152401451Y-97105358D01*
X153100000Y-97105358D01*
X153100000Y-97282642D01*
X153134586Y-97456520D01*
X153202430Y-97620310D01*
X153300924Y-97767717D01*
X153426283Y-97893076D01*
X153573690Y-97991570D01*
X153737480Y-98059414D01*
X153911358Y-98094000D01*
X154088642Y-98094000D01*
X154262520Y-98059414D01*
X154426310Y-97991570D01*
X154573717Y-97893076D01*
X154699076Y-97767717D01*
X154797570Y-97620310D01*
X154865414Y-97456520D01*
X154900000Y-97282642D01*
X154900000Y-97105358D01*
X155100000Y-97105358D01*
X155100000Y-97282642D01*
X155134586Y-97456520D01*
X155202430Y-97620310D01*
X155300924Y-97767717D01*
X155426283Y-97893076D01*
X155573690Y-97991570D01*
X155737480Y-98059414D01*
X155911358Y-98094000D01*
X156088642Y-98094000D01*
X156262520Y-98059414D01*
X156295401Y-98045794D01*
X157865995Y-98045794D01*
X157916874Y-98258604D01*
X158135773Y-98351911D01*
X158368668Y-98400719D01*
X158606611Y-98403155D01*
X158840457Y-98359122D01*
X159061219Y-98270314D01*
X159083126Y-98258604D01*
X159134005Y-98045794D01*
X158500000Y-97411789D01*
X157865995Y-98045794D01*
X156295401Y-98045794D01*
X156426310Y-97991570D01*
X156573717Y-97893076D01*
X156699076Y-97767717D01*
X156797570Y-97620310D01*
X156865414Y-97456520D01*
X156896425Y-97300611D01*
X157290845Y-97300611D01*
X157334878Y-97534457D01*
X157423686Y-97755219D01*
X157435396Y-97777126D01*
X157648206Y-97828005D01*
X158282211Y-97194000D01*
X157648206Y-96559995D01*
X157435396Y-96610874D01*
X157342089Y-96829773D01*
X157293281Y-97062668D01*
X157290845Y-97300611D01*
X156896425Y-97300611D01*
X156900000Y-97282642D01*
X156900000Y-97105358D01*
X156865414Y-96931480D01*
X156797570Y-96767690D01*
X156699076Y-96620283D01*
X156573717Y-96494924D01*
X156426310Y-96396430D01*
X156262520Y-96328586D01*
X156088642Y-96294000D01*
X155911358Y-96294000D01*
X155737480Y-96328586D01*
X155573690Y-96396430D01*
X155426283Y-96494924D01*
X155300924Y-96620283D01*
X155202430Y-96767690D01*
X155134586Y-96931480D01*
X155100000Y-97105358D01*
X154900000Y-97105358D01*
X154865414Y-96931480D01*
X154797570Y-96767690D01*
X154699076Y-96620283D01*
X154573717Y-96494924D01*
X154426310Y-96396430D01*
X154262520Y-96328586D01*
X154088642Y-96294000D01*
X153911358Y-96294000D01*
X153737480Y-96328586D01*
X153573690Y-96396430D01*
X153426283Y-96494924D01*
X153300924Y-96620283D01*
X153202430Y-96767690D01*
X153134586Y-96931480D01*
X153100000Y-97105358D01*
X152401451Y-97105358D01*
X152401451Y-96594000D01*
X152395659Y-96535190D01*
X152378504Y-96478640D01*
X152350647Y-96426523D01*
X152313158Y-96380842D01*
X152267477Y-96343353D01*
X152215360Y-96315496D01*
X152158810Y-96298341D01*
X152100000Y-96292549D01*
X151674244Y-96292549D01*
X151699076Y-96267717D01*
X151797570Y-96120310D01*
X151865414Y-95956520D01*
X151900000Y-95782642D01*
X151900000Y-95605358D01*
X152100000Y-95605358D01*
X152100000Y-95782642D01*
X152134586Y-95956520D01*
X152202430Y-96120310D01*
X152300924Y-96267717D01*
X152426283Y-96393076D01*
X152573690Y-96491570D01*
X152737480Y-96559414D01*
X152911358Y-96594000D01*
X153088642Y-96594000D01*
X153262520Y-96559414D01*
X153426310Y-96491570D01*
X153573717Y-96393076D01*
X153699076Y-96267717D01*
X153797570Y-96120310D01*
X153865414Y-95956520D01*
X153900000Y-95782642D01*
X153900000Y-95605358D01*
X154100000Y-95605358D01*
X154100000Y-95782642D01*
X154134586Y-95956520D01*
X154202430Y-96120310D01*
X154300924Y-96267717D01*
X154426283Y-96393076D01*
X154573690Y-96491570D01*
X154737480Y-96559414D01*
X154911358Y-96594000D01*
X155088642Y-96594000D01*
X155262520Y-96559414D01*
X155426310Y-96491570D01*
X155573717Y-96393076D01*
X155699076Y-96267717D01*
X155797570Y-96120310D01*
X155865414Y-95956520D01*
X155900000Y-95782642D01*
X155900000Y-95605358D01*
X156100000Y-95605358D01*
X156100000Y-95782642D01*
X156134586Y-95956520D01*
X156202430Y-96120310D01*
X156300924Y-96267717D01*
X156426283Y-96393076D01*
X156573690Y-96491570D01*
X156737480Y-96559414D01*
X156911358Y-96594000D01*
X157088642Y-96594000D01*
X157262520Y-96559414D01*
X157426310Y-96491570D01*
X157573717Y-96393076D01*
X157624587Y-96342206D01*
X157865995Y-96342206D01*
X158500000Y-96976211D01*
X158514142Y-96962069D01*
X158731931Y-97179858D01*
X158717789Y-97194000D01*
X159351794Y-97828005D01*
X159564604Y-97777126D01*
X159657911Y-97558227D01*
X159706719Y-97325332D01*
X159709155Y-97087389D01*
X159665122Y-96853543D01*
X159576314Y-96632781D01*
X159564604Y-96610874D01*
X159351796Y-96559996D01*
X159415917Y-96495875D01*
X159426310Y-96491570D01*
X159573717Y-96393076D01*
X159699076Y-96267717D01*
X159797570Y-96120310D01*
X159865414Y-95956520D01*
X159900000Y-95782642D01*
X159900000Y-95605358D01*
X159865414Y-95431480D01*
X159797570Y-95267690D01*
X159699076Y-95120283D01*
X159573717Y-94994924D01*
X159426310Y-94896430D01*
X159262520Y-94828586D01*
X159088642Y-94794000D01*
X158911358Y-94794000D01*
X158737480Y-94828586D01*
X158573690Y-94896430D01*
X158426283Y-94994924D01*
X158300924Y-95120283D01*
X158202430Y-95267690D01*
X158134586Y-95431480D01*
X158100000Y-95605358D01*
X158100000Y-95782642D01*
X158134586Y-95956520D01*
X158164195Y-96028002D01*
X158159543Y-96028878D01*
X157938781Y-96117686D01*
X157916874Y-96129396D01*
X157865995Y-96342206D01*
X157624587Y-96342206D01*
X157699076Y-96267717D01*
X157797570Y-96120310D01*
X157865414Y-95956520D01*
X157900000Y-95782642D01*
X157900000Y-95605358D01*
X157865414Y-95431480D01*
X157797570Y-95267690D01*
X157699076Y-95120283D01*
X157573717Y-94994924D01*
X157426310Y-94896430D01*
X157262520Y-94828586D01*
X157088642Y-94794000D01*
X156911358Y-94794000D01*
X156737480Y-94828586D01*
X156573690Y-94896430D01*
X156426283Y-94994924D01*
X156300924Y-95120283D01*
X156202430Y-95267690D01*
X156134586Y-95431480D01*
X156100000Y-95605358D01*
X155900000Y-95605358D01*
X155865414Y-95431480D01*
X155797570Y-95267690D01*
X155699076Y-95120283D01*
X155573717Y-94994924D01*
X155426310Y-94896430D01*
X155262520Y-94828586D01*
X155088642Y-94794000D01*
X154911358Y-94794000D01*
X154737480Y-94828586D01*
X154573690Y-94896430D01*
X154426283Y-94994924D01*
X154300924Y-95120283D01*
X154202430Y-95267690D01*
X154134586Y-95431480D01*
X154100000Y-95605358D01*
X153900000Y-95605358D01*
X153865414Y-95431480D01*
X153797570Y-95267690D01*
X153699076Y-95120283D01*
X153573717Y-94994924D01*
X153426310Y-94896430D01*
X153262520Y-94828586D01*
X153088642Y-94794000D01*
X152911358Y-94794000D01*
X152737480Y-94828586D01*
X152573690Y-94896430D01*
X152426283Y-94994924D01*
X152300924Y-95120283D01*
X152202430Y-95267690D01*
X152134586Y-95431480D01*
X152100000Y-95605358D01*
X151900000Y-95605358D01*
X151865414Y-95431480D01*
X151797570Y-95267690D01*
X151699076Y-95120283D01*
X151573717Y-94994924D01*
X151426310Y-94896430D01*
X151262520Y-94828586D01*
X151088642Y-94794000D01*
X150911358Y-94794000D01*
X150737480Y-94828586D01*
X150573690Y-94896430D01*
X150426283Y-94994924D01*
X150300924Y-95120283D01*
X150202430Y-95267690D01*
X150134586Y-95431480D01*
X150100000Y-95605358D01*
X145325000Y-95605358D01*
X145325000Y-90050000D01*
X147898549Y-90050000D01*
X147898549Y-90850000D01*
X147904341Y-90908810D01*
X147921496Y-90965360D01*
X147949353Y-91017477D01*
X147986842Y-91063158D01*
X148032523Y-91100647D01*
X148084640Y-91128504D01*
X148141190Y-91145659D01*
X148200000Y-91151451D01*
X149100000Y-91151451D01*
X149158810Y-91145659D01*
X149215360Y-91128504D01*
X149267477Y-91100647D01*
X149313158Y-91063158D01*
X149350647Y-91017477D01*
X149359988Y-91000000D01*
X149898549Y-91000000D01*
X149898549Y-91800000D01*
X149904341Y-91858810D01*
X149921496Y-91915360D01*
X149949353Y-91967477D01*
X149986842Y-92013158D01*
X150032523Y-92050647D01*
X150084640Y-92078504D01*
X150141190Y-92095659D01*
X150200000Y-92101451D01*
X151100000Y-92101451D01*
X151158810Y-92095659D01*
X151215360Y-92078504D01*
X151267477Y-92050647D01*
X151313158Y-92013158D01*
X151350647Y-91967477D01*
X151378504Y-91915360D01*
X151395659Y-91858810D01*
X151401451Y-91800000D01*
X152845304Y-91800000D01*
X152896409Y-91841941D01*
X152983103Y-91888280D01*
X153077172Y-91916816D01*
X153175000Y-91926451D01*
X153725000Y-91926451D01*
X153822828Y-91916816D01*
X153916897Y-91888280D01*
X154003591Y-91841941D01*
X154079579Y-91779579D01*
X154141941Y-91703591D01*
X154183948Y-91625000D01*
X155414058Y-91625000D01*
X155425797Y-91744189D01*
X155460563Y-91858797D01*
X155517020Y-91964421D01*
X155592999Y-92057001D01*
X155685579Y-92132980D01*
X155791203Y-92189437D01*
X155905811Y-92224203D01*
X156025000Y-92235942D01*
X156194000Y-92233000D01*
X156346000Y-92081000D01*
X156346000Y-91379000D01*
X156654000Y-91379000D01*
X156654000Y-92081000D01*
X156806000Y-92233000D01*
X156975000Y-92235942D01*
X157094189Y-92224203D01*
X157208797Y-92189437D01*
X157314421Y-92132980D01*
X157407001Y-92057001D01*
X157482980Y-91964421D01*
X157539437Y-91858797D01*
X157574203Y-91744189D01*
X157585942Y-91625000D01*
X157583000Y-91531000D01*
X157431000Y-91379000D01*
X156654000Y-91379000D01*
X156346000Y-91379000D01*
X155569000Y-91379000D01*
X155417000Y-91531000D01*
X155414058Y-91625000D01*
X154183948Y-91625000D01*
X154188280Y-91616897D01*
X154216816Y-91522828D01*
X154226451Y-91425000D01*
X154226451Y-91025000D01*
X154216816Y-90927172D01*
X154188280Y-90833103D01*
X154141941Y-90746409D01*
X154079579Y-90670421D01*
X154003591Y-90608059D01*
X153916897Y-90561720D01*
X153822828Y-90533184D01*
X153725000Y-90523549D01*
X153175000Y-90523549D01*
X153077172Y-90533184D01*
X152983103Y-90561720D01*
X152896409Y-90608059D01*
X152820421Y-90670421D01*
X152758059Y-90746409D01*
X152711720Y-90833103D01*
X152683184Y-90927172D01*
X152676011Y-91000000D01*
X151401451Y-91000000D01*
X151395659Y-90941190D01*
X151378504Y-90884640D01*
X151350647Y-90832523D01*
X151313158Y-90786842D01*
X151267477Y-90749353D01*
X151215360Y-90721496D01*
X151158810Y-90704341D01*
X151100000Y-90698549D01*
X150200000Y-90698549D01*
X150141190Y-90704341D01*
X150084640Y-90721496D01*
X150032523Y-90749353D01*
X149986842Y-90786842D01*
X149949353Y-90832523D01*
X149921496Y-90884640D01*
X149904341Y-90941190D01*
X149898549Y-91000000D01*
X149359988Y-91000000D01*
X149378504Y-90965360D01*
X149395659Y-90908810D01*
X149401451Y-90850000D01*
X149401451Y-90050000D01*
X149395659Y-89991190D01*
X149378504Y-89934640D01*
X149359989Y-89900000D01*
X149589058Y-89900000D01*
X149600797Y-90019189D01*
X149635563Y-90133797D01*
X149692020Y-90239421D01*
X149767999Y-90332001D01*
X149860579Y-90407980D01*
X149966203Y-90464437D01*
X150080811Y-90499203D01*
X150200000Y-90510942D01*
X150344000Y-90508000D01*
X150496000Y-90356000D01*
X150496000Y-89654000D01*
X150804000Y-89654000D01*
X150804000Y-90356000D01*
X150956000Y-90508000D01*
X151100000Y-90510942D01*
X151219189Y-90499203D01*
X151333797Y-90464437D01*
X151439421Y-90407980D01*
X151532001Y-90332001D01*
X151607980Y-90239421D01*
X151664437Y-90133797D01*
X151699203Y-90019189D01*
X151710942Y-89900000D01*
X151708000Y-89806000D01*
X151556000Y-89654000D01*
X150804000Y-89654000D01*
X150496000Y-89654000D01*
X149744000Y-89654000D01*
X149592000Y-89806000D01*
X149589058Y-89900000D01*
X149359989Y-89900000D01*
X149350647Y-89882523D01*
X149313158Y-89836842D01*
X149267477Y-89799353D01*
X149215360Y-89771496D01*
X149158810Y-89754341D01*
X149125000Y-89751011D01*
X149125000Y-89375000D01*
X152673549Y-89375000D01*
X152673549Y-89775000D01*
X152683184Y-89872828D01*
X152711720Y-89966897D01*
X152758059Y-90053591D01*
X152820421Y-90129579D01*
X152896409Y-90191941D01*
X152983103Y-90238280D01*
X153077172Y-90266816D01*
X153175000Y-90276451D01*
X153725000Y-90276451D01*
X153822828Y-90266816D01*
X153916897Y-90238280D01*
X154003591Y-90191941D01*
X154079579Y-90129579D01*
X154141941Y-90053591D01*
X154183949Y-89975000D01*
X155766051Y-89975000D01*
X155808059Y-90053591D01*
X155870421Y-90129579D01*
X155946409Y-90191941D01*
X155993577Y-90217153D01*
X155905811Y-90225797D01*
X155791203Y-90260563D01*
X155685579Y-90317020D01*
X155592999Y-90392999D01*
X155517020Y-90485579D01*
X155460563Y-90591203D01*
X155425797Y-90705811D01*
X155414058Y-90825000D01*
X155417000Y-90919000D01*
X155569000Y-91071000D01*
X156346000Y-91071000D01*
X156346000Y-91051000D01*
X156654000Y-91051000D01*
X156654000Y-91071000D01*
X157431000Y-91071000D01*
X157583000Y-90919000D01*
X157585942Y-90825000D01*
X157574203Y-90705811D01*
X157539437Y-90591203D01*
X157482980Y-90485579D01*
X157407001Y-90392999D01*
X157314421Y-90317020D01*
X157208797Y-90260563D01*
X157094189Y-90225797D01*
X157006423Y-90217153D01*
X157053591Y-90191941D01*
X157129579Y-90129579D01*
X157191941Y-90053591D01*
X157238280Y-89966897D01*
X157266816Y-89872828D01*
X157276451Y-89775000D01*
X157276451Y-89375000D01*
X157273835Y-89348441D01*
X157334668Y-89307794D01*
X157407794Y-89234668D01*
X157465249Y-89148681D01*
X157504824Y-89053137D01*
X157525000Y-88951708D01*
X157525000Y-88848292D01*
X157504824Y-88746863D01*
X157465249Y-88651319D01*
X157407794Y-88565332D01*
X157334668Y-88492206D01*
X157248681Y-88434751D01*
X157153137Y-88395176D01*
X157051708Y-88375000D01*
X156948292Y-88375000D01*
X156846863Y-88395176D01*
X156751319Y-88434751D01*
X156665332Y-88492206D01*
X156592206Y-88565332D01*
X156534751Y-88651319D01*
X156495176Y-88746863D01*
X156475000Y-88848292D01*
X156475000Y-88859314D01*
X156460766Y-88873549D01*
X156225000Y-88873549D01*
X156127172Y-88883184D01*
X156033103Y-88911720D01*
X155946409Y-88958059D01*
X155870421Y-89020421D01*
X155808059Y-89096409D01*
X155766051Y-89175000D01*
X154183949Y-89175000D01*
X154141941Y-89096409D01*
X154079579Y-89020421D01*
X154003591Y-88958059D01*
X153916897Y-88911720D01*
X153822828Y-88883184D01*
X153725000Y-88873549D01*
X153175000Y-88873549D01*
X153077172Y-88883184D01*
X152983103Y-88911720D01*
X152896409Y-88958059D01*
X152820421Y-89020421D01*
X152758059Y-89096409D01*
X152711720Y-89183103D01*
X152683184Y-89277172D01*
X152673549Y-89375000D01*
X149125000Y-89375000D01*
X149125000Y-89100000D01*
X149589058Y-89100000D01*
X149592000Y-89194000D01*
X149744000Y-89346000D01*
X150496000Y-89346000D01*
X150496000Y-88644000D01*
X150804000Y-88644000D01*
X150804000Y-89346000D01*
X151556000Y-89346000D01*
X151708000Y-89194000D01*
X151710942Y-89100000D01*
X151699203Y-88980811D01*
X151664437Y-88866203D01*
X151607980Y-88760579D01*
X151532001Y-88667999D01*
X151439421Y-88592020D01*
X151333797Y-88535563D01*
X151219189Y-88500797D01*
X151100000Y-88489058D01*
X150956000Y-88492000D01*
X150804000Y-88644000D01*
X150496000Y-88644000D01*
X150344000Y-88492000D01*
X150200000Y-88489058D01*
X150080811Y-88500797D01*
X149966203Y-88535563D01*
X149860579Y-88592020D01*
X149767999Y-88667999D01*
X149692020Y-88760579D01*
X149635563Y-88866203D01*
X149600797Y-88980811D01*
X149589058Y-89100000D01*
X149125000Y-89100000D01*
X149125000Y-88150990D01*
X149166897Y-88138280D01*
X149253591Y-88091941D01*
X149329579Y-88029579D01*
X149391941Y-87953591D01*
X149438280Y-87866897D01*
X149466816Y-87772828D01*
X149476451Y-87675000D01*
X149476451Y-87275000D01*
X149466816Y-87177172D01*
X149438280Y-87083103D01*
X149391941Y-86996409D01*
X149329579Y-86920421D01*
X149253591Y-86858059D01*
X149166897Y-86811720D01*
X149072828Y-86783184D01*
X148975000Y-86773549D01*
X148425000Y-86773549D01*
X148327172Y-86783184D01*
X148233103Y-86811720D01*
X148146409Y-86858059D01*
X148070421Y-86920421D01*
X148008059Y-86996409D01*
X147961720Y-87083103D01*
X147933184Y-87177172D01*
X147923549Y-87275000D01*
X147923549Y-87675000D01*
X147933184Y-87772828D01*
X147961720Y-87866897D01*
X148008059Y-87953591D01*
X148070421Y-88029579D01*
X148146409Y-88091941D01*
X148233103Y-88138280D01*
X148275000Y-88150990D01*
X148275001Y-89748549D01*
X148200000Y-89748549D01*
X148141190Y-89754341D01*
X148084640Y-89771496D01*
X148032523Y-89799353D01*
X147986842Y-89836842D01*
X147949353Y-89882523D01*
X147921496Y-89934640D01*
X147904341Y-89991190D01*
X147898549Y-90050000D01*
X145325000Y-90050000D01*
X145325000Y-85625000D01*
X147923549Y-85625000D01*
X147923549Y-86025000D01*
X147933184Y-86122828D01*
X147961720Y-86216897D01*
X148008059Y-86303591D01*
X148070421Y-86379579D01*
X148146409Y-86441941D01*
X148233103Y-86488280D01*
X148327172Y-86516816D01*
X148425000Y-86526451D01*
X148975000Y-86526451D01*
X149072828Y-86516816D01*
X149166897Y-86488280D01*
X149253591Y-86441941D01*
X149329579Y-86379579D01*
X149391941Y-86303591D01*
X149433949Y-86225000D01*
X149866051Y-86225000D01*
X149908059Y-86303591D01*
X149970421Y-86379579D01*
X150046409Y-86441941D01*
X150104962Y-86473238D01*
X150095176Y-86496863D01*
X150075000Y-86598292D01*
X150075000Y-86701708D01*
X150095176Y-86803137D01*
X150104962Y-86826762D01*
X150046409Y-86858059D01*
X149970421Y-86920421D01*
X149908059Y-86996409D01*
X149861720Y-87083103D01*
X149833184Y-87177172D01*
X149823549Y-87275000D01*
X149823549Y-87675000D01*
X149833184Y-87772828D01*
X149861720Y-87866897D01*
X149908059Y-87953591D01*
X149970421Y-88029579D01*
X150046409Y-88091941D01*
X150133103Y-88138280D01*
X150227172Y-88166816D01*
X150325000Y-88176451D01*
X150875000Y-88176451D01*
X150972828Y-88166816D01*
X151066897Y-88138280D01*
X151153591Y-88091941D01*
X151229579Y-88029579D01*
X151291941Y-87953591D01*
X151338280Y-87866897D01*
X151366816Y-87772828D01*
X151376451Y-87675000D01*
X151376451Y-87275000D01*
X151366816Y-87177172D01*
X151338280Y-87083103D01*
X151291941Y-86996409D01*
X151229579Y-86920421D01*
X151153591Y-86858059D01*
X151095038Y-86826762D01*
X151104824Y-86803137D01*
X151125000Y-86701708D01*
X151125000Y-86598292D01*
X151104824Y-86496863D01*
X151095038Y-86473238D01*
X151153591Y-86441941D01*
X151229579Y-86379579D01*
X151291941Y-86303591D01*
X151338280Y-86216897D01*
X151366816Y-86122828D01*
X151376451Y-86025000D01*
X151376451Y-85625000D01*
X151366816Y-85527172D01*
X151338280Y-85433103D01*
X151291941Y-85346409D01*
X151229579Y-85270421D01*
X151153591Y-85208059D01*
X151066897Y-85161720D01*
X150972828Y-85133184D01*
X150875000Y-85123549D01*
X150750000Y-85123549D01*
X150750000Y-84551451D01*
X151050000Y-84551451D01*
X151108810Y-84545659D01*
X151165360Y-84528504D01*
X151217477Y-84500647D01*
X151263158Y-84463158D01*
X151300647Y-84417477D01*
X151328504Y-84365360D01*
X151345659Y-84308810D01*
X151351451Y-84250000D01*
X151351451Y-83450000D01*
X151345659Y-83391190D01*
X151328504Y-83334640D01*
X151300647Y-83282523D01*
X151263158Y-83236842D01*
X151217477Y-83199353D01*
X151165360Y-83171496D01*
X151108810Y-83154341D01*
X151050000Y-83148549D01*
X150150000Y-83148549D01*
X150091190Y-83154341D01*
X150034640Y-83171496D01*
X149982523Y-83199353D01*
X149936842Y-83236842D01*
X149899353Y-83282523D01*
X149871496Y-83334640D01*
X149854341Y-83391190D01*
X149848549Y-83450000D01*
X149848549Y-84250000D01*
X149854341Y-84308810D01*
X149871496Y-84365360D01*
X149899353Y-84417477D01*
X149936842Y-84463158D01*
X149950001Y-84473957D01*
X149950000Y-85295304D01*
X149908059Y-85346409D01*
X149866051Y-85425000D01*
X149433949Y-85425000D01*
X149391941Y-85346409D01*
X149329579Y-85270421D01*
X149253591Y-85208059D01*
X149166897Y-85161720D01*
X149072828Y-85133184D01*
X148975000Y-85123549D01*
X148425000Y-85123549D01*
X148327172Y-85133184D01*
X148233103Y-85161720D01*
X148146409Y-85208059D01*
X148070421Y-85270421D01*
X148008059Y-85346409D01*
X147961720Y-85433103D01*
X147933184Y-85527172D01*
X147923549Y-85625000D01*
X145325000Y-85625000D01*
X145325000Y-83931056D01*
X146900000Y-83931056D01*
X146900000Y-84068944D01*
X146926901Y-84204182D01*
X146979668Y-84331574D01*
X147056274Y-84446224D01*
X147153776Y-84543726D01*
X147268426Y-84620332D01*
X147395818Y-84673099D01*
X147531056Y-84700000D01*
X147668944Y-84700000D01*
X147804182Y-84673099D01*
X147931574Y-84620332D01*
X148046224Y-84543726D01*
X148143726Y-84446224D01*
X148220332Y-84331574D01*
X148243431Y-84275807D01*
X148917788Y-83601451D01*
X149050000Y-83601451D01*
X149108810Y-83595659D01*
X149165360Y-83578504D01*
X149217477Y-83550647D01*
X149263158Y-83513158D01*
X149300647Y-83467477D01*
X149328504Y-83415360D01*
X149345659Y-83358810D01*
X149351451Y-83300000D01*
X149351451Y-82500000D01*
X149345659Y-82441190D01*
X149328504Y-82384640D01*
X149300647Y-82332523D01*
X149263158Y-82286842D01*
X149217477Y-82249353D01*
X149165360Y-82221496D01*
X149138244Y-82213270D01*
X149150000Y-82154170D01*
X149150000Y-82045830D01*
X149128864Y-81939571D01*
X149087403Y-81839477D01*
X149027213Y-81749396D01*
X148950604Y-81672787D01*
X148860523Y-81612597D01*
X148760429Y-81571136D01*
X148654170Y-81550000D01*
X149848549Y-81550000D01*
X149848549Y-82350000D01*
X149854341Y-82408810D01*
X149871496Y-82465360D01*
X149899353Y-82517477D01*
X149936842Y-82563158D01*
X149982523Y-82600647D01*
X150034640Y-82628504D01*
X150091190Y-82645659D01*
X150150000Y-82651451D01*
X151050000Y-82651451D01*
X151108810Y-82645659D01*
X151165360Y-82628504D01*
X151217477Y-82600647D01*
X151263158Y-82563158D01*
X151273956Y-82550000D01*
X152364058Y-82550000D01*
X152375797Y-82669189D01*
X152410563Y-82783797D01*
X152467020Y-82889421D01*
X152542999Y-82982001D01*
X152635579Y-83057980D01*
X152741203Y-83114437D01*
X152800140Y-83132315D01*
X152761219Y-83179742D01*
X152713147Y-83269678D01*
X152683545Y-83367264D01*
X152673549Y-83468750D01*
X152673549Y-83906250D01*
X152683545Y-84007736D01*
X152713147Y-84105322D01*
X152761219Y-84195258D01*
X152825912Y-84274088D01*
X152904742Y-84338781D01*
X152950001Y-84362972D01*
X152950000Y-85179414D01*
X152896409Y-85208059D01*
X152820421Y-85270421D01*
X152758059Y-85346409D01*
X152711720Y-85433103D01*
X152683184Y-85527172D01*
X152673549Y-85625000D01*
X152673549Y-86025000D01*
X152683184Y-86122828D01*
X152711720Y-86216897D01*
X152758059Y-86303591D01*
X152820421Y-86379579D01*
X152896409Y-86441941D01*
X152954962Y-86473238D01*
X152945176Y-86496863D01*
X152925000Y-86598292D01*
X152925000Y-86701708D01*
X152945176Y-86803137D01*
X152954962Y-86826762D01*
X152896409Y-86858059D01*
X152820421Y-86920421D01*
X152758059Y-86996409D01*
X152711720Y-87083103D01*
X152683184Y-87177172D01*
X152673549Y-87275000D01*
X152673549Y-87675000D01*
X152683184Y-87772828D01*
X152711720Y-87866897D01*
X152758059Y-87953591D01*
X152820421Y-88029579D01*
X152896409Y-88091941D01*
X152983103Y-88138280D01*
X153077172Y-88166816D01*
X153175000Y-88176451D01*
X153725000Y-88176451D01*
X153822828Y-88166816D01*
X153916897Y-88138280D01*
X154003591Y-88091941D01*
X154079579Y-88029579D01*
X154141941Y-87953591D01*
X154188280Y-87866897D01*
X154216816Y-87772828D01*
X154226451Y-87675000D01*
X154226451Y-87275000D01*
X154216816Y-87177172D01*
X154188280Y-87083103D01*
X154141941Y-86996409D01*
X154079579Y-86920421D01*
X154003591Y-86858059D01*
X153945038Y-86826762D01*
X153954824Y-86803137D01*
X153975000Y-86701708D01*
X153975000Y-86598292D01*
X153954824Y-86496863D01*
X153945038Y-86473238D01*
X154003591Y-86441941D01*
X154079579Y-86379579D01*
X154141941Y-86303591D01*
X154188280Y-86216897D01*
X154216816Y-86122828D01*
X154226451Y-86025000D01*
X154226451Y-85625000D01*
X154216816Y-85527172D01*
X154188280Y-85433103D01*
X154141941Y-85346409D01*
X154079579Y-85270421D01*
X154003591Y-85208059D01*
X153916897Y-85161720D01*
X153822828Y-85133184D01*
X153750000Y-85126011D01*
X153750000Y-84422142D01*
X153807736Y-84416455D01*
X153905322Y-84386853D01*
X153995258Y-84338781D01*
X154074088Y-84274088D01*
X154138781Y-84195258D01*
X154186853Y-84105322D01*
X154216455Y-84007736D01*
X154226451Y-83906250D01*
X154226451Y-83468750D01*
X154216455Y-83367264D01*
X154186853Y-83269678D01*
X154138781Y-83179742D01*
X154099860Y-83132315D01*
X154158797Y-83114437D01*
X154264421Y-83057980D01*
X154357001Y-82982001D01*
X154432980Y-82889421D01*
X154489437Y-82783797D01*
X154524203Y-82669189D01*
X154535942Y-82550000D01*
X155414058Y-82550000D01*
X155425797Y-82669189D01*
X155460563Y-82783797D01*
X155517020Y-82889421D01*
X155592999Y-82982001D01*
X155685579Y-83057980D01*
X155791203Y-83114437D01*
X155850140Y-83132315D01*
X155811219Y-83179742D01*
X155763147Y-83269678D01*
X155733545Y-83367264D01*
X155723549Y-83468750D01*
X155723549Y-83906250D01*
X155733545Y-84007736D01*
X155763147Y-84105322D01*
X155811219Y-84195258D01*
X155875912Y-84274088D01*
X155954742Y-84338781D01*
X156044678Y-84386853D01*
X156100000Y-84403635D01*
X156100001Y-85141426D01*
X156033103Y-85161720D01*
X155946409Y-85208059D01*
X155870421Y-85270421D01*
X155808059Y-85346409D01*
X155761720Y-85433103D01*
X155733184Y-85527172D01*
X155723549Y-85625000D01*
X155723549Y-86025000D01*
X155733184Y-86122828D01*
X155761720Y-86216897D01*
X155808059Y-86303591D01*
X155870421Y-86379579D01*
X155946409Y-86441941D01*
X156033103Y-86488280D01*
X156127172Y-86516816D01*
X156225000Y-86526451D01*
X156553631Y-86526451D01*
X156545176Y-86546863D01*
X156525000Y-86648292D01*
X156525000Y-86659315D01*
X156410766Y-86773549D01*
X156225000Y-86773549D01*
X156127172Y-86783184D01*
X156033103Y-86811720D01*
X155946409Y-86858059D01*
X155870421Y-86920421D01*
X155808059Y-86996409D01*
X155761720Y-87083103D01*
X155733184Y-87177172D01*
X155723549Y-87275000D01*
X155723549Y-87675000D01*
X155733184Y-87772828D01*
X155761720Y-87866897D01*
X155808059Y-87953591D01*
X155870421Y-88029579D01*
X155946409Y-88091941D01*
X156033103Y-88138280D01*
X156127172Y-88166816D01*
X156225000Y-88176451D01*
X156775000Y-88176451D01*
X156872828Y-88166816D01*
X156966897Y-88138280D01*
X157053591Y-88091941D01*
X157129579Y-88029579D01*
X157191941Y-87953591D01*
X157238280Y-87866897D01*
X157266816Y-87772828D01*
X157276451Y-87675000D01*
X157276451Y-87275000D01*
X157266937Y-87178398D01*
X157298681Y-87165249D01*
X157384668Y-87107794D01*
X157457794Y-87034668D01*
X157515249Y-86948681D01*
X157554824Y-86853137D01*
X157575000Y-86751708D01*
X157575000Y-86648292D01*
X157554824Y-86546863D01*
X157515249Y-86451319D01*
X157457794Y-86365332D01*
X157384668Y-86292206D01*
X157298681Y-86234751D01*
X157240211Y-86210532D01*
X157266816Y-86122828D01*
X157276451Y-86025000D01*
X157276451Y-85625000D01*
X157271912Y-85578910D01*
X159492097Y-85578910D01*
X159574444Y-85806685D01*
X159718273Y-86053631D01*
X159907515Y-86267772D01*
X160134897Y-86440879D01*
X160355339Y-86548549D01*
X160300000Y-86548549D01*
X160192417Y-86559145D01*
X160088969Y-86590526D01*
X159993630Y-86641485D01*
X159910065Y-86710065D01*
X159841485Y-86793630D01*
X159790526Y-86888969D01*
X159759145Y-86992417D01*
X159748549Y-87100000D01*
X159748549Y-88300000D01*
X159759145Y-88407583D01*
X159790526Y-88511031D01*
X159841485Y-88606370D01*
X159910065Y-88689935D01*
X159993630Y-88758515D01*
X160088969Y-88809474D01*
X160192417Y-88840855D01*
X160300000Y-88851451D01*
X161800000Y-88851451D01*
X161907583Y-88840855D01*
X162011031Y-88809474D01*
X162106370Y-88758515D01*
X162189935Y-88689935D01*
X162258515Y-88606370D01*
X162309474Y-88511031D01*
X162340855Y-88407583D01*
X162351451Y-88300000D01*
X162351451Y-87100000D01*
X162340855Y-86992417D01*
X162309474Y-86888969D01*
X162258515Y-86793630D01*
X162189935Y-86710065D01*
X162106370Y-86641485D01*
X162011031Y-86590526D01*
X161907583Y-86559145D01*
X161800000Y-86548549D01*
X161744661Y-86548549D01*
X161965103Y-86440879D01*
X162192485Y-86267772D01*
X162381727Y-86053631D01*
X162525556Y-85806685D01*
X162607903Y-85578910D01*
X162496889Y-85354000D01*
X161204000Y-85354000D01*
X161204000Y-85374000D01*
X160896000Y-85374000D01*
X160896000Y-85354000D01*
X159603111Y-85354000D01*
X159492097Y-85578910D01*
X157271912Y-85578910D01*
X157266816Y-85527172D01*
X157238280Y-85433103D01*
X157191941Y-85346409D01*
X157129579Y-85270421D01*
X157053591Y-85208059D01*
X156966897Y-85161720D01*
X156900000Y-85141427D01*
X156900000Y-84821090D01*
X159492097Y-84821090D01*
X159603111Y-85046000D01*
X160896000Y-85046000D01*
X160896000Y-83894211D01*
X161204000Y-83894211D01*
X161204000Y-85046000D01*
X162496889Y-85046000D01*
X162607903Y-84821090D01*
X162525556Y-84593315D01*
X162381727Y-84346369D01*
X162192485Y-84132228D01*
X161965103Y-83959121D01*
X161708318Y-83833700D01*
X161431999Y-83760785D01*
X161204000Y-83894211D01*
X160896000Y-83894211D01*
X160668001Y-83760785D01*
X160391682Y-83833700D01*
X160134897Y-83959121D01*
X159907515Y-84132228D01*
X159718273Y-84346369D01*
X159574444Y-84593315D01*
X159492097Y-84821090D01*
X156900000Y-84821090D01*
X156900000Y-84403635D01*
X156955322Y-84386853D01*
X157045258Y-84338781D01*
X157124088Y-84274088D01*
X157188781Y-84195258D01*
X157236853Y-84105322D01*
X157266455Y-84007736D01*
X157276451Y-83906250D01*
X157276451Y-83468750D01*
X157266455Y-83367264D01*
X157236853Y-83269678D01*
X157188781Y-83179742D01*
X157149860Y-83132315D01*
X157208797Y-83114437D01*
X157314421Y-83057980D01*
X157407001Y-82982001D01*
X157482980Y-82889421D01*
X157539437Y-82783797D01*
X157574203Y-82669189D01*
X157585942Y-82550000D01*
X157583000Y-82418500D01*
X157431000Y-82266500D01*
X156654000Y-82266500D01*
X156654000Y-82286500D01*
X156346000Y-82286500D01*
X156346000Y-82266500D01*
X155569000Y-82266500D01*
X155417000Y-82418500D01*
X155414058Y-82550000D01*
X154535942Y-82550000D01*
X154533000Y-82418500D01*
X154381000Y-82266500D01*
X153604000Y-82266500D01*
X153604000Y-82286500D01*
X153296000Y-82286500D01*
X153296000Y-82266500D01*
X152519000Y-82266500D01*
X152367000Y-82418500D01*
X152364058Y-82550000D01*
X151273956Y-82550000D01*
X151300647Y-82517477D01*
X151328504Y-82465360D01*
X151345659Y-82408810D01*
X151351451Y-82350000D01*
X151351451Y-81675000D01*
X152364058Y-81675000D01*
X152367000Y-81806500D01*
X152519000Y-81958500D01*
X153296000Y-81958500D01*
X153296000Y-81219000D01*
X153604000Y-81219000D01*
X153604000Y-81958500D01*
X154381000Y-81958500D01*
X154533000Y-81806500D01*
X154535942Y-81675000D01*
X155414058Y-81675000D01*
X155417000Y-81806500D01*
X155569000Y-81958500D01*
X156346000Y-81958500D01*
X156346000Y-81219000D01*
X156654000Y-81219000D01*
X156654000Y-81958500D01*
X157431000Y-81958500D01*
X157583000Y-81806500D01*
X157585942Y-81675000D01*
X157574203Y-81555811D01*
X157539437Y-81441203D01*
X157482980Y-81335579D01*
X157407001Y-81242999D01*
X157314421Y-81167020D01*
X157208797Y-81110563D01*
X157094189Y-81075797D01*
X156975000Y-81064058D01*
X156806000Y-81067000D01*
X156654000Y-81219000D01*
X156346000Y-81219000D01*
X156194000Y-81067000D01*
X156025000Y-81064058D01*
X155905811Y-81075797D01*
X155791203Y-81110563D01*
X155685579Y-81167020D01*
X155592999Y-81242999D01*
X155517020Y-81335579D01*
X155460563Y-81441203D01*
X155425797Y-81555811D01*
X155414058Y-81675000D01*
X154535942Y-81675000D01*
X154524203Y-81555811D01*
X154489437Y-81441203D01*
X154432980Y-81335579D01*
X154357001Y-81242999D01*
X154264421Y-81167020D01*
X154158797Y-81110563D01*
X154044189Y-81075797D01*
X153925000Y-81064058D01*
X153756000Y-81067000D01*
X153604000Y-81219000D01*
X153296000Y-81219000D01*
X153144000Y-81067000D01*
X152975000Y-81064058D01*
X152855811Y-81075797D01*
X152741203Y-81110563D01*
X152635579Y-81167020D01*
X152542999Y-81242999D01*
X152467020Y-81335579D01*
X152410563Y-81441203D01*
X152375797Y-81555811D01*
X152364058Y-81675000D01*
X151351451Y-81675000D01*
X151351451Y-81550000D01*
X151345659Y-81491190D01*
X151328504Y-81434640D01*
X151300647Y-81382523D01*
X151263158Y-81336842D01*
X151250000Y-81326044D01*
X151250000Y-81159948D01*
X151273099Y-81104182D01*
X151300000Y-80968944D01*
X151300000Y-80831056D01*
X151273099Y-80695818D01*
X151220332Y-80568426D01*
X151143726Y-80453776D01*
X151046224Y-80356274D01*
X150931574Y-80279668D01*
X150804182Y-80226901D01*
X150668944Y-80200000D01*
X150531056Y-80200000D01*
X150395818Y-80226901D01*
X150268426Y-80279668D01*
X150153776Y-80356274D01*
X150056274Y-80453776D01*
X149979668Y-80568426D01*
X149926901Y-80695818D01*
X149900000Y-80831056D01*
X149900000Y-80968944D01*
X149926901Y-81104182D01*
X149950000Y-81159948D01*
X149950000Y-81326044D01*
X149936842Y-81336842D01*
X149899353Y-81382523D01*
X149871496Y-81434640D01*
X149854341Y-81491190D01*
X149848549Y-81550000D01*
X148654170Y-81550000D01*
X148545830Y-81550000D01*
X148439571Y-81571136D01*
X148339477Y-81612597D01*
X148249396Y-81672787D01*
X148172787Y-81749396D01*
X148112597Y-81839477D01*
X148071136Y-81939571D01*
X148050000Y-82045830D01*
X148050000Y-82154170D01*
X148061756Y-82213270D01*
X148034640Y-82221496D01*
X147982523Y-82249353D01*
X147936842Y-82286842D01*
X147899353Y-82332523D01*
X147871496Y-82384640D01*
X147854341Y-82441190D01*
X147848549Y-82500000D01*
X147848549Y-82832212D01*
X147324193Y-83356569D01*
X147268426Y-83379668D01*
X147153776Y-83456274D01*
X147056274Y-83553776D01*
X146979668Y-83668426D01*
X146926901Y-83795818D01*
X146900000Y-83931056D01*
X145325000Y-83931056D01*
X145325000Y-74093965D01*
X148050000Y-74093965D01*
X148050000Y-75802036D01*
X148065916Y-75963638D01*
X148128817Y-76170988D01*
X148230959Y-76362084D01*
X148368420Y-76529581D01*
X148535917Y-76667042D01*
X148727013Y-76769184D01*
X148934363Y-76832084D01*
X149150000Y-76853322D01*
X149365638Y-76832084D01*
X149572988Y-76769184D01*
X149764084Y-76667042D01*
X149931581Y-76529581D01*
X149957498Y-76498000D01*
X150348549Y-76498000D01*
X150348549Y-78298000D01*
X150354341Y-78356810D01*
X150371496Y-78413360D01*
X150399353Y-78465477D01*
X150436842Y-78511158D01*
X150482523Y-78548647D01*
X150500001Y-78557989D01*
X150500001Y-79268330D01*
X150468287Y-79315793D01*
X150423058Y-79424986D01*
X150400000Y-79540905D01*
X150400000Y-79659095D01*
X150423058Y-79775014D01*
X150468287Y-79884207D01*
X150533950Y-79982478D01*
X150617522Y-80066050D01*
X150715793Y-80131713D01*
X150824986Y-80176942D01*
X150940905Y-80200000D01*
X151059095Y-80200000D01*
X151175014Y-80176942D01*
X151284207Y-80131713D01*
X151382478Y-80066050D01*
X151466050Y-79982478D01*
X151531713Y-79884207D01*
X151576942Y-79775014D01*
X151600000Y-79659095D01*
X151600000Y-79574612D01*
X151668426Y-79620332D01*
X151795818Y-79673099D01*
X151931056Y-79700000D01*
X152068944Y-79700000D01*
X152204182Y-79673099D01*
X152331574Y-79620332D01*
X152400000Y-79574612D01*
X152400000Y-79659095D01*
X152423058Y-79775014D01*
X152468287Y-79884207D01*
X152533950Y-79982478D01*
X152617522Y-80066050D01*
X152715793Y-80131713D01*
X152824986Y-80176942D01*
X152940905Y-80200000D01*
X153059095Y-80200000D01*
X153175014Y-80176942D01*
X153284207Y-80131713D01*
X153382478Y-80066050D01*
X153466050Y-79982478D01*
X153531713Y-79884207D01*
X153576942Y-79775014D01*
X153600000Y-79659095D01*
X153600000Y-79540905D01*
X153577062Y-79425590D01*
X153617522Y-79466050D01*
X153715793Y-79531713D01*
X153824986Y-79576942D01*
X153940905Y-79600000D01*
X154059095Y-79600000D01*
X154175014Y-79576942D01*
X154284207Y-79531713D01*
X154302270Y-79519644D01*
X154300000Y-79531056D01*
X154300000Y-79668944D01*
X154326901Y-79804182D01*
X154379668Y-79931574D01*
X154456274Y-80046224D01*
X154553776Y-80143726D01*
X154668426Y-80220332D01*
X154795818Y-80273099D01*
X154931056Y-80300000D01*
X155068944Y-80300000D01*
X155204182Y-80273099D01*
X155331574Y-80220332D01*
X155446224Y-80143726D01*
X155543726Y-80046224D01*
X155620332Y-79931574D01*
X155673099Y-79804182D01*
X155700000Y-79668944D01*
X155700000Y-79531056D01*
X155697730Y-79519644D01*
X155715793Y-79531713D01*
X155824986Y-79576942D01*
X155940905Y-79600000D01*
X156059095Y-79600000D01*
X156175014Y-79576942D01*
X156284207Y-79531713D01*
X156382478Y-79466050D01*
X156422938Y-79425590D01*
X156400000Y-79540905D01*
X156400000Y-79659095D01*
X156423058Y-79775014D01*
X156468287Y-79884207D01*
X156533950Y-79982478D01*
X156617522Y-80066050D01*
X156715793Y-80131713D01*
X156824986Y-80176942D01*
X156940905Y-80200000D01*
X157059095Y-80200000D01*
X157175014Y-80176942D01*
X157284207Y-80131713D01*
X157382478Y-80066050D01*
X157466050Y-79982478D01*
X157531713Y-79884207D01*
X157576942Y-79775014D01*
X157600000Y-79659095D01*
X157600000Y-79540905D01*
X157576942Y-79424986D01*
X157531713Y-79315793D01*
X157500000Y-79268331D01*
X157500000Y-78887857D01*
X157530811Y-78897203D01*
X157650000Y-78908942D01*
X157694000Y-78906000D01*
X157846000Y-78754000D01*
X157846000Y-77552000D01*
X157826000Y-77552000D01*
X157826000Y-77244000D01*
X157846000Y-77244000D01*
X157846000Y-76042000D01*
X158154000Y-76042000D01*
X158154000Y-77244000D01*
X158174000Y-77244000D01*
X158174000Y-77552000D01*
X158154000Y-77552000D01*
X158154000Y-78754000D01*
X158306000Y-78906000D01*
X158350000Y-78908942D01*
X158469189Y-78897203D01*
X158500001Y-78887856D01*
X158500001Y-79268330D01*
X158468287Y-79315793D01*
X158423058Y-79424986D01*
X158400000Y-79540905D01*
X158400000Y-79659095D01*
X158423058Y-79775014D01*
X158468287Y-79884207D01*
X158533950Y-79982478D01*
X158617522Y-80066050D01*
X158715793Y-80131713D01*
X158824986Y-80176942D01*
X158940905Y-80200000D01*
X159059095Y-80200000D01*
X159175014Y-80176942D01*
X159284207Y-80131713D01*
X159382478Y-80066050D01*
X159466050Y-79982478D01*
X159531713Y-79884207D01*
X159576942Y-79775014D01*
X159600000Y-79659095D01*
X159600000Y-79540905D01*
X159576942Y-79424986D01*
X159531713Y-79315793D01*
X159500000Y-79268331D01*
X159500000Y-78557989D01*
X159517477Y-78548647D01*
X159563158Y-78511158D01*
X159600647Y-78465477D01*
X159628504Y-78413360D01*
X159645659Y-78356810D01*
X159651451Y-78298000D01*
X159651451Y-76498000D01*
X159645659Y-76439190D01*
X159628504Y-76382640D01*
X159600647Y-76330523D01*
X159563158Y-76284842D01*
X159517477Y-76247353D01*
X159465360Y-76219496D01*
X159408810Y-76202341D01*
X159350000Y-76196549D01*
X158878275Y-76196549D01*
X158857980Y-76158579D01*
X158782001Y-76065999D01*
X158689421Y-75990020D01*
X158583797Y-75933563D01*
X158469189Y-75898797D01*
X158350000Y-75887058D01*
X158306000Y-75890000D01*
X158154000Y-76042000D01*
X157846000Y-76042000D01*
X157694000Y-75890000D01*
X157650000Y-75887058D01*
X157530811Y-75898797D01*
X157416203Y-75933563D01*
X157310579Y-75990020D01*
X157217999Y-76065999D01*
X157142020Y-76158579D01*
X157121725Y-76196549D01*
X156650000Y-76196549D01*
X156591190Y-76202341D01*
X156534640Y-76219496D01*
X156500000Y-76238011D01*
X156465360Y-76219496D01*
X156408810Y-76202341D01*
X156350000Y-76196549D01*
X155650000Y-76196549D01*
X155591190Y-76202341D01*
X155534640Y-76219496D01*
X155500000Y-76238011D01*
X155465360Y-76219496D01*
X155408810Y-76202341D01*
X155350000Y-76196549D01*
X154650000Y-76196549D01*
X154591190Y-76202341D01*
X154534640Y-76219496D01*
X154500000Y-76238011D01*
X154465360Y-76219496D01*
X154408810Y-76202341D01*
X154350000Y-76196549D01*
X153650000Y-76196549D01*
X153591190Y-76202341D01*
X153534640Y-76219496D01*
X153500000Y-76238011D01*
X153465360Y-76219496D01*
X153408810Y-76202341D01*
X153350000Y-76196549D01*
X152650000Y-76196549D01*
X152591190Y-76202341D01*
X152534640Y-76219496D01*
X152500000Y-76238011D01*
X152465360Y-76219496D01*
X152408810Y-76202341D01*
X152350000Y-76196549D01*
X151650000Y-76196549D01*
X151591190Y-76202341D01*
X151534640Y-76219496D01*
X151500000Y-76238011D01*
X151465360Y-76219496D01*
X151408810Y-76202341D01*
X151350000Y-76196549D01*
X150650000Y-76196549D01*
X150591190Y-76202341D01*
X150534640Y-76219496D01*
X150482523Y-76247353D01*
X150436842Y-76284842D01*
X150399353Y-76330523D01*
X150371496Y-76382640D01*
X150354341Y-76439190D01*
X150348549Y-76498000D01*
X149957498Y-76498000D01*
X150069042Y-76362084D01*
X150171184Y-76170988D01*
X150234084Y-75963638D01*
X150250000Y-75802036D01*
X150250000Y-74864282D01*
X151900000Y-74864282D01*
X151900000Y-75031718D01*
X151932665Y-75195936D01*
X151996740Y-75350626D01*
X152089762Y-75489844D01*
X152208156Y-75608238D01*
X152347374Y-75701260D01*
X152502064Y-75765335D01*
X152666282Y-75798000D01*
X152833718Y-75798000D01*
X152997936Y-75765335D01*
X153152626Y-75701260D01*
X153291844Y-75608238D01*
X153410238Y-75489844D01*
X153503260Y-75350626D01*
X153567335Y-75195936D01*
X153600000Y-75031718D01*
X153600000Y-74864282D01*
X156400000Y-74864282D01*
X156400000Y-75031718D01*
X156432665Y-75195936D01*
X156496740Y-75350626D01*
X156589762Y-75489844D01*
X156708156Y-75608238D01*
X156847374Y-75701260D01*
X157002064Y-75765335D01*
X157166282Y-75798000D01*
X157333718Y-75798000D01*
X157497936Y-75765335D01*
X157652626Y-75701260D01*
X157791844Y-75608238D01*
X157910238Y-75489844D01*
X158003260Y-75350626D01*
X158067335Y-75195936D01*
X158100000Y-75031718D01*
X158100000Y-74864282D01*
X158067335Y-74700064D01*
X158003260Y-74545374D01*
X157910238Y-74406156D01*
X157791844Y-74287762D01*
X157652626Y-74194740D01*
X157497936Y-74130665D01*
X157333718Y-74098000D01*
X157166282Y-74098000D01*
X157002064Y-74130665D01*
X156847374Y-74194740D01*
X156708156Y-74287762D01*
X156589762Y-74406156D01*
X156496740Y-74545374D01*
X156432665Y-74700064D01*
X156400000Y-74864282D01*
X153600000Y-74864282D01*
X153567335Y-74700064D01*
X153503260Y-74545374D01*
X153410238Y-74406156D01*
X153291844Y-74287762D01*
X153152626Y-74194740D01*
X152997936Y-74130665D01*
X152833718Y-74098000D01*
X152666282Y-74098000D01*
X152502064Y-74130665D01*
X152347374Y-74194740D01*
X152208156Y-74287762D01*
X152089762Y-74406156D01*
X151996740Y-74545374D01*
X151932665Y-74700064D01*
X151900000Y-74864282D01*
X150250000Y-74864282D01*
X150250000Y-74093965D01*
X159750000Y-74093965D01*
X159750000Y-75802036D01*
X159765916Y-75963638D01*
X159828817Y-76170988D01*
X159930959Y-76362084D01*
X160068420Y-76529581D01*
X160235917Y-76667042D01*
X160427013Y-76769184D01*
X160634363Y-76832084D01*
X160850000Y-76853322D01*
X161065638Y-76832084D01*
X161272988Y-76769184D01*
X161464084Y-76667042D01*
X161631581Y-76529581D01*
X161769042Y-76362084D01*
X161871184Y-76170988D01*
X161934084Y-75963638D01*
X161950000Y-75802036D01*
X161950000Y-74093964D01*
X161934084Y-73932362D01*
X161871184Y-73725012D01*
X161769042Y-73533916D01*
X161631581Y-73366419D01*
X161464084Y-73228958D01*
X161272987Y-73126816D01*
X161065637Y-73063916D01*
X160850000Y-73042678D01*
X160634362Y-73063916D01*
X160427012Y-73126816D01*
X160235916Y-73228958D01*
X160068419Y-73366419D01*
X159930958Y-73533916D01*
X159828816Y-73725013D01*
X159765916Y-73932363D01*
X159750000Y-74093965D01*
X150250000Y-74093965D01*
X150250000Y-74093964D01*
X150234084Y-73932362D01*
X150171184Y-73725012D01*
X150069042Y-73533916D01*
X149931581Y-73366419D01*
X149764084Y-73228958D01*
X149572987Y-73126816D01*
X149365637Y-73063916D01*
X149150000Y-73042678D01*
X148934362Y-73063916D01*
X148727012Y-73126816D01*
X148535916Y-73228958D01*
X148368419Y-73366419D01*
X148230958Y-73533916D01*
X148128816Y-73725013D01*
X148065916Y-73932363D01*
X148050000Y-74093965D01*
X145325000Y-74093965D01*
X145325000Y-72325000D01*
X164675000Y-72325000D01*
X164675001Y-109675000D01*
G04 #@! TA.AperFunction,Conductor*
D26*
G36*
X164675001Y-109675000D02*
G01*
X145325000Y-109675000D01*
X145325000Y-98994555D01*
X146405000Y-98994555D01*
X146405000Y-99393445D01*
X146482820Y-99784671D01*
X146635468Y-100153197D01*
X146857080Y-100484862D01*
X147139138Y-100766920D01*
X147470803Y-100988532D01*
X147839329Y-101141180D01*
X148230555Y-101219000D01*
X148629445Y-101219000D01*
X149020671Y-101141180D01*
X149389197Y-100988532D01*
X149720862Y-100766920D01*
X150002920Y-100484862D01*
X150224532Y-100153197D01*
X150377180Y-99784671D01*
X150455000Y-99393445D01*
X150455000Y-98994555D01*
X159545000Y-98994555D01*
X159545000Y-99393445D01*
X159622820Y-99784671D01*
X159775468Y-100153197D01*
X159997080Y-100484862D01*
X160279138Y-100766920D01*
X160610803Y-100988532D01*
X160979329Y-101141180D01*
X161370555Y-101219000D01*
X161769445Y-101219000D01*
X162160671Y-101141180D01*
X162529197Y-100988532D01*
X162860862Y-100766920D01*
X163142920Y-100484862D01*
X163364532Y-100153197D01*
X163517180Y-99784671D01*
X163595000Y-99393445D01*
X163595000Y-98994555D01*
X163517180Y-98603329D01*
X163364532Y-98234803D01*
X163142920Y-97903138D01*
X162860862Y-97621080D01*
X162529197Y-97399468D01*
X162160671Y-97246820D01*
X161769445Y-97169000D01*
X161370555Y-97169000D01*
X160979329Y-97246820D01*
X160610803Y-97399468D01*
X160279138Y-97621080D01*
X159997080Y-97903138D01*
X159775468Y-98234803D01*
X159622820Y-98603329D01*
X159545000Y-98994555D01*
X150455000Y-98994555D01*
X150377180Y-98603329D01*
X150224532Y-98234803D01*
X150002920Y-97903138D01*
X149720862Y-97621080D01*
X149389197Y-97399468D01*
X149020671Y-97246820D01*
X148629445Y-97169000D01*
X148230555Y-97169000D01*
X147839329Y-97246820D01*
X147470803Y-97399468D01*
X147139138Y-97621080D01*
X146857080Y-97903138D01*
X146635468Y-98234803D01*
X146482820Y-98603329D01*
X146405000Y-98994555D01*
X145325000Y-98994555D01*
X145325000Y-95605358D01*
X150100000Y-95605358D01*
X150100000Y-95782642D01*
X150134586Y-95956520D01*
X150202430Y-96120310D01*
X150300924Y-96267717D01*
X150426283Y-96393076D01*
X150573690Y-96491570D01*
X150612675Y-96507718D01*
X150604341Y-96535190D01*
X150598549Y-96594000D01*
X150598549Y-97794000D01*
X150604341Y-97852810D01*
X150621496Y-97909360D01*
X150649353Y-97961477D01*
X150686842Y-98007158D01*
X150732523Y-98044647D01*
X150784640Y-98072504D01*
X150841190Y-98089659D01*
X150900000Y-98095451D01*
X152100000Y-98095451D01*
X152158810Y-98089659D01*
X152215360Y-98072504D01*
X152267477Y-98044647D01*
X152313158Y-98007158D01*
X152350647Y-97961477D01*
X152378504Y-97909360D01*
X152395659Y-97852810D01*
X152401451Y-97794000D01*
X152401451Y-97105358D01*
X153100000Y-97105358D01*
X153100000Y-97282642D01*
X153134586Y-97456520D01*
X153202430Y-97620310D01*
X153300924Y-97767717D01*
X153426283Y-97893076D01*
X153573690Y-97991570D01*
X153737480Y-98059414D01*
X153911358Y-98094000D01*
X154088642Y-98094000D01*
X154262520Y-98059414D01*
X154426310Y-97991570D01*
X154573717Y-97893076D01*
X154699076Y-97767717D01*
X154797570Y-97620310D01*
X154865414Y-97456520D01*
X154900000Y-97282642D01*
X154900000Y-97105358D01*
X155100000Y-97105358D01*
X155100000Y-97282642D01*
X155134586Y-97456520D01*
X155202430Y-97620310D01*
X155300924Y-97767717D01*
X155426283Y-97893076D01*
X155573690Y-97991570D01*
X155737480Y-98059414D01*
X155911358Y-98094000D01*
X156088642Y-98094000D01*
X156262520Y-98059414D01*
X156295401Y-98045794D01*
X157865995Y-98045794D01*
X157916874Y-98258604D01*
X158135773Y-98351911D01*
X158368668Y-98400719D01*
X158606611Y-98403155D01*
X158840457Y-98359122D01*
X159061219Y-98270314D01*
X159083126Y-98258604D01*
X159134005Y-98045794D01*
X158500000Y-97411789D01*
X157865995Y-98045794D01*
X156295401Y-98045794D01*
X156426310Y-97991570D01*
X156573717Y-97893076D01*
X156699076Y-97767717D01*
X156797570Y-97620310D01*
X156865414Y-97456520D01*
X156896425Y-97300611D01*
X157290845Y-97300611D01*
X157334878Y-97534457D01*
X157423686Y-97755219D01*
X157435396Y-97777126D01*
X157648206Y-97828005D01*
X158282211Y-97194000D01*
X157648206Y-96559995D01*
X157435396Y-96610874D01*
X157342089Y-96829773D01*
X157293281Y-97062668D01*
X157290845Y-97300611D01*
X156896425Y-97300611D01*
X156900000Y-97282642D01*
X156900000Y-97105358D01*
X156865414Y-96931480D01*
X156797570Y-96767690D01*
X156699076Y-96620283D01*
X156573717Y-96494924D01*
X156426310Y-96396430D01*
X156262520Y-96328586D01*
X156088642Y-96294000D01*
X155911358Y-96294000D01*
X155737480Y-96328586D01*
X155573690Y-96396430D01*
X155426283Y-96494924D01*
X155300924Y-96620283D01*
X155202430Y-96767690D01*
X155134586Y-96931480D01*
X155100000Y-97105358D01*
X154900000Y-97105358D01*
X154865414Y-96931480D01*
X154797570Y-96767690D01*
X154699076Y-96620283D01*
X154573717Y-96494924D01*
X154426310Y-96396430D01*
X154262520Y-96328586D01*
X154088642Y-96294000D01*
X153911358Y-96294000D01*
X153737480Y-96328586D01*
X153573690Y-96396430D01*
X153426283Y-96494924D01*
X153300924Y-96620283D01*
X153202430Y-96767690D01*
X153134586Y-96931480D01*
X153100000Y-97105358D01*
X152401451Y-97105358D01*
X152401451Y-96594000D01*
X152395659Y-96535190D01*
X152378504Y-96478640D01*
X152350647Y-96426523D01*
X152313158Y-96380842D01*
X152267477Y-96343353D01*
X152215360Y-96315496D01*
X152158810Y-96298341D01*
X152100000Y-96292549D01*
X151674244Y-96292549D01*
X151699076Y-96267717D01*
X151797570Y-96120310D01*
X151865414Y-95956520D01*
X151900000Y-95782642D01*
X151900000Y-95605358D01*
X152100000Y-95605358D01*
X152100000Y-95782642D01*
X152134586Y-95956520D01*
X152202430Y-96120310D01*
X152300924Y-96267717D01*
X152426283Y-96393076D01*
X152573690Y-96491570D01*
X152737480Y-96559414D01*
X152911358Y-96594000D01*
X153088642Y-96594000D01*
X153262520Y-96559414D01*
X153426310Y-96491570D01*
X153573717Y-96393076D01*
X153699076Y-96267717D01*
X153797570Y-96120310D01*
X153865414Y-95956520D01*
X153900000Y-95782642D01*
X153900000Y-95605358D01*
X154100000Y-95605358D01*
X154100000Y-95782642D01*
X154134586Y-95956520D01*
X154202430Y-96120310D01*
X154300924Y-96267717D01*
X154426283Y-96393076D01*
X154573690Y-96491570D01*
X154737480Y-96559414D01*
X154911358Y-96594000D01*
X155088642Y-96594000D01*
X155262520Y-96559414D01*
X155426310Y-96491570D01*
X155573717Y-96393076D01*
X155699076Y-96267717D01*
X155797570Y-96120310D01*
X155865414Y-95956520D01*
X155900000Y-95782642D01*
X155900000Y-95605358D01*
X156100000Y-95605358D01*
X156100000Y-95782642D01*
X156134586Y-95956520D01*
X156202430Y-96120310D01*
X156300924Y-96267717D01*
X156426283Y-96393076D01*
X156573690Y-96491570D01*
X156737480Y-96559414D01*
X156911358Y-96594000D01*
X157088642Y-96594000D01*
X157262520Y-96559414D01*
X157426310Y-96491570D01*
X157573717Y-96393076D01*
X157624587Y-96342206D01*
X157865995Y-96342206D01*
X158500000Y-96976211D01*
X158514142Y-96962069D01*
X158731931Y-97179858D01*
X158717789Y-97194000D01*
X159351794Y-97828005D01*
X159564604Y-97777126D01*
X159657911Y-97558227D01*
X159706719Y-97325332D01*
X159709155Y-97087389D01*
X159665122Y-96853543D01*
X159576314Y-96632781D01*
X159564604Y-96610874D01*
X159351796Y-96559996D01*
X159415917Y-96495875D01*
X159426310Y-96491570D01*
X159573717Y-96393076D01*
X159699076Y-96267717D01*
X159797570Y-96120310D01*
X159865414Y-95956520D01*
X159900000Y-95782642D01*
X159900000Y-95605358D01*
X159865414Y-95431480D01*
X159797570Y-95267690D01*
X159699076Y-95120283D01*
X159573717Y-94994924D01*
X159426310Y-94896430D01*
X159262520Y-94828586D01*
X159088642Y-94794000D01*
X158911358Y-94794000D01*
X158737480Y-94828586D01*
X158573690Y-94896430D01*
X158426283Y-94994924D01*
X158300924Y-95120283D01*
X158202430Y-95267690D01*
X158134586Y-95431480D01*
X158100000Y-95605358D01*
X158100000Y-95782642D01*
X158134586Y-95956520D01*
X158164195Y-96028002D01*
X158159543Y-96028878D01*
X157938781Y-96117686D01*
X157916874Y-96129396D01*
X157865995Y-96342206D01*
X157624587Y-96342206D01*
X157699076Y-96267717D01*
X157797570Y-96120310D01*
X157865414Y-95956520D01*
X157900000Y-95782642D01*
X157900000Y-95605358D01*
X157865414Y-95431480D01*
X157797570Y-95267690D01*
X157699076Y-95120283D01*
X157573717Y-94994924D01*
X157426310Y-94896430D01*
X157262520Y-94828586D01*
X157088642Y-94794000D01*
X156911358Y-94794000D01*
X156737480Y-94828586D01*
X156573690Y-94896430D01*
X156426283Y-94994924D01*
X156300924Y-95120283D01*
X156202430Y-95267690D01*
X156134586Y-95431480D01*
X156100000Y-95605358D01*
X155900000Y-95605358D01*
X155865414Y-95431480D01*
X155797570Y-95267690D01*
X155699076Y-95120283D01*
X155573717Y-94994924D01*
X155426310Y-94896430D01*
X155262520Y-94828586D01*
X155088642Y-94794000D01*
X154911358Y-94794000D01*
X154737480Y-94828586D01*
X154573690Y-94896430D01*
X154426283Y-94994924D01*
X154300924Y-95120283D01*
X154202430Y-95267690D01*
X154134586Y-95431480D01*
X154100000Y-95605358D01*
X153900000Y-95605358D01*
X153865414Y-95431480D01*
X153797570Y-95267690D01*
X153699076Y-95120283D01*
X153573717Y-94994924D01*
X153426310Y-94896430D01*
X153262520Y-94828586D01*
X153088642Y-94794000D01*
X152911358Y-94794000D01*
X152737480Y-94828586D01*
X152573690Y-94896430D01*
X152426283Y-94994924D01*
X152300924Y-95120283D01*
X152202430Y-95267690D01*
X152134586Y-95431480D01*
X152100000Y-95605358D01*
X151900000Y-95605358D01*
X151865414Y-95431480D01*
X151797570Y-95267690D01*
X151699076Y-95120283D01*
X151573717Y-94994924D01*
X151426310Y-94896430D01*
X151262520Y-94828586D01*
X151088642Y-94794000D01*
X150911358Y-94794000D01*
X150737480Y-94828586D01*
X150573690Y-94896430D01*
X150426283Y-94994924D01*
X150300924Y-95120283D01*
X150202430Y-95267690D01*
X150134586Y-95431480D01*
X150100000Y-95605358D01*
X145325000Y-95605358D01*
X145325000Y-90050000D01*
X147898549Y-90050000D01*
X147898549Y-90850000D01*
X147904341Y-90908810D01*
X147921496Y-90965360D01*
X147949353Y-91017477D01*
X147986842Y-91063158D01*
X148032523Y-91100647D01*
X148084640Y-91128504D01*
X148141190Y-91145659D01*
X148200000Y-91151451D01*
X149100000Y-91151451D01*
X149158810Y-91145659D01*
X149215360Y-91128504D01*
X149267477Y-91100647D01*
X149313158Y-91063158D01*
X149350647Y-91017477D01*
X149359988Y-91000000D01*
X149898549Y-91000000D01*
X149898549Y-91800000D01*
X149904341Y-91858810D01*
X149921496Y-91915360D01*
X149949353Y-91967477D01*
X149986842Y-92013158D01*
X150032523Y-92050647D01*
X150084640Y-92078504D01*
X150141190Y-92095659D01*
X150200000Y-92101451D01*
X151100000Y-92101451D01*
X151158810Y-92095659D01*
X151215360Y-92078504D01*
X151267477Y-92050647D01*
X151313158Y-92013158D01*
X151350647Y-91967477D01*
X151378504Y-91915360D01*
X151395659Y-91858810D01*
X151401451Y-91800000D01*
X152845304Y-91800000D01*
X152896409Y-91841941D01*
X152983103Y-91888280D01*
X153077172Y-91916816D01*
X153175000Y-91926451D01*
X153725000Y-91926451D01*
X153822828Y-91916816D01*
X153916897Y-91888280D01*
X154003591Y-91841941D01*
X154079579Y-91779579D01*
X154141941Y-91703591D01*
X154183948Y-91625000D01*
X155414058Y-91625000D01*
X155425797Y-91744189D01*
X155460563Y-91858797D01*
X155517020Y-91964421D01*
X155592999Y-92057001D01*
X155685579Y-92132980D01*
X155791203Y-92189437D01*
X155905811Y-92224203D01*
X156025000Y-92235942D01*
X156194000Y-92233000D01*
X156346000Y-92081000D01*
X156346000Y-91379000D01*
X156654000Y-91379000D01*
X156654000Y-92081000D01*
X156806000Y-92233000D01*
X156975000Y-92235942D01*
X157094189Y-92224203D01*
X157208797Y-92189437D01*
X157314421Y-92132980D01*
X157407001Y-92057001D01*
X157482980Y-91964421D01*
X157539437Y-91858797D01*
X157574203Y-91744189D01*
X157585942Y-91625000D01*
X157583000Y-91531000D01*
X157431000Y-91379000D01*
X156654000Y-91379000D01*
X156346000Y-91379000D01*
X155569000Y-91379000D01*
X155417000Y-91531000D01*
X155414058Y-91625000D01*
X154183948Y-91625000D01*
X154188280Y-91616897D01*
X154216816Y-91522828D01*
X154226451Y-91425000D01*
X154226451Y-91025000D01*
X154216816Y-90927172D01*
X154188280Y-90833103D01*
X154141941Y-90746409D01*
X154079579Y-90670421D01*
X154003591Y-90608059D01*
X153916897Y-90561720D01*
X153822828Y-90533184D01*
X153725000Y-90523549D01*
X153175000Y-90523549D01*
X153077172Y-90533184D01*
X152983103Y-90561720D01*
X152896409Y-90608059D01*
X152820421Y-90670421D01*
X152758059Y-90746409D01*
X152711720Y-90833103D01*
X152683184Y-90927172D01*
X152676011Y-91000000D01*
X151401451Y-91000000D01*
X151395659Y-90941190D01*
X151378504Y-90884640D01*
X151350647Y-90832523D01*
X151313158Y-90786842D01*
X151267477Y-90749353D01*
X151215360Y-90721496D01*
X151158810Y-90704341D01*
X151100000Y-90698549D01*
X150200000Y-90698549D01*
X150141190Y-90704341D01*
X150084640Y-90721496D01*
X150032523Y-90749353D01*
X149986842Y-90786842D01*
X149949353Y-90832523D01*
X149921496Y-90884640D01*
X149904341Y-90941190D01*
X149898549Y-91000000D01*
X149359988Y-91000000D01*
X149378504Y-90965360D01*
X149395659Y-90908810D01*
X149401451Y-90850000D01*
X149401451Y-90050000D01*
X149395659Y-89991190D01*
X149378504Y-89934640D01*
X149359989Y-89900000D01*
X149589058Y-89900000D01*
X149600797Y-90019189D01*
X149635563Y-90133797D01*
X149692020Y-90239421D01*
X149767999Y-90332001D01*
X149860579Y-90407980D01*
X149966203Y-90464437D01*
X150080811Y-90499203D01*
X150200000Y-90510942D01*
X150344000Y-90508000D01*
X150496000Y-90356000D01*
X150496000Y-89654000D01*
X150804000Y-89654000D01*
X150804000Y-90356000D01*
X150956000Y-90508000D01*
X151100000Y-90510942D01*
X151219189Y-90499203D01*
X151333797Y-90464437D01*
X151439421Y-90407980D01*
X151532001Y-90332001D01*
X151607980Y-90239421D01*
X151664437Y-90133797D01*
X151699203Y-90019189D01*
X151710942Y-89900000D01*
X151708000Y-89806000D01*
X151556000Y-89654000D01*
X150804000Y-89654000D01*
X150496000Y-89654000D01*
X149744000Y-89654000D01*
X149592000Y-89806000D01*
X149589058Y-89900000D01*
X149359989Y-89900000D01*
X149350647Y-89882523D01*
X149313158Y-89836842D01*
X149267477Y-89799353D01*
X149215360Y-89771496D01*
X149158810Y-89754341D01*
X149125000Y-89751011D01*
X149125000Y-89375000D01*
X152673549Y-89375000D01*
X152673549Y-89775000D01*
X152683184Y-89872828D01*
X152711720Y-89966897D01*
X152758059Y-90053591D01*
X152820421Y-90129579D01*
X152896409Y-90191941D01*
X152983103Y-90238280D01*
X153077172Y-90266816D01*
X153175000Y-90276451D01*
X153725000Y-90276451D01*
X153822828Y-90266816D01*
X153916897Y-90238280D01*
X154003591Y-90191941D01*
X154079579Y-90129579D01*
X154141941Y-90053591D01*
X154183949Y-89975000D01*
X155766051Y-89975000D01*
X155808059Y-90053591D01*
X155870421Y-90129579D01*
X155946409Y-90191941D01*
X155993577Y-90217153D01*
X155905811Y-90225797D01*
X155791203Y-90260563D01*
X155685579Y-90317020D01*
X155592999Y-90392999D01*
X155517020Y-90485579D01*
X155460563Y-90591203D01*
X155425797Y-90705811D01*
X155414058Y-90825000D01*
X155417000Y-90919000D01*
X155569000Y-91071000D01*
X156346000Y-91071000D01*
X156346000Y-91051000D01*
X156654000Y-91051000D01*
X156654000Y-91071000D01*
X157431000Y-91071000D01*
X157583000Y-90919000D01*
X157585942Y-90825000D01*
X157574203Y-90705811D01*
X157539437Y-90591203D01*
X157482980Y-90485579D01*
X157407001Y-90392999D01*
X157314421Y-90317020D01*
X157208797Y-90260563D01*
X157094189Y-90225797D01*
X157006423Y-90217153D01*
X157053591Y-90191941D01*
X157129579Y-90129579D01*
X157191941Y-90053591D01*
X157238280Y-89966897D01*
X157266816Y-89872828D01*
X157276451Y-89775000D01*
X157276451Y-89375000D01*
X157273835Y-89348441D01*
X157334668Y-89307794D01*
X157407794Y-89234668D01*
X157465249Y-89148681D01*
X157504824Y-89053137D01*
X157525000Y-88951708D01*
X157525000Y-88848292D01*
X157504824Y-88746863D01*
X157465249Y-88651319D01*
X157407794Y-88565332D01*
X157334668Y-88492206D01*
X157248681Y-88434751D01*
X157153137Y-88395176D01*
X157051708Y-88375000D01*
X156948292Y-88375000D01*
X156846863Y-88395176D01*
X156751319Y-88434751D01*
X156665332Y-88492206D01*
X156592206Y-88565332D01*
X156534751Y-88651319D01*
X156495176Y-88746863D01*
X156475000Y-88848292D01*
X156475000Y-88859314D01*
X156460766Y-88873549D01*
X156225000Y-88873549D01*
X156127172Y-88883184D01*
X156033103Y-88911720D01*
X155946409Y-88958059D01*
X155870421Y-89020421D01*
X155808059Y-89096409D01*
X155766051Y-89175000D01*
X154183949Y-89175000D01*
X154141941Y-89096409D01*
X154079579Y-89020421D01*
X154003591Y-88958059D01*
X153916897Y-88911720D01*
X153822828Y-88883184D01*
X153725000Y-88873549D01*
X153175000Y-88873549D01*
X153077172Y-88883184D01*
X152983103Y-88911720D01*
X152896409Y-88958059D01*
X152820421Y-89020421D01*
X152758059Y-89096409D01*
X152711720Y-89183103D01*
X152683184Y-89277172D01*
X152673549Y-89375000D01*
X149125000Y-89375000D01*
X149125000Y-89100000D01*
X149589058Y-89100000D01*
X149592000Y-89194000D01*
X149744000Y-89346000D01*
X150496000Y-89346000D01*
X150496000Y-88644000D01*
X150804000Y-88644000D01*
X150804000Y-89346000D01*
X151556000Y-89346000D01*
X151708000Y-89194000D01*
X151710942Y-89100000D01*
X151699203Y-88980811D01*
X151664437Y-88866203D01*
X151607980Y-88760579D01*
X151532001Y-88667999D01*
X151439421Y-88592020D01*
X151333797Y-88535563D01*
X151219189Y-88500797D01*
X151100000Y-88489058D01*
X150956000Y-88492000D01*
X150804000Y-88644000D01*
X150496000Y-88644000D01*
X150344000Y-88492000D01*
X150200000Y-88489058D01*
X150080811Y-88500797D01*
X149966203Y-88535563D01*
X149860579Y-88592020D01*
X149767999Y-88667999D01*
X149692020Y-88760579D01*
X149635563Y-88866203D01*
X149600797Y-88980811D01*
X149589058Y-89100000D01*
X149125000Y-89100000D01*
X149125000Y-88150990D01*
X149166897Y-88138280D01*
X149253591Y-88091941D01*
X149329579Y-88029579D01*
X149391941Y-87953591D01*
X149438280Y-87866897D01*
X149466816Y-87772828D01*
X149476451Y-87675000D01*
X149476451Y-87275000D01*
X149466816Y-87177172D01*
X149438280Y-87083103D01*
X149391941Y-86996409D01*
X149329579Y-86920421D01*
X149253591Y-86858059D01*
X149166897Y-86811720D01*
X149072828Y-86783184D01*
X148975000Y-86773549D01*
X148425000Y-86773549D01*
X148327172Y-86783184D01*
X148233103Y-86811720D01*
X148146409Y-86858059D01*
X148070421Y-86920421D01*
X148008059Y-86996409D01*
X147961720Y-87083103D01*
X147933184Y-87177172D01*
X147923549Y-87275000D01*
X147923549Y-87675000D01*
X147933184Y-87772828D01*
X147961720Y-87866897D01*
X148008059Y-87953591D01*
X148070421Y-88029579D01*
X148146409Y-88091941D01*
X148233103Y-88138280D01*
X148275000Y-88150990D01*
X148275001Y-89748549D01*
X148200000Y-89748549D01*
X148141190Y-89754341D01*
X148084640Y-89771496D01*
X148032523Y-89799353D01*
X147986842Y-89836842D01*
X147949353Y-89882523D01*
X147921496Y-89934640D01*
X147904341Y-89991190D01*
X147898549Y-90050000D01*
X145325000Y-90050000D01*
X145325000Y-85625000D01*
X147923549Y-85625000D01*
X147923549Y-86025000D01*
X147933184Y-86122828D01*
X147961720Y-86216897D01*
X148008059Y-86303591D01*
X148070421Y-86379579D01*
X148146409Y-86441941D01*
X148233103Y-86488280D01*
X148327172Y-86516816D01*
X148425000Y-86526451D01*
X148975000Y-86526451D01*
X149072828Y-86516816D01*
X149166897Y-86488280D01*
X149253591Y-86441941D01*
X149329579Y-86379579D01*
X149391941Y-86303591D01*
X149433949Y-86225000D01*
X149866051Y-86225000D01*
X149908059Y-86303591D01*
X149970421Y-86379579D01*
X150046409Y-86441941D01*
X150104962Y-86473238D01*
X150095176Y-86496863D01*
X150075000Y-86598292D01*
X150075000Y-86701708D01*
X150095176Y-86803137D01*
X150104962Y-86826762D01*
X150046409Y-86858059D01*
X149970421Y-86920421D01*
X149908059Y-86996409D01*
X149861720Y-87083103D01*
X149833184Y-87177172D01*
X149823549Y-87275000D01*
X149823549Y-87675000D01*
X149833184Y-87772828D01*
X149861720Y-87866897D01*
X149908059Y-87953591D01*
X149970421Y-88029579D01*
X150046409Y-88091941D01*
X150133103Y-88138280D01*
X150227172Y-88166816D01*
X150325000Y-88176451D01*
X150875000Y-88176451D01*
X150972828Y-88166816D01*
X151066897Y-88138280D01*
X151153591Y-88091941D01*
X151229579Y-88029579D01*
X151291941Y-87953591D01*
X151338280Y-87866897D01*
X151366816Y-87772828D01*
X151376451Y-87675000D01*
X151376451Y-87275000D01*
X151366816Y-87177172D01*
X151338280Y-87083103D01*
X151291941Y-86996409D01*
X151229579Y-86920421D01*
X151153591Y-86858059D01*
X151095038Y-86826762D01*
X151104824Y-86803137D01*
X151125000Y-86701708D01*
X151125000Y-86598292D01*
X151104824Y-86496863D01*
X151095038Y-86473238D01*
X151153591Y-86441941D01*
X151229579Y-86379579D01*
X151291941Y-86303591D01*
X151338280Y-86216897D01*
X151366816Y-86122828D01*
X151376451Y-86025000D01*
X151376451Y-85625000D01*
X151366816Y-85527172D01*
X151338280Y-85433103D01*
X151291941Y-85346409D01*
X151229579Y-85270421D01*
X151153591Y-85208059D01*
X151066897Y-85161720D01*
X150972828Y-85133184D01*
X150875000Y-85123549D01*
X150750000Y-85123549D01*
X150750000Y-84551451D01*
X151050000Y-84551451D01*
X151108810Y-84545659D01*
X151165360Y-84528504D01*
X151217477Y-84500647D01*
X151263158Y-84463158D01*
X151300647Y-84417477D01*
X151328504Y-84365360D01*
X151345659Y-84308810D01*
X151351451Y-84250000D01*
X151351451Y-83450000D01*
X151345659Y-83391190D01*
X151328504Y-83334640D01*
X151300647Y-83282523D01*
X151263158Y-83236842D01*
X151217477Y-83199353D01*
X151165360Y-83171496D01*
X151108810Y-83154341D01*
X151050000Y-83148549D01*
X150150000Y-83148549D01*
X150091190Y-83154341D01*
X150034640Y-83171496D01*
X149982523Y-83199353D01*
X149936842Y-83236842D01*
X149899353Y-83282523D01*
X149871496Y-83334640D01*
X149854341Y-83391190D01*
X149848549Y-83450000D01*
X149848549Y-84250000D01*
X149854341Y-84308810D01*
X149871496Y-84365360D01*
X149899353Y-84417477D01*
X149936842Y-84463158D01*
X149950001Y-84473957D01*
X149950000Y-85295304D01*
X149908059Y-85346409D01*
X149866051Y-85425000D01*
X149433949Y-85425000D01*
X149391941Y-85346409D01*
X149329579Y-85270421D01*
X149253591Y-85208059D01*
X149166897Y-85161720D01*
X149072828Y-85133184D01*
X148975000Y-85123549D01*
X148425000Y-85123549D01*
X148327172Y-85133184D01*
X148233103Y-85161720D01*
X148146409Y-85208059D01*
X148070421Y-85270421D01*
X148008059Y-85346409D01*
X147961720Y-85433103D01*
X147933184Y-85527172D01*
X147923549Y-85625000D01*
X145325000Y-85625000D01*
X145325000Y-83931056D01*
X146900000Y-83931056D01*
X146900000Y-84068944D01*
X146926901Y-84204182D01*
X146979668Y-84331574D01*
X147056274Y-84446224D01*
X147153776Y-84543726D01*
X147268426Y-84620332D01*
X147395818Y-84673099D01*
X147531056Y-84700000D01*
X147668944Y-84700000D01*
X147804182Y-84673099D01*
X147931574Y-84620332D01*
X148046224Y-84543726D01*
X148143726Y-84446224D01*
X148220332Y-84331574D01*
X148243431Y-84275807D01*
X148917788Y-83601451D01*
X149050000Y-83601451D01*
X149108810Y-83595659D01*
X149165360Y-83578504D01*
X149217477Y-83550647D01*
X149263158Y-83513158D01*
X149300647Y-83467477D01*
X149328504Y-83415360D01*
X149345659Y-83358810D01*
X149351451Y-83300000D01*
X149351451Y-82500000D01*
X149345659Y-82441190D01*
X149328504Y-82384640D01*
X149300647Y-82332523D01*
X149263158Y-82286842D01*
X149217477Y-82249353D01*
X149165360Y-82221496D01*
X149138244Y-82213270D01*
X149150000Y-82154170D01*
X149150000Y-82045830D01*
X149128864Y-81939571D01*
X149087403Y-81839477D01*
X149027213Y-81749396D01*
X148950604Y-81672787D01*
X148860523Y-81612597D01*
X148760429Y-81571136D01*
X148654170Y-81550000D01*
X149848549Y-81550000D01*
X149848549Y-82350000D01*
X149854341Y-82408810D01*
X149871496Y-82465360D01*
X149899353Y-82517477D01*
X149936842Y-82563158D01*
X149982523Y-82600647D01*
X150034640Y-82628504D01*
X150091190Y-82645659D01*
X150150000Y-82651451D01*
X151050000Y-82651451D01*
X151108810Y-82645659D01*
X151165360Y-82628504D01*
X151217477Y-82600647D01*
X151263158Y-82563158D01*
X151273956Y-82550000D01*
X152364058Y-82550000D01*
X152375797Y-82669189D01*
X152410563Y-82783797D01*
X152467020Y-82889421D01*
X152542999Y-82982001D01*
X152635579Y-83057980D01*
X152741203Y-83114437D01*
X152800140Y-83132315D01*
X152761219Y-83179742D01*
X152713147Y-83269678D01*
X152683545Y-83367264D01*
X152673549Y-83468750D01*
X152673549Y-83906250D01*
X152683545Y-84007736D01*
X152713147Y-84105322D01*
X152761219Y-84195258D01*
X152825912Y-84274088D01*
X152904742Y-84338781D01*
X152950001Y-84362972D01*
X152950000Y-85179414D01*
X152896409Y-85208059D01*
X152820421Y-85270421D01*
X152758059Y-85346409D01*
X152711720Y-85433103D01*
X152683184Y-85527172D01*
X152673549Y-85625000D01*
X152673549Y-86025000D01*
X152683184Y-86122828D01*
X152711720Y-86216897D01*
X152758059Y-86303591D01*
X152820421Y-86379579D01*
X152896409Y-86441941D01*
X152954962Y-86473238D01*
X152945176Y-86496863D01*
X152925000Y-86598292D01*
X152925000Y-86701708D01*
X152945176Y-86803137D01*
X152954962Y-86826762D01*
X152896409Y-86858059D01*
X152820421Y-86920421D01*
X152758059Y-86996409D01*
X152711720Y-87083103D01*
X152683184Y-87177172D01*
X152673549Y-87275000D01*
X152673549Y-87675000D01*
X152683184Y-87772828D01*
X152711720Y-87866897D01*
X152758059Y-87953591D01*
X152820421Y-88029579D01*
X152896409Y-88091941D01*
X152983103Y-88138280D01*
X153077172Y-88166816D01*
X153175000Y-88176451D01*
X153725000Y-88176451D01*
X153822828Y-88166816D01*
X153916897Y-88138280D01*
X154003591Y-88091941D01*
X154079579Y-88029579D01*
X154141941Y-87953591D01*
X154188280Y-87866897D01*
X154216816Y-87772828D01*
X154226451Y-87675000D01*
X154226451Y-87275000D01*
X154216816Y-87177172D01*
X154188280Y-87083103D01*
X154141941Y-86996409D01*
X154079579Y-86920421D01*
X154003591Y-86858059D01*
X153945038Y-86826762D01*
X153954824Y-86803137D01*
X153975000Y-86701708D01*
X153975000Y-86598292D01*
X153954824Y-86496863D01*
X153945038Y-86473238D01*
X154003591Y-86441941D01*
X154079579Y-86379579D01*
X154141941Y-86303591D01*
X154188280Y-86216897D01*
X154216816Y-86122828D01*
X154226451Y-86025000D01*
X154226451Y-85625000D01*
X154216816Y-85527172D01*
X154188280Y-85433103D01*
X154141941Y-85346409D01*
X154079579Y-85270421D01*
X154003591Y-85208059D01*
X153916897Y-85161720D01*
X153822828Y-85133184D01*
X153750000Y-85126011D01*
X153750000Y-84422142D01*
X153807736Y-84416455D01*
X153905322Y-84386853D01*
X153995258Y-84338781D01*
X154074088Y-84274088D01*
X154138781Y-84195258D01*
X154186853Y-84105322D01*
X154216455Y-84007736D01*
X154226451Y-83906250D01*
X154226451Y-83468750D01*
X154216455Y-83367264D01*
X154186853Y-83269678D01*
X154138781Y-83179742D01*
X154099860Y-83132315D01*
X154158797Y-83114437D01*
X154264421Y-83057980D01*
X154357001Y-82982001D01*
X154432980Y-82889421D01*
X154489437Y-82783797D01*
X154524203Y-82669189D01*
X154535942Y-82550000D01*
X155414058Y-82550000D01*
X155425797Y-82669189D01*
X155460563Y-82783797D01*
X155517020Y-82889421D01*
X155592999Y-82982001D01*
X155685579Y-83057980D01*
X155791203Y-83114437D01*
X155850140Y-83132315D01*
X155811219Y-83179742D01*
X155763147Y-83269678D01*
X155733545Y-83367264D01*
X155723549Y-83468750D01*
X155723549Y-83906250D01*
X155733545Y-84007736D01*
X155763147Y-84105322D01*
X155811219Y-84195258D01*
X155875912Y-84274088D01*
X155954742Y-84338781D01*
X156044678Y-84386853D01*
X156100000Y-84403635D01*
X156100001Y-85141426D01*
X156033103Y-85161720D01*
X155946409Y-85208059D01*
X155870421Y-85270421D01*
X155808059Y-85346409D01*
X155761720Y-85433103D01*
X155733184Y-85527172D01*
X155723549Y-85625000D01*
X155723549Y-86025000D01*
X155733184Y-86122828D01*
X155761720Y-86216897D01*
X155808059Y-86303591D01*
X155870421Y-86379579D01*
X155946409Y-86441941D01*
X156033103Y-86488280D01*
X156127172Y-86516816D01*
X156225000Y-86526451D01*
X156553631Y-86526451D01*
X156545176Y-86546863D01*
X156525000Y-86648292D01*
X156525000Y-86659315D01*
X156410766Y-86773549D01*
X156225000Y-86773549D01*
X156127172Y-86783184D01*
X156033103Y-86811720D01*
X155946409Y-86858059D01*
X155870421Y-86920421D01*
X155808059Y-86996409D01*
X155761720Y-87083103D01*
X155733184Y-87177172D01*
X155723549Y-87275000D01*
X155723549Y-87675000D01*
X155733184Y-87772828D01*
X155761720Y-87866897D01*
X155808059Y-87953591D01*
X155870421Y-88029579D01*
X155946409Y-88091941D01*
X156033103Y-88138280D01*
X156127172Y-88166816D01*
X156225000Y-88176451D01*
X156775000Y-88176451D01*
X156872828Y-88166816D01*
X156966897Y-88138280D01*
X157053591Y-88091941D01*
X157129579Y-88029579D01*
X157191941Y-87953591D01*
X157238280Y-87866897D01*
X157266816Y-87772828D01*
X157276451Y-87675000D01*
X157276451Y-87275000D01*
X157266937Y-87178398D01*
X157298681Y-87165249D01*
X157384668Y-87107794D01*
X157457794Y-87034668D01*
X157515249Y-86948681D01*
X157554824Y-86853137D01*
X157575000Y-86751708D01*
X157575000Y-86648292D01*
X157554824Y-86546863D01*
X157515249Y-86451319D01*
X157457794Y-86365332D01*
X157384668Y-86292206D01*
X157298681Y-86234751D01*
X157240211Y-86210532D01*
X157266816Y-86122828D01*
X157276451Y-86025000D01*
X157276451Y-85625000D01*
X157271912Y-85578910D01*
X159492097Y-85578910D01*
X159574444Y-85806685D01*
X159718273Y-86053631D01*
X159907515Y-86267772D01*
X160134897Y-86440879D01*
X160355339Y-86548549D01*
X160300000Y-86548549D01*
X160192417Y-86559145D01*
X160088969Y-86590526D01*
X159993630Y-86641485D01*
X159910065Y-86710065D01*
X159841485Y-86793630D01*
X159790526Y-86888969D01*
X159759145Y-86992417D01*
X159748549Y-87100000D01*
X159748549Y-88300000D01*
X159759145Y-88407583D01*
X159790526Y-88511031D01*
X159841485Y-88606370D01*
X159910065Y-88689935D01*
X159993630Y-88758515D01*
X160088969Y-88809474D01*
X160192417Y-88840855D01*
X160300000Y-88851451D01*
X161800000Y-88851451D01*
X161907583Y-88840855D01*
X162011031Y-88809474D01*
X162106370Y-88758515D01*
X162189935Y-88689935D01*
X162258515Y-88606370D01*
X162309474Y-88511031D01*
X162340855Y-88407583D01*
X162351451Y-88300000D01*
X162351451Y-87100000D01*
X162340855Y-86992417D01*
X162309474Y-86888969D01*
X162258515Y-86793630D01*
X162189935Y-86710065D01*
X162106370Y-86641485D01*
X162011031Y-86590526D01*
X161907583Y-86559145D01*
X161800000Y-86548549D01*
X161744661Y-86548549D01*
X161965103Y-86440879D01*
X162192485Y-86267772D01*
X162381727Y-86053631D01*
X162525556Y-85806685D01*
X162607903Y-85578910D01*
X162496889Y-85354000D01*
X161204000Y-85354000D01*
X161204000Y-85374000D01*
X160896000Y-85374000D01*
X160896000Y-85354000D01*
X159603111Y-85354000D01*
X159492097Y-85578910D01*
X157271912Y-85578910D01*
X157266816Y-85527172D01*
X157238280Y-85433103D01*
X157191941Y-85346409D01*
X157129579Y-85270421D01*
X157053591Y-85208059D01*
X156966897Y-85161720D01*
X156900000Y-85141427D01*
X156900000Y-84821090D01*
X159492097Y-84821090D01*
X159603111Y-85046000D01*
X160896000Y-85046000D01*
X160896000Y-83894211D01*
X161204000Y-83894211D01*
X161204000Y-85046000D01*
X162496889Y-85046000D01*
X162607903Y-84821090D01*
X162525556Y-84593315D01*
X162381727Y-84346369D01*
X162192485Y-84132228D01*
X161965103Y-83959121D01*
X161708318Y-83833700D01*
X161431999Y-83760785D01*
X161204000Y-83894211D01*
X160896000Y-83894211D01*
X160668001Y-83760785D01*
X160391682Y-83833700D01*
X160134897Y-83959121D01*
X159907515Y-84132228D01*
X159718273Y-84346369D01*
X159574444Y-84593315D01*
X159492097Y-84821090D01*
X156900000Y-84821090D01*
X156900000Y-84403635D01*
X156955322Y-84386853D01*
X157045258Y-84338781D01*
X157124088Y-84274088D01*
X157188781Y-84195258D01*
X157236853Y-84105322D01*
X157266455Y-84007736D01*
X157276451Y-83906250D01*
X157276451Y-83468750D01*
X157266455Y-83367264D01*
X157236853Y-83269678D01*
X157188781Y-83179742D01*
X157149860Y-83132315D01*
X157208797Y-83114437D01*
X157314421Y-83057980D01*
X157407001Y-82982001D01*
X157482980Y-82889421D01*
X157539437Y-82783797D01*
X157574203Y-82669189D01*
X157585942Y-82550000D01*
X157583000Y-82418500D01*
X157431000Y-82266500D01*
X156654000Y-82266500D01*
X156654000Y-82286500D01*
X156346000Y-82286500D01*
X156346000Y-82266500D01*
X155569000Y-82266500D01*
X155417000Y-82418500D01*
X155414058Y-82550000D01*
X154535942Y-82550000D01*
X154533000Y-82418500D01*
X154381000Y-82266500D01*
X153604000Y-82266500D01*
X153604000Y-82286500D01*
X153296000Y-82286500D01*
X153296000Y-82266500D01*
X152519000Y-82266500D01*
X152367000Y-82418500D01*
X152364058Y-82550000D01*
X151273956Y-82550000D01*
X151300647Y-82517477D01*
X151328504Y-82465360D01*
X151345659Y-82408810D01*
X151351451Y-82350000D01*
X151351451Y-81675000D01*
X152364058Y-81675000D01*
X152367000Y-81806500D01*
X152519000Y-81958500D01*
X153296000Y-81958500D01*
X153296000Y-81219000D01*
X153604000Y-81219000D01*
X153604000Y-81958500D01*
X154381000Y-81958500D01*
X154533000Y-81806500D01*
X154535942Y-81675000D01*
X155414058Y-81675000D01*
X155417000Y-81806500D01*
X155569000Y-81958500D01*
X156346000Y-81958500D01*
X156346000Y-81219000D01*
X156654000Y-81219000D01*
X156654000Y-81958500D01*
X157431000Y-81958500D01*
X157583000Y-81806500D01*
X157585942Y-81675000D01*
X157574203Y-81555811D01*
X157539437Y-81441203D01*
X157482980Y-81335579D01*
X157407001Y-81242999D01*
X157314421Y-81167020D01*
X157208797Y-81110563D01*
X157094189Y-81075797D01*
X156975000Y-81064058D01*
X156806000Y-81067000D01*
X156654000Y-81219000D01*
X156346000Y-81219000D01*
X156194000Y-81067000D01*
X156025000Y-81064058D01*
X155905811Y-81075797D01*
X155791203Y-81110563D01*
X155685579Y-81167020D01*
X155592999Y-81242999D01*
X155517020Y-81335579D01*
X155460563Y-81441203D01*
X155425797Y-81555811D01*
X155414058Y-81675000D01*
X154535942Y-81675000D01*
X154524203Y-81555811D01*
X154489437Y-81441203D01*
X154432980Y-81335579D01*
X154357001Y-81242999D01*
X154264421Y-81167020D01*
X154158797Y-81110563D01*
X154044189Y-81075797D01*
X153925000Y-81064058D01*
X153756000Y-81067000D01*
X153604000Y-81219000D01*
X153296000Y-81219000D01*
X153144000Y-81067000D01*
X152975000Y-81064058D01*
X152855811Y-81075797D01*
X152741203Y-81110563D01*
X152635579Y-81167020D01*
X152542999Y-81242999D01*
X152467020Y-81335579D01*
X152410563Y-81441203D01*
X152375797Y-81555811D01*
X152364058Y-81675000D01*
X151351451Y-81675000D01*
X151351451Y-81550000D01*
X151345659Y-81491190D01*
X151328504Y-81434640D01*
X151300647Y-81382523D01*
X151263158Y-81336842D01*
X151250000Y-81326044D01*
X151250000Y-81159948D01*
X151273099Y-81104182D01*
X151300000Y-80968944D01*
X151300000Y-80831056D01*
X151273099Y-80695818D01*
X151220332Y-80568426D01*
X151143726Y-80453776D01*
X151046224Y-80356274D01*
X150931574Y-80279668D01*
X150804182Y-80226901D01*
X150668944Y-80200000D01*
X150531056Y-80200000D01*
X150395818Y-80226901D01*
X150268426Y-80279668D01*
X150153776Y-80356274D01*
X150056274Y-80453776D01*
X149979668Y-80568426D01*
X149926901Y-80695818D01*
X149900000Y-80831056D01*
X149900000Y-80968944D01*
X149926901Y-81104182D01*
X149950000Y-81159948D01*
X149950000Y-81326044D01*
X149936842Y-81336842D01*
X149899353Y-81382523D01*
X149871496Y-81434640D01*
X149854341Y-81491190D01*
X149848549Y-81550000D01*
X148654170Y-81550000D01*
X148545830Y-81550000D01*
X148439571Y-81571136D01*
X148339477Y-81612597D01*
X148249396Y-81672787D01*
X148172787Y-81749396D01*
X148112597Y-81839477D01*
X148071136Y-81939571D01*
X148050000Y-82045830D01*
X148050000Y-82154170D01*
X148061756Y-82213270D01*
X148034640Y-82221496D01*
X147982523Y-82249353D01*
X147936842Y-82286842D01*
X147899353Y-82332523D01*
X147871496Y-82384640D01*
X147854341Y-82441190D01*
X147848549Y-82500000D01*
X147848549Y-82832212D01*
X147324193Y-83356569D01*
X147268426Y-83379668D01*
X147153776Y-83456274D01*
X147056274Y-83553776D01*
X146979668Y-83668426D01*
X146926901Y-83795818D01*
X146900000Y-83931056D01*
X145325000Y-83931056D01*
X145325000Y-74093965D01*
X148050000Y-74093965D01*
X148050000Y-75802036D01*
X148065916Y-75963638D01*
X148128817Y-76170988D01*
X148230959Y-76362084D01*
X148368420Y-76529581D01*
X148535917Y-76667042D01*
X148727013Y-76769184D01*
X148934363Y-76832084D01*
X149150000Y-76853322D01*
X149365638Y-76832084D01*
X149572988Y-76769184D01*
X149764084Y-76667042D01*
X149931581Y-76529581D01*
X149957498Y-76498000D01*
X150348549Y-76498000D01*
X150348549Y-78298000D01*
X150354341Y-78356810D01*
X150371496Y-78413360D01*
X150399353Y-78465477D01*
X150436842Y-78511158D01*
X150482523Y-78548647D01*
X150500001Y-78557989D01*
X150500001Y-79268330D01*
X150468287Y-79315793D01*
X150423058Y-79424986D01*
X150400000Y-79540905D01*
X150400000Y-79659095D01*
X150423058Y-79775014D01*
X150468287Y-79884207D01*
X150533950Y-79982478D01*
X150617522Y-80066050D01*
X150715793Y-80131713D01*
X150824986Y-80176942D01*
X150940905Y-80200000D01*
X151059095Y-80200000D01*
X151175014Y-80176942D01*
X151284207Y-80131713D01*
X151382478Y-80066050D01*
X151466050Y-79982478D01*
X151531713Y-79884207D01*
X151576942Y-79775014D01*
X151600000Y-79659095D01*
X151600000Y-79574612D01*
X151668426Y-79620332D01*
X151795818Y-79673099D01*
X151931056Y-79700000D01*
X152068944Y-79700000D01*
X152204182Y-79673099D01*
X152331574Y-79620332D01*
X152400000Y-79574612D01*
X152400000Y-79659095D01*
X152423058Y-79775014D01*
X152468287Y-79884207D01*
X152533950Y-79982478D01*
X152617522Y-80066050D01*
X152715793Y-80131713D01*
X152824986Y-80176942D01*
X152940905Y-80200000D01*
X153059095Y-80200000D01*
X153175014Y-80176942D01*
X153284207Y-80131713D01*
X153382478Y-80066050D01*
X153466050Y-79982478D01*
X153531713Y-79884207D01*
X153576942Y-79775014D01*
X153600000Y-79659095D01*
X153600000Y-79540905D01*
X153577062Y-79425590D01*
X153617522Y-79466050D01*
X153715793Y-79531713D01*
X153824986Y-79576942D01*
X153940905Y-79600000D01*
X154059095Y-79600000D01*
X154175014Y-79576942D01*
X154284207Y-79531713D01*
X154302270Y-79519644D01*
X154300000Y-79531056D01*
X154300000Y-79668944D01*
X154326901Y-79804182D01*
X154379668Y-79931574D01*
X154456274Y-80046224D01*
X154553776Y-80143726D01*
X154668426Y-80220332D01*
X154795818Y-80273099D01*
X154931056Y-80300000D01*
X155068944Y-80300000D01*
X155204182Y-80273099D01*
X155331574Y-80220332D01*
X155446224Y-80143726D01*
X155543726Y-80046224D01*
X155620332Y-79931574D01*
X155673099Y-79804182D01*
X155700000Y-79668944D01*
X155700000Y-79531056D01*
X155697730Y-79519644D01*
X155715793Y-79531713D01*
X155824986Y-79576942D01*
X155940905Y-79600000D01*
X156059095Y-79600000D01*
X156175014Y-79576942D01*
X156284207Y-79531713D01*
X156382478Y-79466050D01*
X156422938Y-79425590D01*
X156400000Y-79540905D01*
X156400000Y-79659095D01*
X156423058Y-79775014D01*
X156468287Y-79884207D01*
X156533950Y-79982478D01*
X156617522Y-80066050D01*
X156715793Y-80131713D01*
X156824986Y-80176942D01*
X156940905Y-80200000D01*
X157059095Y-80200000D01*
X157175014Y-80176942D01*
X157284207Y-80131713D01*
X157382478Y-80066050D01*
X157466050Y-79982478D01*
X157531713Y-79884207D01*
X157576942Y-79775014D01*
X157600000Y-79659095D01*
X157600000Y-79540905D01*
X157576942Y-79424986D01*
X157531713Y-79315793D01*
X157500000Y-79268331D01*
X157500000Y-78887857D01*
X157530811Y-78897203D01*
X157650000Y-78908942D01*
X157694000Y-78906000D01*
X157846000Y-78754000D01*
X157846000Y-77552000D01*
X157826000Y-77552000D01*
X157826000Y-77244000D01*
X157846000Y-77244000D01*
X157846000Y-76042000D01*
X158154000Y-76042000D01*
X158154000Y-77244000D01*
X158174000Y-77244000D01*
X158174000Y-77552000D01*
X158154000Y-77552000D01*
X158154000Y-78754000D01*
X158306000Y-78906000D01*
X158350000Y-78908942D01*
X158469189Y-78897203D01*
X158500001Y-78887856D01*
X158500001Y-79268330D01*
X158468287Y-79315793D01*
X158423058Y-79424986D01*
X158400000Y-79540905D01*
X158400000Y-79659095D01*
X158423058Y-79775014D01*
X158468287Y-79884207D01*
X158533950Y-79982478D01*
X158617522Y-80066050D01*
X158715793Y-80131713D01*
X158824986Y-80176942D01*
X158940905Y-80200000D01*
X159059095Y-80200000D01*
X159175014Y-80176942D01*
X159284207Y-80131713D01*
X159382478Y-80066050D01*
X159466050Y-79982478D01*
X159531713Y-79884207D01*
X159576942Y-79775014D01*
X159600000Y-79659095D01*
X159600000Y-79540905D01*
X159576942Y-79424986D01*
X159531713Y-79315793D01*
X159500000Y-79268331D01*
X159500000Y-78557989D01*
X159517477Y-78548647D01*
X159563158Y-78511158D01*
X159600647Y-78465477D01*
X159628504Y-78413360D01*
X159645659Y-78356810D01*
X159651451Y-78298000D01*
X159651451Y-76498000D01*
X159645659Y-76439190D01*
X159628504Y-76382640D01*
X159600647Y-76330523D01*
X159563158Y-76284842D01*
X159517477Y-76247353D01*
X159465360Y-76219496D01*
X159408810Y-76202341D01*
X159350000Y-76196549D01*
X158878275Y-76196549D01*
X158857980Y-76158579D01*
X158782001Y-76065999D01*
X158689421Y-75990020D01*
X158583797Y-75933563D01*
X158469189Y-75898797D01*
X158350000Y-75887058D01*
X158306000Y-75890000D01*
X158154000Y-76042000D01*
X157846000Y-76042000D01*
X157694000Y-75890000D01*
X157650000Y-75887058D01*
X157530811Y-75898797D01*
X157416203Y-75933563D01*
X157310579Y-75990020D01*
X157217999Y-76065999D01*
X157142020Y-76158579D01*
X157121725Y-76196549D01*
X156650000Y-76196549D01*
X156591190Y-76202341D01*
X156534640Y-76219496D01*
X156500000Y-76238011D01*
X156465360Y-76219496D01*
X156408810Y-76202341D01*
X156350000Y-76196549D01*
X155650000Y-76196549D01*
X155591190Y-76202341D01*
X155534640Y-76219496D01*
X155500000Y-76238011D01*
X155465360Y-76219496D01*
X155408810Y-76202341D01*
X155350000Y-76196549D01*
X154650000Y-76196549D01*
X154591190Y-76202341D01*
X154534640Y-76219496D01*
X154500000Y-76238011D01*
X154465360Y-76219496D01*
X154408810Y-76202341D01*
X154350000Y-76196549D01*
X153650000Y-76196549D01*
X153591190Y-76202341D01*
X153534640Y-76219496D01*
X153500000Y-76238011D01*
X153465360Y-76219496D01*
X153408810Y-76202341D01*
X153350000Y-76196549D01*
X152650000Y-76196549D01*
X152591190Y-76202341D01*
X152534640Y-76219496D01*
X152500000Y-76238011D01*
X152465360Y-76219496D01*
X152408810Y-76202341D01*
X152350000Y-76196549D01*
X151650000Y-76196549D01*
X151591190Y-76202341D01*
X151534640Y-76219496D01*
X151500000Y-76238011D01*
X151465360Y-76219496D01*
X151408810Y-76202341D01*
X151350000Y-76196549D01*
X150650000Y-76196549D01*
X150591190Y-76202341D01*
X150534640Y-76219496D01*
X150482523Y-76247353D01*
X150436842Y-76284842D01*
X150399353Y-76330523D01*
X150371496Y-76382640D01*
X150354341Y-76439190D01*
X150348549Y-76498000D01*
X149957498Y-76498000D01*
X150069042Y-76362084D01*
X150171184Y-76170988D01*
X150234084Y-75963638D01*
X150250000Y-75802036D01*
X150250000Y-74864282D01*
X151900000Y-74864282D01*
X151900000Y-75031718D01*
X151932665Y-75195936D01*
X151996740Y-75350626D01*
X152089762Y-75489844D01*
X152208156Y-75608238D01*
X152347374Y-75701260D01*
X152502064Y-75765335D01*
X152666282Y-75798000D01*
X152833718Y-75798000D01*
X152997936Y-75765335D01*
X153152626Y-75701260D01*
X153291844Y-75608238D01*
X153410238Y-75489844D01*
X153503260Y-75350626D01*
X153567335Y-75195936D01*
X153600000Y-75031718D01*
X153600000Y-74864282D01*
X156400000Y-74864282D01*
X156400000Y-75031718D01*
X156432665Y-75195936D01*
X156496740Y-75350626D01*
X156589762Y-75489844D01*
X156708156Y-75608238D01*
X156847374Y-75701260D01*
X157002064Y-75765335D01*
X157166282Y-75798000D01*
X157333718Y-75798000D01*
X157497936Y-75765335D01*
X157652626Y-75701260D01*
X157791844Y-75608238D01*
X157910238Y-75489844D01*
X158003260Y-75350626D01*
X158067335Y-75195936D01*
X158100000Y-75031718D01*
X158100000Y-74864282D01*
X158067335Y-74700064D01*
X158003260Y-74545374D01*
X157910238Y-74406156D01*
X157791844Y-74287762D01*
X157652626Y-74194740D01*
X157497936Y-74130665D01*
X157333718Y-74098000D01*
X157166282Y-74098000D01*
X157002064Y-74130665D01*
X156847374Y-74194740D01*
X156708156Y-74287762D01*
X156589762Y-74406156D01*
X156496740Y-74545374D01*
X156432665Y-74700064D01*
X156400000Y-74864282D01*
X153600000Y-74864282D01*
X153567335Y-74700064D01*
X153503260Y-74545374D01*
X153410238Y-74406156D01*
X153291844Y-74287762D01*
X153152626Y-74194740D01*
X152997936Y-74130665D01*
X152833718Y-74098000D01*
X152666282Y-74098000D01*
X152502064Y-74130665D01*
X152347374Y-74194740D01*
X152208156Y-74287762D01*
X152089762Y-74406156D01*
X151996740Y-74545374D01*
X151932665Y-74700064D01*
X151900000Y-74864282D01*
X150250000Y-74864282D01*
X150250000Y-74093965D01*
X159750000Y-74093965D01*
X159750000Y-75802036D01*
X159765916Y-75963638D01*
X159828817Y-76170988D01*
X159930959Y-76362084D01*
X160068420Y-76529581D01*
X160235917Y-76667042D01*
X160427013Y-76769184D01*
X160634363Y-76832084D01*
X160850000Y-76853322D01*
X161065638Y-76832084D01*
X161272988Y-76769184D01*
X161464084Y-76667042D01*
X161631581Y-76529581D01*
X161769042Y-76362084D01*
X161871184Y-76170988D01*
X161934084Y-75963638D01*
X161950000Y-75802036D01*
X161950000Y-74093964D01*
X161934084Y-73932362D01*
X161871184Y-73725012D01*
X161769042Y-73533916D01*
X161631581Y-73366419D01*
X161464084Y-73228958D01*
X161272987Y-73126816D01*
X161065637Y-73063916D01*
X160850000Y-73042678D01*
X160634362Y-73063916D01*
X160427012Y-73126816D01*
X160235916Y-73228958D01*
X160068419Y-73366419D01*
X159930958Y-73533916D01*
X159828816Y-73725013D01*
X159765916Y-73932363D01*
X159750000Y-74093965D01*
X150250000Y-74093965D01*
X150250000Y-74093964D01*
X150234084Y-73932362D01*
X150171184Y-73725012D01*
X150069042Y-73533916D01*
X149931581Y-73366419D01*
X149764084Y-73228958D01*
X149572987Y-73126816D01*
X149365637Y-73063916D01*
X149150000Y-73042678D01*
X148934362Y-73063916D01*
X148727012Y-73126816D01*
X148535916Y-73228958D01*
X148368419Y-73366419D01*
X148230958Y-73533916D01*
X148128816Y-73725013D01*
X148065916Y-73932363D01*
X148050000Y-74093965D01*
X145325000Y-74093965D01*
X145325000Y-72325000D01*
X164675000Y-72325000D01*
X164675001Y-109675000D01*
G37*
G04 #@! TD.AperFunction*
M02*
